/* XPM */
static char *a6a04ead40b44b91e386e174efb10e89UEDzO3U5OGWjGmJO[] = {
/* columns rows colors chars-per-pixel */
"65 65 248 2 ",
"   c #EAEAEA",
".  c gray93",
"X  c gray92",
"o  c #E9E9E9",
"O  c gray88",
"+  c #DADADA",
"@  c #D6D7D7",
"#  c gray82",
"$  c #C3C3C3",
"%  c #C0C0C0",
"&  c gray95",
"*  c #E4E4E4",
"=  c #DFDFDF",
"-  c gray87",
";  c #E1E1E1",
":  c #DDDDDD",
">  c #D8D8D8",
",  c gainsboro",
"<  c #E6E6E6",
"1  c gray90",
"2  c #E2E2E2",
"3  c #D5D5D5",
"4  c gray83",
"5  c #E7E7E7",
"6  c #ECECEC",
"7  c #DCDDDD",
"8  c LightGray",
"9  c #C8C8C8",
"0  c #CBCBCB",
"q  c #CACACA",
"w  c gray79",
"e  c gray78",
"r  c #C6C6C6",
"t  c gray77",
"y  c gray80",
"u  c #CECECE",
"i  c #C1C1C1",
"p  c #CDCDCD",
"a  c gray86",
"s  c #D2D2D2",
"d  c #C5C5C5",
"f  c #BDBEBE",
"g  c #D0D1D1",
"h  c gray85",
"j  c #D7D7D7",
"k  c gray81",
"l  c gray76",
"z  c gray84",
"x  c #E1E0E0",
"c  c #C3C4C4",
"v  c #CFCECE",
"b  c #DEDDDD",
"n  c #CDCECE",
"m  c #C0C1C1",
"M  c #B8B9BA",
"N  c #B9BBBB",
"B  c #C3C3C4",
"V  c #CACBCB",
"C  c gray74",
"Z  c #B8B9B9",
"A  c #C8C9C9",
"S  c #B9BABA",
"D  c #ACAEAF",
"F  c #A7AAAA",
"G  c #B4B6B6",
"H  c #BCBDBD",
"J  c #BBBCBC",
"K  c #C4C5C5",
"L  c #C9CACA",
"P  c #B5B8B8",
"I  c #B6B8B9",
"U  c #C6C7C7",
"Y  c #D0D0D0",
"T  c #CECFCF",
"R  c #BFC0C0",
"E  c #BCBEBE",
"W  c #B9BCBC",
"Q  c #AAAFAF",
"!  c #A9AEAF",
"~  c #C6C8C8",
"^  c #DADBDB",
"/  c #DBDCDC",
"(  c #D5D6D6",
")  c #D4D5D6",
"_  c #C4C8C9",
"`  c #BCC0C1",
"'  c #CED0D1",
"]  c #DDDEDE",
"[  c #D4D5D5",
"{  c #C7C8C8",
"}  c #BFC1C1",
"|  c #B1B4B5",
" . c #C1C4C4",
".. c #D3D5D5",
"X. c #C0C4C5",
"o. c gray89",
"O. c #C2C3C3",
"+. c #BCBCBC",
"@. c #BEBFBF",
"#. c #D7D8D8",
"$. c #D1D2D2",
"%. c #CBCCCC",
"&. c #DBDBDC",
"*. c #CFD0D0",
"=. c #E6E5E5",
"-. c #D3D4D4",
";. c #C9C9CA",
":. c #C1C2C2",
">. c #C2C3C4",
",. c #BCBDBE",
"<. c #B3B7B7",
"1. c #A2A7A8",
"2. c #B3B6B7",
"3. c #BDBFBF",
"4. c #A4AAAA",
"5. c #A1A7A8",
"6. c #B5B8B9",
"7. c #CCCFCF",
"8. c #F2F2F1",
"9. c gray91",
"0. c #DEDFDF",
"q. c gray94",
"w. c #E4E5E5",
"e. c #DEE0E0",
"r. c #DDDEDF",
"t. c #B7B8B8",
"y. c #D7D6D6",
"u. c #BEC0C0",
"i. c #B0B3B3",
"p. c #B7B9B9",
"a. c #AFB2B2",
"s. c #BABBBB",
"d. c #B7B7B7",
"f. c #CCCDCD",
"g. c #B1B4B4",
"h. c #B4B7B7",
"j. c #C5C6C6",
"k. c #D2D3D3",
"l. c #C9CCCC",
"z. c #B9BDBE",
"x. c #C3C6C7",
"c. c #CACDCE",
"v. c #BFC3C4",
"b. c #D1D3D3",
"n. c #D8D9D9",
"m. c #D9DADA",
"M. c #BEC3C3",
"N. c #E2E1E1",
"B. c #E0E1E1",
"V. c #E4E3E3",
"C. c #B2B5B6",
"Z. c #A2A8A9",
"A. c #B1B5B5",
"S. c #C5C7C7",
"D. c #A6ABAB",
"F. c #BABCBC",
"G. c #C1C1C2",
"H. c #B0B3B4",
"J. c #A0A6A6",
"K. c #ABB0B0",
"L. c #C2C4C4",
"P. c #D7D7D8",
"I. c #E5E6E6",
"U. c #EAEBEB",
"Y. c #D6D5D5",
"T. c #DFDEDE",
"R. c #B8BABA",
"E. c #AAADAD",
"W. c #B2B4B4",
"Q. c gray",
"!. c #B0B2B2",
"~. c #C7C7C8",
"^. c #AFB2B3",
"/. c #BFC0C1",
"(. c #C5C8C8",
"). c #B8BDBE",
"_. c #BFC2C2",
"`. c #B8BCBD",
"'. c #D3D4D5",
"]. c #C4C8C8",
"[. c #D2D3D4",
"{. c #D9D8D8",
"}. c #C4C6C6",
"|. c #A8ADAE",
" X c #B5B9B9",
".X c #A3A8A9",
"XX c #B6B9B9",
"oX c #A6ABAC",
"OX c #E1E3E3",
"+X c #E9EAEA",
"@X c #C8C9CA",
"#X c #C6C6C5",
"$X c #B1B2B2",
"%X c #B6B8B8",
"&X c #CAC9C9",
"*X c gray75",
"=X c gray73",
"-X c #B6B7B7",
";X c #ABAEAE",
":X c #A7AAAB",
">X c #C4C7C8",
",X c #B7BABA",
"<X c #DCDCDD",
"1X c #BFC2C3",
"2X c #CFD0D1",
"3X c #CFCFD0",
"4X c #BABCBD",
"5X c #A0A6A7",
"6X c #A8ACAD",
"7X c #A0A5A6",
"8X c #B3B6B6",
"9X c #C4C5C6",
"0X c #A7ACAC",
"qX c #A5AAAB",
"wX c #C3C4C5",
"eX c #CDCFCF",
"rX c #CDCECF",
"tX c #E7E8E8",
"yX c #E3E4E4",
"uX c #DFE0E0",
"iX c #E8E9E9",
"pX c #B4B5B5",
"aX c gray72",
"sX c #B9B9B9",
"dX c #C5C5C6",
"fX c #C1C3C3",
"gX c #C9CBCB",
"hX c #B2B5B5",
"jX c #AEB1B1",
"kX c #C6C9C9",
"lX c #C0C1C2",
"zX c #C1C4C5",
"xX c #C2C6C6",
"cX c #D0D2D2",
"vX c #D4D4D3",
"bX c #C3C5C5",
"nX c #BABBBC",
"mX c #B1B3B3",
"MX c #9CA1A1",
"NX c #A3A7A7",
"BX c #A8ACAC",
"VX c #959B9C",
"CX c #AAADAE",
"ZX c #9BA0A1",
"AX c #999FA0",
"SX c #CECECF",
"DX c #B9BABB",
"FX c white",
/* pixels */
"  . . X . . . . . . . . . . o O + @ # $ % O & * O O O = - - ; : : : : > > > + , O + # * <   1 2 ; = , 3 4 , 2 1 5   X . . . 6 X : ",
"; O O = = O O O O O O O O O = = 7 8 8 8 9 + , 0 q w e r t t y 0 0 u u 0 r i r 0 u p e 2 = - : a > s u d f g h a = ; ; ; ; ; O - j ",
"* O O O = = O O O O O O O O = - + + : : u h 4 q q 9 e d t t w e p u u u p 9 p u u u w * = - - : , a 8 s q h O = ; ; O ; ; ; ; - 3 ",
"1 ; ; ; j 8 = ; ; ; ; ; ; ; O : - = = , k + 3 0 q w r l $ $ $ w k k k k k u u k k k w 2 O = = = = a z j 4 > O 2 2 O : = ; 2 2 = j ",
"1 ; = 8 q r u h = , : O x 2 ; = ; = - s c a j y q r r r t q p k k k k k k k v k k k 9 = = O O : h > j > 3 4 3 + ; ; ; O b = 2 ; z ",
"k n w l i i % m m M N B V 8 8 s s y r C Z 4 A S D F G H J % t K d t t t K t t $ t c l z # s # w e q w e w q i i u 8 s L P I U p Y ",
"; , - a h T m R E W Q ! ~ , ^ : a / ( g 9 Y 4 ) _ ` ' 7 ] 7 , [ { q j h a h ^ j T } |  .g = - = - O - = ^ z h - , ] : ..X._ ) 7 o.",
"1 1 1 2 - h 0 O.% +.@.#.; 2 a > > h 3 0 p z a x 1 < 5 5 5 < = q 3 O * O + > > > $.w %.8 &.a a : - - - , *.U - * * ; o.1 =.=.1 * * ",
"O O O = = + # s # w p 1 O O = + z - - Y k - O ; 2 2 2 ; ; ; 2 k ; * O O - j h = a y 3 a = h 4 3 3 3 3 3 s e a O O O - = O O O O O ",
"; ; ; = + j > : > h g * O ; ; - - ; ; = j O 2 2 2 O O 2 2 2 o.s ; o.O ; O : O ; ; a h : j 4 8 Y 8 4 4 4 s 9 : ; ; ; O - ; ; ; ; ; ",
"; ; ; O , - - = 4 -.Y 2 ; ; ; O ; ; ; = > a O o.o.O O O o.* * 4 - 2 ; ; ; O ; ; ; : > : + z s k k Y s 8 # w - ; ; 2 O z - 2 ; ; ; ",
": : : 7 h a z z p H p : - - , j + , > 3 4 Y r 3 - = = a *.3 : 8 a - = - + j , a z 4 4 u y > Y p y e t q y w + , , z q t y 4 , : : ",
";.{ A { { U K :.R E # 3 # s k p p k 0 >.,.c r L k # n <.1.2.K K Y 0 T k u V n y V r r 9 { L A L 3.4.5.N c e w $ K O.:.O.O.c K :.:.",
"  o   o   o     o 2 2 ; = = : = O o.* ( 6.7.8.9.* * * 0./ ] + 8 0 e y 8 h > > > : T :.o q.o 5 9.w.e.r.* O j s j , 0.- ; ; 1 2 Y e ",
"o.O O O O ; ; ; O a , + + > 3 u Y j a , 4 a * j z j j j j 3 y 0 U t.f 9 d i r 0 u p $ 9.2 , a h > j 3 > O , = = = a 3 8 + = ; - 4 ",
"o.O O O O O O ; O - - , , , , j > , , , j O - z j j j z z z s 8 y i 0 u p 9 y u u u d < = : a h > 3 3 j a + O O O O : a O O O = 4 ",
"o.O O O = , : ; ; O - , , , , a a , , , z - - j > > z 8 z > j 8 q w k k k u u k k k d 1 O : , + 3 s 3 4 3 : ; ; ; ; ; = ; ; ; = z ",
"* O O , : O O ; = - : : : : : : : : : - 4 - O > z 8 z j z 4 u e d e 0 u k p p k k k t 9.; - h y.j z j : O 2 2 2 2 2 2 ; ; ; 2 - # ",
"# A u.i.u.n 8 @ 4 Y # # Y g g # g k Y # w j p m p.a.O.%.p 9 s.d.C H J f % C f l t c @.: f.O.g.h.j.0 0 s 4 4 4 4 4 4 4 4 8 k.4 Y k ",
"- @ l.z.x.( h + 8 { i t g / + , h h 3 # { k s @ c.v.b.- - , n.# j.9 3 m.&.h + h n.@ h 2 , b.M.M.@ O - = a j , = , : , : , , , , ; ",
"* * ; : h > : 2 o.+ A a O o.: > z h , : , : O * < < 1 1 1 * a t 3 ; * 1 * * ; = 3 u j + : N.1 < < < < * > w   ; + a a a a a ; * 2 ",
"O O O = h , O O O h 4 9.O O = + j - O O O O O O O O O O O O O y 2 * O O = : - = a y z O O ; 2 2 2 2 2 2 = p ; 4 4 4 3 3 3 3 , - : ",
"; ; ; ; O O ; ; ; h 8 5 O ; ; - - ; ; ; ; ; ; ; ; - - ; ; ; ; k B.* O ; O = O ; ; , + 2 2 2 2 2 2 2 2 o.O k = 3 3 3 3 8 8 z j h = ",
"; ; ; ; ; O ; ; 2 j s o.; ; ; O ; ; ; ; ; ; ; ; ; = - - O 2 2 g 0.o.; ; ; ; ; ; ; : > : ; o.o.o.o.o.V.* 2 s ; 3 z 3 s 8 8 > + - ; ",
", , , , , , a , : Y T , - - : - - - - - - - = - : , , z f.[ h p + : : ] + z ^ + 3 k.s u %.a = = : z s h a g - k %.K y g # j , , , ",
"A e A { A { { U K @.V k Y s Y s # s # s # p w u Y Y %.C.Z.A.l O.8 y Y k p w y q V q 0 O.i q Y # S.! D.F.$ K 0 G.H.J.K.L.{ { A A e ",
": 2 5 = O = = + 8 n Y a 2 * * 5 5 9.< 2 8 9 T ; < o.2 , m.m.h s @ - 9.< 5 < 5 < < - s Y + 1 1 2 = n.P.m.z s h o.5 I.I.U.X X 5 @ Y ",
"o.O O : j 8 > h y w 3 + , z z j j j j 4 l u ; O = + 4 4 + a = = : = + 4 4 3 4 4 4 k l - ; O = h 8 j : = = O ; O 2 2 2 2 2 2 ; 4 K ",
"< O O O - + O ; a s : , , z 4 3 3 3 3 z A s * O O O a , O - O ; : , h 4 4 4 4 4 4 4 e O ; O O O + - O O O O ; ; 2 ; : 2 2 2 2 : w ",
"1 ; ; ; O O ; ; ; h : a 3 4 s Y 8 4 3 3 9 # o.; ; ; = O ; O = O - z 3 3 s s 3 3 3 3 e - ; ; ; ; = ; ; ; ; ; ; 2 o.- # a 2 o.o.] V ",
"; ; 2 ; = O 2 O , > j z a + # s Y v s 8 w Y O 2 2 ; ; 2 2 2 2 ; O - , > 4 3 8 8 Y.3 w a O 2 ; O ; 2 2 2 2 2 2 2 2 a - T.+ - o.= q ",
"3 4 4 s y p *.p 0 0 9 H O.w r t R.E.W.@.Q.f.8 3 4 8 4 4 4 4 3 3 3 3 8 p V e R.!.f K t 4 k.4 8 8 4 4 4 4 4 3 4 4 8 y # ~.^.a./.d U ",
"O + , + a m.^ + h z w e # + > > (.)._.A r Y 3 : : - = 0.= - : z A 9 > + , z v.`.S.V 9 8 j O = O - O - O + 4 9 Y h : , '.X.].[.m.= ",
"1 1 1 1 1 1 1 1 2 s # ; * < 2 - + z # t 9 @ - o.5 o       o ; y k.a o.2 a > {.a - , a - 2 < < < < < 1 o.8 t : O * 1 1 1 < < 1 1 1 ",
"O O O O O O O O O + : X o.o.o.; = z Y t p ; o.* < < < < < < < s 2 * O O - j h = O O O O O O O O O O O O , w o ; O O O O O O O O O ",
"; O ; = : O ; O ; , -   * * * o.o.h 8 # 8 * < < < * * < < < < 3 ; o.O O O : O ; O ; ; ; ; ; O : = ; ; ; - 0 o ; ; ; ; ; ; ; ; ; ; ",
"; ; ; = - - O ; 2 - O 5 * * * o.= 3 j 4 3 = * < < * o.o.< 5 5 > O ; ; ; ; O ; ; ; ; ; ; ; ; O - - = ; 2 = y < ; ; ; ; ; ; ; ; ; ; ",
": : = = - a $.4 + h + 2 o.o.= z 8 # Y s z 4 y + 2 o.2 7 k.a = ( h : = - : = = = = = = = = = ] : a k.u j > 0 ; : : : : : : : : : : ",
"A { n Y s }.|. Xm $ f.Y # 8 u 0 y p q y p V e V Y s n <..XXXU q + Y # k # *.# g Y y p w q u k n O.oX.XI @.c f.c e { e { { { { { U ",
"2 * 5 ; = ^ [ k.f.q Y a o.5 5 X   X   1 z a o X o o   w.OXI.+X  6   X o 1 , h j k t K u # h h + a [ *.V 9 w k 8 > + a : : : a g @X",
"* O O = , h s k l t > , - ; 2 2 2 2 2 O u 3 ; ; O = O ; ; ; ; ; O ; O O = = + # s # d : y q w w 0 w #XQ.$XQ.d e 9 w q q q q w m %X",
"1 O O O = - + 3 # u = ; ; 2 ; ; 2 2 2 o.z > o.O O O = O O O O O O O O O = : h + , , 0 - y q q q 9 w 9 r H l 0 q q q w q q q 0 e 3.",
"* ; ; ; ; O + > h 3 : 2 o.o.O - ; o.o.o.j + * ; ; ; : - ; ; ; ; ; ; ; ; = : - O : : T - p 0 0 0 0 q e e t $ 0 0 0 0 e 9 0 0 0 9 R ",
"O 2 2 2 - a h + h j j 3 - o.2 o.O , ; o.h h 1 2 ; = > j - ; ; N.2 2 2 2 ; O ; O - z w , p y y 0 9 e r r l l $ r y y 0 0 w &Xy q O.",
"s *.Y p j.e A U r 9 d Z *Xu k y r S @.K K U p 8 # y q q q w t } A k 4 3 3 8 $.k u % % 3 $ $ $ Q.=XJ s.Z S H Z -X@.:.i J ;X:X-XH m ",
"] > h > > #.> > j [ 9 U k m.+ a @ 3 s u r 0 k , = = = = = + '.>X,X/.j , : a h j 4 f.w s -.: 7 : a <X^ ^ j Y j.p 4 h j $.1XX.2X> - ",
"< < < 5 5 5 5 5 o.3XU = 2 * - + > + : : + , O 1 5 5 5 < < < , j.Y a * o.: h h a - , a 0.o.5 5 5 5 5 5 1 4 K , : : h > : o.=.1 1 1 ",
"; O ; 2 2 2 2 ; 2 ( T o O O = h 3 : O O O O O O O O O O O O O q a * ; ; = > + O ; ; 2 ; ; ; ; ; ; ; ; ; : L o ; = h a O O O O O O ",
"2 2 2 ; = 2 2 2 o.h g 9.O O ; - - ; ; O O ; ; ; ; - - ; ; ; ; n a * 2 2 2 - ; 2 2 2 2 2 2 2 ; = ; 2 2 2 = y   ; ; O O ; ; ; ; ; ; ",
"2 2 o.; O O 2 o.* + # * ; ; ; O ; ; ; ; ; ; ; ; ; - - - ; 2 2 k h 2 2 2 2 ; 2 2 2 2 2 2 2 2 ; = = O 2 o.O p < ; ; ; O ; ; ; ; ; ; ",
"- - = = O - 3 j - j u , = = - = = = = = = = = = = - : > *.j a p 8 - ; O O ; ; ; ; ; ; 2 2 ; O = : 4 Y m.+ f.; : : : : , : : : : : ",
"j.~.U { A 4X5X6Xf i q u *.Y Y # # # # # # k # g Y k V A.7X8Xc 9 > 8 8 s s 8 s 8 # k k 0 0 g s k 9X0XqX,XR t 0 m j.K }.wXK 9X9Xj.c ",
"O * 1 O : #.eXrXV q # a 2 < tXo   o   o.z n.      o   yXuXw.o X 6 X     * - > j n K t p j * o.O : [ b.n A q ( : yX1 5 9.iX9.< + T ",
"1 O O = , h 8 k l t > , - ; 2 2 2 2 2 O u 3 o.o.o.2 o.* * * o.o.o.o.o.o.2 2 : -.3 4 U 2 2 O = : + s e Q.pXp a : = O O O O O = @ O.",
"< O O O = - + 3 s u = ; ; 2 ; ; 2 2 2 o.z j < * * * o.* * * * * * * * * o.; : - = O y * 2 O O O - , q j.*X3 ; ; O O = O O O ; : q ",
"* ; ; ; ; O + > h 3 : 2 o.o.O - ; o.o.o.j + 5 * * * O ; * * * * * * * * 2 O 2 o.O O Y 1 2 ; ; ; ; + w w d 4 ; ; ; O , - O ; ; - q ",
"; 2 2 2 - a h + h j j 3 - o.2 o.O , O o.h > 5 1 1 2 a + 2 * * 1 < 1 1 1 * * * * 2 h q O ; 2 2 = z 0 e k p 3 z #.; ; O O , , ; = u ",
"s k k f.d e 9 r j.{ K aX*Xp k y j.sXQ.t K U k z 3 k p p y 0 dXfXgX$.j > > z 3 s Y O.i + 8 4 s 9 r d $ i r 0 l H q # Y 9 hXjXu.j.j.",
"+ + > + j h #.n.#.3 L U # h a h > -.4 u { w g a O = = = - / [.kXP lXj = : = h + 3 u w 4 j ; 2 = O = ; : 7 # w p #.m.a k.zXxXcXm.: ",
"s # 8 8 8 8 8 vX# :.bX: o.* = + h a : : a : ; < 5 5 5 5 5 < 7 j.s a * o., h > a : , a - 2 < 5 < 5 < < * -.K j q w r d w k # Y Y Y ",
"9 r w q q q q q q :.L 1 ; ; O + j - O ; ; ; ; ; ; ; ; ; ; ; O V - * O O - j h = O O O O O O O O O O O O , L O r d % l d r r r r r ",
"q q q q 9 q 0 0 0 d f.1 ; ; ; = = ; ; ; ; ; ; ; ; = = ; ; ; 2 u - o.O O O : O ; O O ; O ; ; O : = ; ; ; - y O 9 e r r e e e e e e ",
"w 0 0 q w w 0 y y U f.2 2 2 2 ; ; 2 2 2 2 2 2 2 2 = = = ; 2 o.Y a 2 ; ; ; O ; ; ; ; ; ; ; ; O - - = ; 2 = p - 9 9 9 e 9 9 9 9 9 9 ",
"e e 9 w 0 q d r q r V a O O = O O O O O O O O O = - - h Y > , n z : = - - = = = = = = = = = - : a k.T #.> %.a e e e e r e e e e e ",
"s.nXJ f f mXMXNXR.% y k u p p p u p u p p p p p p 0 r BXVXCXf $ 4 p y f.y p y p f.p y y y y 0 w E ZXAXi.@.e SXR.N S N R.S DXDXN S "
};
