/* XPM */
static char *result[] = {
/* columns rows colors chars-per-pixel */
"65 65 247 2 ",
"   c #00855B",
".  c #0B8C64",
"X  c #069969",
"o  c #17986A",
"O  c #1D946E",
"+  c #259A75",
"@  c #2B9F7A",
"#  c #2E926E",
"$  c #02A46B",
"%  c #01AB6B",
"&  c #03A568",
"*  c #02AC71",
"=  c #09A876",
"-  c #1AA37C",
";  c #13AD7C",
":  c #16A476",
">  c #01B375",
",  c #02BC7C",
"<  c #06B778",
"1  c #16B17C",
"2  c #08AB6E",
"3  c #27A77B",
"4  c #06BA85",
"5  c #18B989",
"6  c #0CBB90",
"7  c #22AD83",
"8  c #38AB87",
"9  c #25B589",
"0  c #2EB58A",
"q  c #32BA91",
"w  c #4A9E86",
"e  c #49A889",
"r  c #48BA97",
"t  c #57B99A",
"y  c #51B78F",
"u  c #6DBC9F",
"i  c #5DB6A0",
"p  c #01C489",
"a  c #19C28E",
"s  c #06CD99",
"d  c #0BCC9B",
"f  c #03CC92",
"g  c #1BC494",
"h  c #13CB92",
"j  c #1DC699",
"k  c #14CC9B",
"l  c #19CD9C",
"z  c #02D59B",
"x  c #0ED39C",
"c  c #02DA9A",
"v  c #04D696",
"b  c #12D59E",
"n  c #16D69C",
"m  c #2CC495",
"M  c #29C999",
"N  c #38C69A",
"B  c #23D49E",
"V  c #01E09E",
"C  c #10E19F",
"Z  c #1ACFA3",
"A  c #0CD5A4",
"S  c #03D9A3",
"D  c #0BDAA4",
"F  c #0BDDA9",
"G  c #09D8A7",
"H  c #13D5A4",
"J  c #1AD3A2",
"K  c #13DBA4",
"L  c #1CD4AA",
"P  c #13DCAA",
"I  c #1DDBAC",
"U  c #1BDAA4",
"Y  c #07CFA0",
"T  c #2ACCA5",
"R  c #28CCA7",
"E  c #34CDA2",
"W  c #37CBA5",
"Q  c #24D3A4",
"!  c #2BD9A6",
"~  c #2CD4A9",
"^  c #2BDDAE",
"/  c #26D9AA",
"(  c #34D2A9",
")  c #34DEAD",
"_  c #3BD6A9",
"`  c #2ADAB1",
"'  c #38D3B2",
"]  c #3ECFB0",
"[  c #0DE1AC",
"{  c #06E4A9",
"}  c #12E5AE",
"|  c #16E1A1",
" . c #1AE5B4",
".. c #1DF1B6",
"X. c #26E2AE",
"o. c #2CE5B2",
"O. c #27E8B8",
"+. c #38EAB9",
"@. c #4CC59C",
"#. c #45C89D",
"$. c #53C19E",
"%. c #46CCA8",
"&. c #52C5A1",
"*. c #5CCBAB",
"=. c #5AC9A7",
"-. c #4DD9AE",
";. c #5CD2AC",
":. c #55D2AE",
">. c #44DBB4",
",. c #46DBB5",
"<. c #57D9B6",
"1. c #6BCCAA",
"2. c #67C7A8",
"3. c #63D5B5",
"4. c #75D6B6",
"5. c #70CDB3",
"6. c #48E8BD",
"7. c #56E1BA",
"8. c #63E0B7",
"9. c #72E1BD",
"0. c #3AEDC2",
"q. c #36EFC3",
"w. c #3CF3C4",
"e. c #3DFACB",
"r. c #38F9C7",
"t. c #3CFFD1",
"y. c #26F1C2",
"u. c #56DDC5",
"i. c #69DFCF",
"p. c #44EEC5",
"a. c #4BE8C6",
"s. c #52E5C4",
"d. c #53ECC4",
"f. c #5BEAC5",
"g. c #53ECCB",
"h. c #5AE6C8",
"j. c #42F2C5",
"k. c #4BF2C3",
"l. c #43F4CB",
"z. c #4CF4CC",
"x. c #43FCCD",
"c. c #4BF9CC",
"v. c #54F8CE",
"b. c #55F4CB",
"n. c #45FDD2",
"m. c #4CFBD1",
"M. c #4BF5D0",
"N. c #54F5D1",
"B. c #5BF4D3",
"V. c #56FDD6",
"C. c #62EBC9",
"Z. c #6DEECD",
"A. c #66E7C5",
"S. c #74EDCB",
"D. c #78E7CA",
"F. c #69F1CE",
"G. c #67ECD2",
"H. c #78EDD2",
"J. c #69F5D4",
"K. c #73F4D4",
"L. c #7EF4D4",
"P. c #76FBDA",
"I. c #7DF9DB",
"U. c #54FFE0",
"Y. c #70FFE6",
"T. c #82BCAE",
"R. c #96C9BA",
"E. c #85D0BB",
"W. c #89DCC4",
"Q. c #9BDDCC",
"!. c #A6DFCC",
"~. c #87EBCD",
"^. c #98E7CD",
"/. c #94ECD3",
"(. c #9DECD5",
"). c #98E9D5",
"_. c #8DFCDF",
"`. c #86F6D9",
"'. c #95F3DB",
"]. c #9AF5DB",
"[. c #93FCDC",
"{. c #9EF8DC",
"}. c #96F3D6",
"|. c #8BEFD0",
" X c #A2ECD4",
".X c #A6EFDC",
"XX c #ABE8D6",
"oX c #B2EBDC",
"OX c #B6E9D9",
"+X c #A3F3DD",
"@X c #ABF3DE",
"#X c #A6F6DA",
"$X c #A0E4CF",
"%X c #85FCE1",
"&X c #8EFEE3",
"*X c #94FEE4",
"=X c #9BFCE4",
"-X c #93FFE8",
";X c #9BFFEA",
":X c #98F5E0",
">X c #BBEDE1",
",X c #A5F6E1",
"<X c #ACF3E1",
"1X c #A2FDE4",
"2X c #ABFDE5",
"3X c #A4FDEA",
"4X c #ABFEE8",
"5X c #B3F4E4",
"6X c #B2FBE5",
"7X c #BDF5E9",
"8X c #B4FEED",
"9X c #BCFDEC",
"0X c #BAF3E8",
"qX c #B9FFF4",
"wX c #C1EADB",
"eX c #CBEDE9",
"rX c #C9ECE6",
"tX c #D7EAE8",
"yX c #C3F4E6",
"uX c #C5F4EA",
"iX c #CCF5EB",
"pX c #C3FBED",
"aX c #CCF6EA",
"sX c #D2F4EC",
"dX c #D7F8EF",
"fX c #C3FDF3",
"gX c #CBFEF3",
"hX c #CCFFFA",
"jX c #CAFBF6",
"kX c #D4F2F1",
"lX c #DBF3F2",
"zX c #D3FCF3",
"xX c #DBFEF4",
"cX c #DBFDFB",
"vX c #D3FDFA",
"bX c #DDEFF1",
"nX c #E5E6EB",
"mX c #E5F2EE",
"MX c #E1F5F3",
"NX c #E2FAF4",
"BX c #E5FEFC",
"VX c #ECFDFA",
"CX c #E9F6F6",
"ZX c #F2FDFE",
"AX c #FDFAFF",
"SX c #E5E8F1",
"DX c None",
/* pixels */
"DXDXDXDXDXDXDXDXDXDXDXDXDXDXDXDXDXDXDXDXDXDXDXDXDXDXDXDXDXDXDXDXDXDXDXDXDXDXDXDXDXDXDXDXDXDXDXDXDXDXDXDXDXDXDXDXDXDXDXDXDXDXDXDXDX",
"DXDXDXDXDXDXDXDXDXDXDXDXDXDXDXDXDXDXDXDXDXDXDXDXDXDXDXDXDXDXDXDXDXDXDXDXDXDXDXDXDXDXDXDXDXDXDXDXDXDXDXDXDXDXDXDXDXDXDXDXDXDXDXDXDX",
"DXDXDXDXDXDXDXDXDXDXDXDXDXDXDXDXDXDXDXDXDXDXDXDXDXDXDXDXDXDXDXDXDXDXDXDXDXDXDXDXDXDXDXDXDXDXDXDXDXDXDXDXDXDXDXDXDXDXDXDXDXDXDXDXDX",
"DXDXDXDXDXDXDXDXDXDXDXDXDXDXDXDXDXDXDXDXDXDXDXDXDXDXDXDXDXDXDXDXDXDXDXDXDXDXDXDXDXDXDXDXDXDXDXDXDXDXDXDXDXDXDXDXDXDXDXDXDXDXDXDXDX",
"DXDXDXDXDXDXDXDXDXDXDXDXDXDXDXDXDXDXDXDXDXDXDXDXDXDXDXDXDXDXDXDXDXDXDXDXDXDXDXDXDXDXDXDXDXDXDXDXDXDXDXDXDXDXDXDXDXDXDXDXDXDXDXDXDX",
"DXDXDXDXDXDXDXDXDXDXDXDXDXDXDXDXDXDXDXDXDXDXDXDXDXDXDXDXDXDXDXDXDXDXDXDXDXDXDXDXDXDXDXDXDXDXDXDXDXDXDXDXDXDXDXDXDXDXDXDXDXDXDXDXDX",
"DXDXDXDXDXDXDXDXDXDXDXDXDXDXDXDXDXDXDXDXDXDXDXDXDXDXDXDXDXDXDXDXDXDXDXDXDXDXDXDXDXDXDXDXDXDXDXDXDXDXDXDXDXDXDXDXDXDXDXDXDXDXDXDXDX",
"DXDXDXDXDXDXDXDXDXDXDXDXDXDXDXDXDXDXDXDXDXDXDXDXDXDXDXDXDXDXDXDXDXDXDXDXDXDXDXDXDXDXDXDXDXDXDXDXDXDXDXDXDXDXDXDXDXDXDXDXDXDXDXDXDX",
"DXDXDXDXDXDXDXDXDXDXDXDXDXDXDXDXDXDXDXDXDXDXDXDXDXDXDXDXDXDXDXDXDXDXDXDXDXDXDXDXDXDXDXDXDXDXDXDXDXDXDXDXDXDXDXDXDXDXDXDXDXDXDXDXDX",
"DXDXDXDXDXDXDXDXDXDXDXDXDXDXDXDXDXDXDXDXDXDXDXDXDXDXDXDXDXDXDXDXDXDXDXDXDXDXDXDXDXDXDXDXDXDXDXDXDXDXDXDXDXDXDXDXDXDXDXDXDXDXDXDXDX",
"DXDXDXDXDXDXDXDXDXDXDXDXDXDXDXDXDXDXDXDXDXDXDXDXDXDXDXDXDXDXDXDXDXDXDXDXDXDXDXDXDXDXDXDXDXDXDXDXDXDXDXDXDXDXDXDXDXDXDXDXDXDXDXDXDX",
"DXDXDXDXDXDXDXDXDXDXDXDXDXDXDXDXDXDXDXDXDXDXDXDXDXDXDXDXDXDXDXDXDXDXDXDXDXDXDXDXDXDXDXDXDXDXDXDXDXDXDXDXDXDXDXDXDXDXDXDXDXDXDXDXDX",
"DXDXDXDXDXDXDXDXDXDXDXDXDXDXDXDXDXDXDXDXDXDXDXDXDXDXDXDXDXDXDXDXDXDXDXDXDXDXDXDXDXDXDXDXDXDXDXDXDXDXDXDXDXDXDXDXDXDXDXDXDXDXDXDXDX",
"DXDXDXDXDXDXDXDXDXDXDXDXDXDXDXDXDXDXDXDXDXDXDXDXDXDXDXDXDXDXDXDXDXDXDXDXDXDXDXDXDXDXDXDXDXDXDXDXDXDXDXDXDXDXDXDXDXDXDXDXDXDXDXDXDX",
"DXDXDXDXDXDXDXDXDXDXDXDXDXDXDXDXDXDXDXDXDXDX<X,XfXhX5X>XeXbXBXeX8XfXzXyX,X+XiXVXsXdXdXmXDXDXDXDXDXDXDXDXDXDXDXDXDXDXDXDXDXDXDXDXDX",
"DXDXDXDXDXDXDXDXDXDXDXDXDXDXDXDXDXDXDXDXDX<X;.E K.J.%.r 3.).'.2.W :.<.%.M N 4.oXXXOXwXtXmXDXDXDXDXDXDXDXDXDXDXDXDXDXDXDXDXDXDXDXDX",
"DXDXDXDXDXDXDXDXDXDXDXDXDXDXDXDXDXDXDXDXfX%X~ v M b f M <.`.`.i f c [ c n 5 @ #X9X#XXX>XVXVXDXDXDXDXDXDXDXDXDXDXDXDXDXDXDXDXDXDXDX",
"DXDXDXDXDXDXDXDXDXDXDXDXDXDXDXDXDXDXDXkX3XJ.! b ) ) h m S.qXqX5.p x } c n 5 O 4.qX^.$X>XOXMXAXDXDXDXDXDXDXDXDXDXDXDXDXDXDXDXDXDXDX",
"DXDXDXDXDXDXDXDXDXDXDXDXDXDXDXDXDXDXDX0XL.c.X.B 6.6.N m ,XVXZX.XE ! U c O.6.q =.8X8X6XgXwXNXZXDXDXDXDXDXDXDXDXDXDXDXDXDXDXDXDXDXDX",
"DXDXDXDXDXDXDXDXDXDXDXDXDXDXDXDXDXDXDX'.v.e.o.M 7.d._ *.pXAXZXvXS.-.Q x / ) N &.1.2X2X@XpXiXtXVXDXDXDXDXDXDXDXDXDXDXDXDXDXDXDXDXDX",
"DXDXDXDXDXDXDXDXDXDXDXDXDXDXDXDXDXDX5XZ.r.r.+.M 7.k.>.~.cXCXbXlX#XS.6.) d = 7 *.e ~.}.^.2XXXwXVXDXDXDXDXDXDXDXDXDXDXDXDXDXDXDXDXDX",
"DXDXDXDXDXDXDXDXDXDXDXDXDXDXDXDXDXjXH.z.e.e.q.j A.6.<.7XMXDXeXtX9X/.A.a.R = 3 3.i 1.|.1X8X XBXlXDXDXDXDXDXDXDXDXDXDXDXDXDXDXDXDXDX",
"DXDXDXDXDXDXDXDXDXDXDXDXDXDXDXDXDX,Xk.r.e.l.j.k f.A.).vXDXDXBXtXrXQ.3.,.( ; 3 1.y e $.[.3X@XxXaXDXDXDXDXDXDXDXDXDXDXDXDXDXDXDXDXDX",
"DXDXDXDXDXDXDXDXDXDXDXDXDXDXDXDXDX'.w.r.x.g.j.x b.W.bXDXDXeXZXbXMX0X~.h.,.7 8 D.2.r + 9.{. XoXaXnXDXDXDXDXDXDXDXDXDXDXDXDXDXDXDXDX",
"DXDXDXDXDXDXDXDXDXDXDXDXDXDXDXDXDXa.y.l.G.G.N.j <.jXDXDXyXBXlXrXnXkX<XD.-.3.(.>X X1.3 0 |.#X6XpXBXVXDXDXDXDXDXDXDXDXDXDXDXDXDXDXDX",
"DXDXDXDXDXDXDXDXDXDXDXDXDXDXDX2XK.w.t.U.U.w.w.T H.vXDXDXkXMXCXxXSXBXhXH.m 9 @.1.2.1.&.@.9.#X X XdXxXVXDXDXDXDXDXDXDXDXDXDXDXDXDXDX",
"DXDXDXDXDXDXDXDXDXDXDXDXDXDXDXL.d.l.p.s.Y.V.b.%.%XfXDXDXcXiXzXiXZXVXcX/.0 X 0 8.@ $.#.N @.}.6X6XoXyXNXZXDXDXDXDXDXDXDXDXDXDXDXDXDX",
"DXDXDXDXDXDXDXDXDXDXDXDXDXDXDX<.) e.n.B.%XV.6.>.0XjXlXbXkXeXkXkXeXeXvX8X*.: 9 %.X : 4 ; : 2.}.#X^.oXsXNXDXDXDXDXDXDXDXDXDXDXDXDXDX",
"DXDXDXDXDXDXDXDXDXDXDXDXDXDXQ.5 B v f ~ H.%.a h ,.g.Z.A.<.C.h.<.<.3.i.Z.<.( ( >.( Q o.! _ 3.[.{.(.oXyXmXDXDXDXDXDXDXDXDXDXDXDXDXDX",
"DXDXDXDXDXDXDXDXDXDXDXDXDXDXDX- O ; = 8 R.T.y 3 g k n j 6 J d 6 S b l k o.n.V.N.V.l.c.6.7.S.[.[.6X9XdXZXDXDXDXDXDXDXDXDXDXDXDXDXDX",
"DXDXDXDXDXDXDXDXDXDXDXDXDXDXDX*.# ;.~.XXDXiX(.4.+.c c p p z {  .c | H Z e.U.M.a.B.g.b.d.K.[.1X}.9XgXNXDXDXDXDXDXDXDXDXDXDXDXDXDXDX",
"DXDXDXDXDXDXDXDXDXDXDXDXDXDXDXDX& & . e W.*.0 o :.5 o.( ,.L I R Q T q T N.N.u.i.u.u.6.F.`.1X(.^.9XdXVXDXDXDXDXDXDXDXDXDXDXDXDXDXDX",
"DXDXDXDXDXDXDXDXDXDXDXDXDXDXDXDXH.: 5 . 8.M * $ p.6 T W ' ( / H G / R ] u.h.h.h.d.s.C.`.}.^.!.!.tXCXDXDXDXDXDXDXDXDXDXDXDXDXDXDXDX",
"DXDXDXDXDXDXDXDXDXDXDXDXDXDXDXDXDXr X 3 ;.#.; $ ~ 5 R R ' ` / H F L R ,.a.g.g.h.d.f.Z.`.'.(.$XoXtXDXDXDXDXDXDXDXDXDXDXDXDXDXDXDXDX",
"DXDXDXDXDXDXDXDXDXDXDXDXDXDXDXDXDXDXX : &.@.2 $ 5 M l J L  .Z l [ H ~ 0.a.p.g.g.s.C.K.&X:X.XOXyXmXDXDXDXDXDXDXDXDXDXDXDXDXDXDXDXDX",
"DXDXDXDXDXDXDXDXDXDXDXDXDXDXDXDXDXDXr   N 1   : = j J A A  .d l } Y / p.e.0.l.M.g.J.%X;X2X5XaXxXDXDXDXDXDXDXDXDXDXDXDXDXDXDXDXDXDX",
"DXDXDXDXDXDXDXDXDXDXDXDXDXDXDXDXDXDXDX+ 5 > % 3 $ a n D S } s H P Y ` l.e.q.M.N.C.I.-X3X6XpXxXDXDXDXDXDXDXDXDXDXDXDXDXDXDXDXDXDXDX",
"DXDXDXDXDXDXDXDXDXDXDXDXDXDXDXDXDXDXDXE.X % , X * 4 x x S P Y K F P O.l.n.0.M.B.G.%X-X4X9XzXVXDXDXDXDXDXDXDXDXDXDXDXDXDXDXDXDXDXDX",
"DXDXDXDXDXDXDXDXDXDXDXDXDXDXDXDXDXDXDXDXe X > & > > h b F F F F G I q.l.M.M.g.B.`.-X3X<XiXBXDXDXDXDXDXDXDXDXDXDXDXDXDXDXDXDXDXDXDX",
"DXDXDXDXDXDXDXDXDXDXDXDXDXDXDXDXDXDXDXDXDXo % , < % h b P G [ [ Y O.0.w.m.M.h.G.%X-X3X5XiXDXDXDXDXDXDXDXDXDXDXDXDXDXDXDXDXDXDXDXDX",
"DXDXDXDXDXDXDXDXDXDXDXDXDXDXDXDXDXDXDXDXDXu o , , 2 m n V f Z H F O.0.w.e.c.P.=X8X:X].pXDXDXDXDXDXDXDXDXDXDXDXDXDXDXDXDXDXDXDXDXDX",
"DXDXDXDXDXDXDXDXDXDXDXDXDXDXDXDXDXDXDXDXDXDX3 2 < : 1 | V c F G G O.e.l.j.g.`.;X3X+X,XzXDXDXDXDXDXDXDXDXDXDXDXDXDXDXDXDXDXDXDXDXDX",
"DXDXDXDXDXDXDXDXDXDXDXDXDXDXDXDXDXDXDXDXDXDX1.O < 1 & | v V [ S Z y.t.l.d.Z.%X-X+X,XpXDXDXDXDXDXDXDXDXDXDXDXDXDXDXDXDXDXDXDXDXDXDX",
"DXDXDXDXDXDXDXDXDXDXDXDXDXDXDXDXDXDXDXDXDXDXDXe & % & C v V P D Q q.t.z.A.`.-X&X].5XDXDXDXDXDXDXDXDXDXDXDXDXDXDXDXDXDXDXDXDXDXDXDX",
"DXDXDXDXDXDXDXDXDXDXDXDXDXDXDXDXDXDXDXDXDXDXDXR.: & % v D s L R ` w.n.b.H.=X1X&X.XuXDXDXDXDXDXDXDXDXDXDXDXDXDXDXDXDXDXDXDXDXDXDXDX",
"DXDXDXDXDXDXDXDXDXDXDXDXDXDXDXDXDXDXDXDXDXDXDXDXy & > p J Y L R o.w.v.F.`.3X3X*X0XDXDXDXDXDXDXDXDXDXDXDXDXDXDXDXDXDXDXDXDXDXDXDXDX",
"DXDXDXDXDXDXDXDXDXDXDXDXDXDXDXDXDXDXDXDXDXDXDXDXDX3 4 > J K G L O.w.F.L.&X=X3X2XDXDXDXDXDXDXDXDXDXDXDXDXDXDXDXDXDXDXDXDXDXDXDXDXDX",
"DXDXDXDXDXDXDXDXDXDXDXDXDXDXDXDXDXDXDXDXDXDXDXDXDXy ; $ l } S P ..j.F._.*X*X1X9XDXDXDXDXDXDXDXDXDXDXDXDXDXDXDXDXDXDXDXDXDXDXDXDXDX",
"DXDXDXDXDXDXDXDXDXDXDXDXDXDXDXDXDXDXDXDXDXDXDXDXDXDX3 > f [ Y  .x.g.S.;X;X1XyXDXDXDXDXDXDXDXDXDXDXDXDXDXDXDXDXDXDXDXDXDXDXDXDXDXDX",
"DXDXDXDXDXDXDXDXDXDXDXDXDXDXDXDXDXDXDXDXDXDXDXDXDXDX4.= 4 K H O.v.K.:X,X3X4XDXDXDXDXDXDXDXDXDXDXDXDXDXDXDXDXDXDXDXDXDXDXDXDXDXDXDX",
"DXDXDXDXDXDXDXDXDXDXDXDXDXDXDXDXDXDXDXDXDXDXDXDXDXDXDXe ; K P q.Z.*X8X5X<X9XDXDXDXDXDXDXDXDXDXDXDXDXDXDXDXDXDXDXDXDXDXDXDXDXDXDXDX",
"DXDXDXDXDXDXDXDXDXDXDXDXDXDXDXDXDXDXDXDXDXDXDXDXDXDXDXDX- n K c.K.*X4XoX5XDXDXDXDXDXDXDXDXDXDXDXDXDXDXDXDXDXDXDXDXDXDXDXDXDXDXDXDX",
"DXDXDXDXDXDXDXDXDXDXDXDXDXDXDXDXDXDXDXDXDXDXDXDXDXDXDXDX&.5 J z.P.`.].DXDXDXDXDXDXDXDXDXDXDXDXDXDXDXDXDXDXDXDXDXDXDXDXDXDXDXDXDXDX",
"DXDXDXDXDXDXDXDXDXDXDXDXDXDXDXDXDXDXDXDXDXDXDXDXDXDXDXDXDX0 -.A.%X`.DXDXDXDXDXDXDXDXDXDXDXDXDXDXDXDXDXDXDXDXDXDXDXDXDXDXDXDXDXDXDX",
"DXDXDXDXDXDXDXDXDXDXDXDXDXDXDXDXDXDXDXDXDXDXDXDXDXDXDXDXDXDXDX:XDXDXDXDXDXDXDXDXDXDXDXDXDXDXDXDXDXDXDXDXDXDXDXDXDXDXDXDXDXDXDXDXDX",
"DXDXDXDXDXDXDXDXDXDXDXDXDXDXDXDXDXDXDXDXDXDXDXDXDXDXDXDXDXDXDXDXDXDXDXDXDXDXDXDXDXDXDXDXDXDXDXDXDXDXDXDXDXDXDXDXDXDXDXDXDXDXDXDXDX",
"DXDXDXDXDXDXDXDXDXDXDXDXDXDXDXDXDXDXDXDXDXDXDXDXDXDXDXDXDXDXDXDXDXDXDXDXDXDXDXDXDXDXDXDXDXDXDXDXDXDXDXDXDXDXDXDXDXDXDXDXDXDXDXDXDX",
"DXDXDXDXDXDXDXDXDXDXDXDXDXDXDXDXDXDXDXDXDXDXDXDXDXDXDXDXDXDXDXDXDXDXDXDXDXDXDXDXDXDXDXDXDXDXDXDXDXDXDXDXDXDXDXDXDXDXDXDXDXDXDXDXDX",
"DXDXDXDXDXDXDXDXDXDXDXDXDXDXDXDXDXDXDXDXDXDXDXDXDXDXDXDXDXDXDXDXDXDXDXDXDXDXDXDXDXDXDXDXDXDXDXDXDXDXDXDXDXDXDXDXDXDXDXDXDXDXDXDXDX",
"DXDXDXDXDXDXDXDXDXDXDXDXDXDXDXDXDXDXDXDXDXDXDXDXDXDXDXDXDXDXDXDXDXDXDXDXDXDXDXDXDXDXDXDXDXDXDXDXDXDXDXDXDXDXDXDXDXDXDXDXDXDXDXDXDX",
"DXDXDXDXDXDXDXDXDXDXDXDXDXDXDXDXDXDXDXDXDXDXDXDXDXDXDXDXDXDXDXDXDXDXDXDXDXDXDXDXDXDXDXDXDXDXDXDXDXDXDXDXDXDXDXDXDXDXDXDXDXDXDXDXDX",
"DXDXDXDXDXDXDXDXDXDXDXDXDXDXDXDXDXDXDXDXDXDXDXDXDXDXDXDXDXDXDXDXDXDXDXDXDXDXDXDXDXDXDXDXDXDXDXDXDXDXDXDXDXDXDXDXDXDXDXDXDXDXDXDXDX",
"DXDXDXDXDXDXDXDXDXDXDXDXDXDXDXDXDXDXDXDXDXDXDXDXDXDXDXDXDXDXDXDXDXDXDXDXDXDXDXDXDXDXDXDXDXDXDXDXDXDXDXDXDXDXDXDXDXDXDXDXDXDXDXDXDX",
"DXDXDXDXDXDXDXDXDXDXDXDXDXDXDXDXDXDXDXDXDXDXDXDXDXDXDXDXDXDXDXDXDXDXDXDXDXDXDXDXDXDXDXDXDXDXDXDXDXDXDXDXDXDXDXDXDXDXDXDXDXDXDXDXDX",
"DXDXDXDXDXDXDXDXDXDXDXDXDXDXDXDXDXDXDXDXDXDXDXDXDXDXDXDXDXDXDXDXDXDXDXDXDXDXDXDXDXDXDXDXDXDXDXDXDXDXDXDXDXDXDXDXDXDXDXDXDXDXDXDXDX"
};
