/* XPM */
static char *result[] = {
/* columns rows colors chars-per-pixel */
"65 65 210 2 ",
"   c #0C9B69",
".  c #009461",
"X  c #149E6D",
"o  c #149870",
"O  c #35936F",
"+  c #259C76",
"@  c #2B9D7A",
"#  c #319E7A",
"$  c #359974",
"%  c #0DA06C",
"&  c #01A471",
"*  c #0CA572",
"=  c #02AC75",
"-  c #08A578",
";  c #03AD7A",
":  c #1CA57C",
">  c #15A676",
",  c #00B177",
"<  c #03B37B",
"1  c #00B87F",
"2  c #0AB17B",
"3  c #11B27C",
"4  c #29A37A",
"5  c #0EAB80",
"6  c #1EAF84",
"7  c #03BA80",
"8  c #0CBA82",
"9  c #14BB88",
"0  c #39AA86",
"q  c #2EB385",
"w  c #39B888",
"e  c #3CB692",
"r  c #32BC93",
"t  c #479B83",
"y  c #57A186",
"u  c #54AE92",
"i  c #55BC9C",
"p  c #5AB797",
"a  c #00CB8A",
"s  c #0EC38C",
"d  c #18C887",
"f  c #16C08F",
"g  c #00D18A",
"h  c #0ACC92",
"j  c #01CD9A",
"k  c #0BCC9A",
"l  c #0FC690",
"z  c #12CB94",
"x  c #14CB9B",
"c  c #1BCD9B",
"v  c #02D495",
"b  c #01DB94",
"n  c #03D59B",
"m  c #0AD49D",
"M  c #02DA9D",
"N  c #0BDA9C",
"B  c #10D59E",
"V  c #13DB93",
"C  c #29C68C",
"Z  c #2CC59A",
"A  c #36CF97",
"S  c #35C89A",
"D  c #09CEA1",
"F  c #1FCFA0",
"G  c #0DD6A4",
"H  c #0ADCA4",
"J  c #03D7A4",
"K  c #13D5A3",
"L  c #13DBA3",
"P  c #1ADBA6",
"I  c #1AD4A9",
"U  c #1BDCAF",
"Y  c #18D6A7",
"T  c #1BDDB2",
"R  c #26CBA4",
"E  c #3CCCA9",
"W  c #3BC4A3",
"Q  c #22D6A9",
"!  c #2AD8A7",
"~  c #34D4A1",
"^  c #3FD4AD",
"/  c #38D6A9",
"(  c #03E3A3",
")  c #0CE4A3",
"_  c #0EE2A9",
"`  c #1DE2A5",
"'  c #17E4A7",
"]  c #0CE6B2",
"[  c #18EDB7",
"{  c #13E8B3",
"}  c #21E2AC",
"|  c #2EE4B4",
" . c #2AE3BB",
".. c #2EEABE",
"X. c #32ECBB",
"o. c #38E5BA",
"O. c #26F9BC",
"+. c #31F3BF",
"@. c #4BC096",
"#. c #52C5A4",
"$. c #43D4AE",
"%. c #4ED3A6",
"&. c #55CCB0",
"*. c #41DDB5",
"=. c #5ED9BC",
"-. c #61C4A7",
";. c #72C0AA",
":. c #65D8AD",
">. c #79CAB5",
",. c #67D7BE",
"<. c #64D8B8",
"1. c #40E3A4",
"2. c #46E5BE",
"3. c #47E6BD",
"4. c #3CEDC0",
"5. c #37EEC0",
"6. c #2BF4C3",
"7. c #2EFCC7",
"8. c #39FCCA",
"9. c #38FFD1",
"0. c #5FDEC1",
"q. c #67DAC4",
"w. c #44ECC2",
"e. c #4DE9C5",
"r. c #51EBC4",
"t. c #57EFCA",
"y. c #5CE4CA",
"u. c #44F2C6",
"i. c #4BF7C7",
"p. c #48F8C7",
"a. c #4BF5CA",
"s. c #49FBCE",
"d. c #46F6C8",
"f. c #54F2CA",
"g. c #5DF5CE",
"h. c #59F6CB",
"j. c #47FFD5",
"k. c #4DFCD3",
"l. c #4DFFDE",
"z. c #54F5D3",
"x. c #55FED6",
"c. c #5DFFDA",
"v. c #63ECCE",
"b. c #6AE6CB",
"n. c #74E7C5",
"m. c #62F3CA",
"M. c #6AF4C0",
"N. c #78F0CC",
"B. c #74E4D6",
"V. c #64F6D3",
"C. c #6CF9D4",
"Z. c #67FFD4",
"A. c #74FEDB",
"S. c #7BFCDC",
"D. c #76F7D6",
"F. c #66FFE6",
"G. c #79FFE1",
"H. c #88BFAC",
"J. c #85CAB5",
"K. c #94CFBB",
"L. c #8ADCC6",
"P. c #9DE7CE",
"I. c #8EEDD7",
"U. c #9AEDDE",
"Y. c #8FF3D7",
"T. c #84F6DA",
"R. c #84FCDE",
"E. c #8CFCDE",
"W. c #88F4DC",
"Q. c #93F4DC",
"!. c #9DF5DD",
"~. c #93FCDE",
"^. c #9BFADE",
"/. c #AAECDB",
"(. c #A6EFDC",
"). c #B6EADE",
"_. c #A4F5DE",
"`. c #84FCE2",
"'. c #8EFFE4",
"]. c #8EFFEA",
"[. c #86FFE9",
"{. c #9BF5E3",
"}. c #94FEE2",
"|. c #9DFDE2",
" X c #94FFE9",
".X c #9BFFEB",
"XX c #86FFF2",
"oX c #A3F7E1",
"OX c #ADF3E1",
"+X c #A3FBE4",
"@X c #AAFBE4",
"#X c #A4FEEB",
"$X c #AAFDEC",
"%X c #ABF5E8",
"&X c #B5FBE6",
"*X c #B4FDEB",
"=X c #BCFBEA",
"-X c #A6FFF4",
";X c #B6FEF0",
":X c #C2EBDD",
">X c #C5FBEE",
",X c #CBF9EE",
"<X c #C0F5E3",
"1X c #D4F5EF",
"2X c #C9FDF3",
"3X c #D9FBF5",
"4X c #D1FAF2",
"5X c #E3E6EB",
"6X c #E7F9F8",
"7X c None",
/* pixels */
"7X7X7X7X7X7X7X7X7X7X7X7X7X7X7X7X7X7X7X7X7X7X7X7X7X7X7X7X7X7X7X7X7X7X7X7X7X7X7X7X7X7X7X7X7X7X7X7X7X7X7X7X7X7X7X7X7X7X7X7X7X7X7X7X7X",
"7X7X7X7X7X7X7X7X7X7X7X7X7X7X7X7X7X7X7X7X7X7X7X7X7X7X7X7X7X7X7X7X7X7X7X7X7X7X7X7X7X7X7X7X7X7X7X7X7X7X7X7X7X7X7X7X7X7X7X7X7X7X7X7X7X",
"7X7X7X7X7X7X7X7X7X7X7X7X7X7X7X7X7X7X7X7X7X7X7X7X7X7X7X7X7X7X7X7X7X7X7X7X7X7X7X7X7X7X7X7X7X7X7X7X7X7X7X7X7X7X7X7X7X7X7X7X7X7X7X7X7X",
"7X7X7X7X7X7X7X7X7X7X7X7X7X7X7X7X7X7X7X7X7X7X7X7X7X7X7X7X7X7X7X7X7X7X7X7X7X7X7X7X7X7X7X7X7X7X7X7X7X7X7X7X7X7X7X7X7X7X7X7X7X7X7X7X7X",
"7X7X7X7X7X7X7X7X7X7X7X7X7X7X7X7X7X7X7X7X7X7X7X7X7X7X7X7X7X7X7X7X7X7X7X7X7X7X7X7X7X7X7X7X7X7X7X7X7X7X7X7X7X7X7X7X7X7X7X7X7X7X7X7X7X",
"7X7X7X7X7X7X7X7X7X7X7X7X7X7X7X7X7X7X7X7X7X7X7X7X7X7X7X7X7X7X7X7X7X7X7X7X7X7X7X7X7X7X7X7X7X7X7X7X7X7X7X7X7X7X7X7X7X7X7X7X7X7X7X7X7X",
"7X7X7X7X7X7X7X7X7X7X7X7X7X7X7X7X7X7X7X7X7X7X7X7X7X7X7X7X7X7X7X7X7X7X7X7X7X7X7X7X7X7X7X7X7X7X7X7X7X7X7X7X7X7X7X7X7X7X7X7X7X7X7X7X7X",
"7X7X7X7X7X7X7X7X7X7X7X7X7X7X7X7X7X7X7X7X7X7X7X7X7X7X7X7X7X7X7X7X7X7X7X7X7X7X7X7X7X7X7X7X7X7X7X7X7X7X7X7X7X7X7X7X7X7X7X7X7X7X7X7X7X",
"7X7X7X7X7X7X7X7X7X7X7X7X7X7X7X7X7X7X7X7X7X7X7X7X7X7X7X7X7X7X7X7X7X7X7X7X7X7X7X7X7X7X7X7X7X7X7X7X7X7X7X7X7X7X7X7X7X7X7X7X7X7X7X7X7X",
"7X7X7X7X7X7X7X7X7X7X7X7X7X7X7X7X7X7X7X7X7X7X7X7X7X7X7X7X7X7X7X7X7X7X7X7X7X7X7X7X7X7X7X7X7X7X7X7X7X7X7X7X7X7X7X7X7X7X7X7X7X7X7X7X7X",
"7X7X7X7X7X7X7X7X7X7X7X7X7X7X7X7X7X7X7X7X7X7X7X7X7X7X7X7X7X7X7X7X7X7X7X7X7X7X7X7X7X7X7X7X7X7X7X7X7X7X7X7X7X7X7X7X7X7X7X7X7X7X7X7X7X",
"7X7X7X7X7X7X7X7X7X7X7X7X7X7X7X7X7X7X7X7X7X7X7X7X7X7X7X7X7X7X7X7X7X7X7X7X7X7X7X7X7X7X7X7X7X7X7X7X7X7X7X7X7X7X7X7X7X7X7X7X7X7X7X7X7X",
"7X7X7X7X7X7X7X7X7X7X7X7X7X7X7X7X7X7X7X7X7X7X7X7X7X7X7X7X7X7X7X7X7X7X7X7X7X7X7X7X7X7X7X7X7X7X7X7X7X7X7X7X7X7X7X7X7X7X7X7X7X7X7X7X7X",
"7X7X7X7X7X7X7X7X7X7X7X7X7X7X7X7X7X7X7X7X7X7X7X7X7X7X7X7X7X7X7X7X7X7X7X7X7X7X7X7X7X7X7X7X7X7X7X7X7X7X7X7X7X7X7X7X7X7X7X7X7X7X7X7X7X",
"7X7X7X7X7X7X7X7X7X7X7X7X7X7X7X7X7X7X7X7X7X7X7X7X7X&.E ^ 0.,.W / e :.I.+XOX).7X7X7X7X7X7X7X7X7X7X7X7X7X7X7X7X7X7X7X7X7X7X7X7X7X7X7X",
"7X7X7X7X7X7X7X7X7X7X7X7X7X7X7X7X7X7X7X7X7X7X7X7XXXQ j H 4.w.k J 7 | Z.'.!./.7X7X7X7X7X7X7X7X7X7X7X7X7X7X7X7X7X7X7X7X7X7X7X7X7X7X7X",
"7X7X7X7X7X7X7X7X7X7X7X7X7X7X7X7X7X7X7X7X7X7X7X7XB.R G x D..XZ G P 5 b.#X}.Y.7X7X7X7X7X7X7X7X7X7X7X7X7X7X7X7X7X7X7X7X7X7X7X7X7X7X7X",
"7X7X7X7X7X7X7X7X7X7X7X7X7X7X7X7X7X7X7X7X7X7X7X7Xb.I ] F U.%XE M P 9 q.$X#X}.;X7X7X7X7X7X7X7X7X7X7X7X7X7X7X7X7X7X7X7X7X7X7X7X7X7X7X",
"7X7X7X7X7X7X7X7X7X7X7X7X7X7X7X7X7X7X7X7X7X7X7X7Xy.{ ( / 7X7X0.M ) f #.!.+X!.@X7X7X7X7X7X7X7X7X7X7X7X7X7X7X7X7X7X7X7X7X7X7X7X7X7X7X",
"7X7X7X7X7X7X7X7X7X7X7X7X7X7X7X7X7X7X7X7X7X7X7XD.z.[ ( 7X7X7XW.n g , 4 L.@X+X#XoX7X7X7X7X7X7X7X7X7X7X7X7X7X7X7X7X7X7X7X7X7X7X7X7X7X",
"7X7X7X7X7X7X7X7X7X7X7X7X7X7X7X7X7X7X7X7X7X7X7Xv.l.{ n 7X7X7X#Xm b 8 @ >.@X}.+XoX7X7X7X7X7X7X7X7X7X7X7X7X7X7X7X7X7X7X7X7X7X7X7X7X7X",
"7X7X7X7X7X7X7X7X7X7X7X7X7X7X7X7X7X7X7X7X7X7X{.y.j.G c 7X7X7X;XR V C 0 p ~.E.}._.OX7X7X7X7X7X7X7X7X7X7X7X7X7X7X7X7X7X7X7X7X7X7X7X7X",
"7X7X7X7X7X7X7X7X7X7X7X7X7X7X7X7X7X7X7X7X7X7XV.q.j.F $.7X7X5X2Xq.d A @.4 N. X#X$X@X7X7X7X7X7X7X7X7X7X7X7X7X7X7X7X7X7X7X7X7X7X7X7X7X",
"7X7X7X7X7X7X7X7X7X7X7X7X7X7X7X7X7X7X7X7X7X7X8.q.l.! 7X7X7X7X7X7X1.M.n.@ b.]..XU.+X7X7X7X7X7X7X7X7X7X7X7X7X7X7X7X7X7X7X7X7X7X7X7X7X",
"7X7X7X7X7X7X7X7X7X7X7X7X7X7X7X7X7X7X7X7X7X Xd.n.x.W 7X7X7X7X7X7XC 4 w   %.^._.~._.7X7X7X7X7X7X7X7X7X7X7X7X7X7X7X7X7X7X7X7X7X7X7X7X",
"7X7X7X7X7X7X7X7X7X7X7X7X7X7X7X7X7X7X7X7X7XS.6.3.F.7X7X7X7X7X7X7X@.C q % C Q.$X#X^.(.7X7X7X7X7X7X7X7X7X7X7X7X7X7X7X7X7X7X7X7X7X7X7X",
"7X7X7X7X7X7X7X7X7X7X7X7X7X7X7X7X7X7X7X7X7Xv.9.c.x.7X7X7X7X7X7X7XA : 6 , - n.#XQ.}.!.7X7X7X7X7X7X7X7X7X7X7X7X7X7X7X7X7X7X7X7X7X7X7X",
"7X7X7X7X7X7X7X7X7X7X7X7X7X7X7X7X7X7X7X7X7Xe l ~ ^ S 7X7X7X7X7X7X3.$.2.| R W.-X{.}.!.>X7X7X7X7X7X7X7X7X7X7X7X7X7X7X7X7X7X7X7X7X7X7X",
"7X7X7X7X7X7X7X7X7X7X7X7X7X7X7X7X7X7X7X7X7Xt : i >.r P v B Q I ` o.e.e.4.w.`.Q.{.}.!.>X7X7X7X7X7X7X7X7X7X7X7X7X7X7X7X7X7X7X7X7X7X7X",
"7X7X7X7X7X7X7X7X7X7X7X7X7X7X7X7X7X7X7X7X7XH.i P.1X,.O.( H x k J  .z.e.o.c. X{.-X}._.>X7X7X7X7X7X7X7X7X7X7X7X7X7X7X7X7X7X7X7X7X7X7X",
"7X7X7X7X7X7X7X7X7X7X7X7X7X7X7X7X7X7X7X7X7X7X$ y ;.: N b _ K Y { 6.k.e.w.A. X#X.X+X_.,X7X7X7X7X7X7X7X7X7X7X7X7X7X7X7X7X7X7X7X7X7X7X",
"7X7X7X7X7X7X7X7X7X7X7X7X7X7X7X7X7X7X7X7X7X7X$ O ~ , N ( _ j J ] 7.s.t.e.S.Q.|.E.+X/.1X7X7X7X7X7X7X7X7X7X7X7X7X7X7X7X7X7X7X7X7X7X7X",
"7X7X7X7X7X7X7X7X7X7X7X7X7X7X7X7X7X7X7X7X7X7X7X, ~ . z P G j D T 4.k.a.v. X#XI.E.@X>X6X7X7X7X7X7X7X7X7X7X7X7X7X7X7X7X7X7X7X7X7X7X7X",
"7X7X7X7X7X7X7X7X7X7X7X7X7X7X7X7X7X7X7X7X7X7X7X* ~ & l P G G U  .w.s.a.C..X+XQ.'.%X,X7X7X7X7X7X7X7X7X7X7X7X7X7X7X7X7X7X7X7X7X7X7X7X",
"7X7X7X7X7X7X7X7X7X7X7X7X7X7X7X7X7X7X7X7X7X7X7X4 C ; 1 B G G T  .k.d.z.G..X|.{. X&X4X7X7X7X7X7X7X7X7X7X7X7X7X7X7X7X7X7X7X7X7X7X7X7X",
"7X7X7X7X7X7X7X7X7X7X7X7X7X7X7X7X7X7X7X7X7X7X7Xp > 2 = m n n Y  .k.w.z.[. X!.|..X>X3X7X7X7X7X7X7X7X7X7X7X7X7X7X7X7X7X7X7X7X7X7X7X7X",
"7X7X7X7X7X7X7X7X7X7X7X7X7X7X7X7X7X7X7X7X7X7X7XK.% 3 1 ' N n Y ..s.3.V. X XQ.|.@X2X7X7X7X7X7X7X7X7X7X7X7X7X7X7X7X7X7X7X7X7X7X7X7X7X",
"7X7X7X7X7X7X7X7X7X7X7X7X7X7X7X7X7X7X7X7X7X7X7X:X: * 7 V M v D ..s.3.D. X}.Q.+X*X3X7X7X7X7X7X7X7X7X7X7X7X7X7X7X7X7X7X7X7X7X7X7X7X7X",
"7X7X7X7X7X7X7X7X7X7X7X7X7X7X7X7X7X7X7X7X7X7X7X7Xu   < a M M M 6.i.m.T.|.|.|.@X=X6X7X7X7X7X7X7X7X7X7X7X7X7X7X7X7X7X7X7X7X7X7X7X7X7X",
"7X7X7X7X7X7X7X7X7X7X7X7X7X7X7X7X7X7X7X7X7X7X7X7X:.X 8 a ( ( _ 8.i.C.'.+X+X$X*X>X7X7X7X7X7X7X7X7X7X7X7X7X7X7X7X7X7X7X7X7X7X7X7X7X7X",
"7X7X7X7X7X7X7X7X7X7X7X7X7X7X7X7X7X7X7X7X7X7X7X7X<X# & v _ n ' 6.h.T.%X$X'.'.&X6X7X7X7X7X7X7X7X7X7X7X7X7X7X7X7X7X7X7X7X7X7X7X7X7X7X",
"7X7X7X7X7X7X7X7X7X7X7X7X7X7X7X7X7X7X7X7X7X7X7X7X7Xu & h ' B } +.m.T.$X$X}.}.=X7X7X7X7X7X7X7X7X7X7X7X7X7X7X7X7X7X7X7X7X7X7X7X7X7X7X",
"7X7X7X7X7X7X7X7X7X7X7X7X7X7X7X7X7X7X7X7X7X7X7X7X7XJ.o s } P | 4.C.W.+X+X~.|.>X7X7X7X7X7X7X7X7X7X7X7X7X7X7X7X7X7X7X7X7X7X7X7X7X7X7X",
"7X7X7X7X7X7X7X7X7X7X7X7X7X7X7X7X7X7X7X7X7X7X7X7X7X7X+ 8 ` P | w.S.E.oXoX^.@X7X7X7X7X7X7X7X7X7X7X7X7X7X7X7X7X7X7X7X7X7X7X7X7X7X7X7X",
"7X7X7X7X7X7X7X7X7X7X7X7X7X7X7X7X7X7X7X7X7X7X7X7X7X7X0 < N H X.w.R.}.^._._.&X7X7X7X7X7X7X7X7X7X7X7X7X7X7X7X7X7X7X7X7X7X7X7X7X7X7X7X",
"7X7X7X7X7X7X7X7X7X7X7X7X7X7X7X7X7X7X7X7X7X7X7X7X7X7X-.- v N X.f.E.}.+X_.@X7X7X7X7X7X7X7X7X7X7X7X7X7X7X7X7X7X7X7X7X7X7X7X7X7X7X7X7X",
"7X7X7X7X7X7X7X7X7X7X7X7X7X7X7X7X7X7X7X7X7X7X7X7X7X7X7X> h H u.C.~.}.+X@X&X7X7X7X7X7X7X7X7X7X7X7X7X7X7X7X7X7X7X7X7X7X7X7X7X7X7X7X7X",
"7X7X7X7X7X7X7X7X7X7X7X7X7X7X7X7X7X7X7X7X7X7X7X7X7X7X7X7Xz N f.`.~.}.|.@X=X7X7X7X7X7X7X7X7X7X7X7X7X7X7X7X7X7X7X7X7X7X7X7X7X7X7X7X7X",
"7X7X7X7X7X7X7X7X7X7X7X7X7X7X7X7X7X7X7X7X7X7X7X7X7X7X7X7X, ' h._.~.~.~.@X7X7X7X7X7X7X7X7X7X7X7X7X7X7X7X7X7X7X7X7X7X7X7X7X7X7X7X7X7X",
"7X7X7X7X7X7X7X7X7X7X7X7X7X7X7X7X7X7X7X7X7X7X7X7X7X7X7X7X7X` M.|.|.~.^.7X7X7X7X7X7X7X7X7X7X7X7X7X7X7X7X7X7X7X7X7X7X7X7X7X7X7X7X7X7X",
"7X7X7X7X7X7X7X7X7X7X7X7X7X7X7X7X7X7X7X7X7X7X7X7X7X7X7X7X7X| Z.}.|.|.+X7X7X7X7X7X7X7X7X7X7X7X7X7X7X7X7X7X7X7X7X7X7X7X7X7X7X7X7X7X7X",
"7X7X7X7X7X7X7X7X7X7X7X7X7X7X7X7X7X7X7X7X7X7X7X7X7X7X7X7X7X7XD.}.|.|.+X7X7X7X7X7X7X7X7X7X7X7X7X7X7X7X7X7X7X7X7X7X7X7X7X7X7X7X7X7X7X",
"7X7X7X7X7X7X7X7X7X7X7X7X7X7X7X7X7X7X7X7X7X7X7X7X7X7X7X7X7X7X7X7X7X7X7X7X7X7X7X7X7X7X7X7X7X7X7X7X7X7X7X7X7X7X7X7X7X7X7X7X7X7X7X7X7X",
"7X7X7X7X7X7X7X7X7X7X7X7X7X7X7X7X7X7X7X7X7X7X7X7X7X7X7X7X7X7X7X7X7X7X7X7X7X7X7X7X7X7X7X7X7X7X7X7X7X7X7X7X7X7X7X7X7X7X7X7X7X7X7X7X7X",
"7X7X7X7X7X7X7X7X7X7X7X7X7X7X7X7X7X7X7X7X7X7X7X7X7X7X7X7X7X7X7X7X7X7X7X7X7X7X7X7X7X7X7X7X7X7X7X7X7X7X7X7X7X7X7X7X7X7X7X7X7X7X7X7X7X",
"7X7X7X7X7X7X7X7X7X7X7X7X7X7X7X7X7X7X7X7X7X7X7X7X7X7X7X7X7X7X7X7X7X7X7X7X7X7X7X7X7X7X7X7X7X7X7X7X7X7X7X7X7X7X7X7X7X7X7X7X7X7X7X7X7X",
"7X7X7X7X7X7X7X7X7X7X7X7X7X7X7X7X7X7X7X7X7X7X7X7X7X7X7X7X7X7X7X7X7X7X7X7X7X7X7X7X7X7X7X7X7X7X7X7X7X7X7X7X7X7X7X7X7X7X7X7X7X7X7X7X7X",
"7X7X7X7X7X7X7X7X7X7X7X7X7X7X7X7X7X7X7X7X7X7X7X7X7X7X7X7X7X7X7X7X7X7X7X7X7X7X7X7X7X7X7X7X7X7X7X7X7X7X7X7X7X7X7X7X7X7X7X7X7X7X7X7X7X",
"7X7X7X7X7X7X7X7X7X7X7X7X7X7X7X7X7X7X7X7X7X7X7X7X7X7X7X7X7X7X7X7X7X7X7X7X7X7X7X7X7X7X7X7X7X7X7X7X7X7X7X7X7X7X7X7X7X7X7X7X7X7X7X7X7X",
"7X7X7X7X7X7X7X7X7X7X7X7X7X7X7X7X7X7X7X7X7X7X7X7X7X7X7X7X7X7X7X7X7X7X7X7X7X7X7X7X7X7X7X7X7X7X7X7X7X7X7X7X7X7X7X7X7X7X7X7X7X7X7X7X7X",
"7X7X7X7X7X7X7X7X7X7X7X7X7X7X7X7X7X7X7X7X7X7X7X7X7X7X7X7X7X7X7X7X7X7X7X7X7X7X7X7X7X7X7X7X7X7X7X7X7X7X7X7X7X7X7X7X7X7X7X7X7X7X7X7X7X",
"7X7X7X7X7X7X7X7X7X7X7X7X7X7X7X7X7X7X7X7X7X7X7X7X7X7X7X7X7X7X7X7X7X7X7X7X7X7X7X7X7X7X7X7X7X7X7X7X7X7X7X7X7X7X7X7X7X7X7X7X7X7X7X7X7X",
"7X7X7X7X7X7X7X7X7X7X7X7X7X7X7X7X7X7X7X7X7X7X7X7X7X7X7X7X7X7X7X7X7X7X7X7X7X7X7X7X7X7X7X7X7X7X7X7X7X7X7X7X7X7X7X7X7X7X7X7X7X7X7X7X7X",
"7X7X7X7X7X7X7X7X7X7X7X7X7X7X7X7X7X7X7X7X7X7X7X7X7X7X7X7X7X7X7X7X7X7X7X7X7X7X7X7X7X7X7X7X7X7X7X7X7X7X7X7X7X7X7X7X7X7X7X7X7X7X7X7X7X",
"7X7X7X7X7X7X7X7X7X7X7X7X7X7X7X7X7X7X7X7X7X7X7X7X7X7X7X7X7X7X7X7X7X7X7X7X7X7X7X7X7X7X7X7X7X7X7X7X7X7X7X7X7X7X7X7X7X7X7X7X7X7X7X7X7X"
};
