/* XPM */
static char *result[] = {
/* columns rows colors chars-per-pixel */
"65 65 244 2 ",
"   c #00965D",
".  c #039464",
"X  c #019D65",
"o  c #029F6D",
"O  c #09976A",
"+  c #19966A",
"@  c #1A9F74",
"#  c #0F966B",
"$  c #269C77",
"%  c #359878",
"&  c #00A264",
"*  c #02A46B",
"=  c #01AC6E",
"-  c #0BA56D",
";  c #13A56D",
":  c #00B06E",
">  c #03A572",
",  c #0DA472",
"<  c #03AC73",
"1  c #0BAC74",
"2  c #0AAC7A",
"3  c #07A979",
"4  c #13A373",
"5  c #1AAA77",
"6  c #1BA578",
"7  c #13AD7A",
"8  c #17A977",
"9  c #02B273",
"0  c #0BB276",
"q  c #04B47B",
"w  c #01BC7B",
"e  c #09B579",
"r  c #17B17C",
"t  c #18B57B",
"y  c #2AAA7D",
"u  c #29A479",
"i  c #18AC81",
"p  c #04BD82",
"a  c #0AB784",
"s  c #13B482",
"d  c #1BB383",
"f  c #15BC88",
"g  c #26AE83",
"h  c #38A885",
"j  c #25B788",
"k  c #28BD94",
"l  c #36BB93",
"z  c #30B18A",
"x  c #559D85",
"c  c #48AD87",
"v  c #53A789",
"b  c #42B38E",
"n  c #58AD90",
"m  c #4ABC97",
"M  c #47B996",
"N  c #58B697",
"B  c #66B59B",
"V  c #69AF9A",
"C  c #68BEA3",
"Z  c #0AC284",
"A  c #0AC48B",
"S  c #04C68F",
"D  c #17C38D",
"F  c #02CD95",
"G  c #02CC99",
"H  c #0CCC9A",
"J  c #09C894",
"K  c #19C591",
"L  c #14CA9A",
"P  c #02D495",
"I  c #03D49C",
"U  c #09D59D",
"Y  c #02DA9E",
"T  c #08D699",
"R  c #13D39B",
"E  c #12D89B",
"W  c #29CC9E",
"Q  c #27C494",
"!  c #3BD29F",
"~  c #32CC9D",
"^  c #00E89F",
"/  c #1ACCA2",
"(  c #05D5A2",
")  c #0CD6A4",
"_  c #04DBA3",
"`  c #0BDAA5",
"'  c #0DDDAA",
"]  c #08DBA9",
"[  c #13D5A4",
"{  c #1BD4A4",
"}  c #13DAA5",
"|  c #14D5A9",
" . c #1CD2AC",
".. c #12DCAB",
"X. c #1CDAAA",
"o. c #1ADBA7",
"O. c #2ACDA0",
"+. c #29CFA6",
"@. c #21D5A3",
"#. c #27D8A8",
"$. c #39D8AA",
"%. c #23DDB2",
"&. c #3DDCB5",
"*. c #3DCFA8",
"=. c #02E2A4",
"-. c #0CE3AA",
";. c #08E6AA",
":. c #14E2AD",
">. c #19E7AD",
",. c #1DE3B3",
"<. c #16E4B0",
"1. c #06E9B1",
"2. c #27E2AB",
"3. c #24E4B5",
"4. c #25EABB",
"5. c #2BE8BA",
"6. c #33E3B4",
"7. c #3DEABB",
"8. c #35E8B9",
"9. c #35F4BD",
"0. c #29F5B8",
"q. c #4ACC9C",
"w. c #4FC6A9",
"e. c #52D6AB",
"r. c #4BDAB5",
"t. c #5DDCBD",
"y. c #5CD7B6",
"u. c #50CFAD",
"i. c #65C4A9",
"p. c #63DABE",
"a. c #6CD6B3",
"s. c #49E4BC",
"d. c #45E5B9",
"f. c #55E1BE",
"g. c #5AE0B9",
"h. c #72E2BD",
"j. c #63E7BF",
"k. c #3DEEC3",
"l. c #34EAC1",
"z. c #3BF3C5",
"x. c #3CF4CB",
"c. c #35FACB",
"v. c #3BFBCD",
"b. c #34F6C6",
"n. c #3DFAD0",
"m. c #2BF5C5",
"M. c #7BDAC6",
"N. c #78DDCB",
"B. c #66DAC3",
"V. c #45E6C3",
"C. c #4BE4C0",
"Z. c #43ECC4",
"A. c #4CEBC3",
"S. c #4CEDCA",
"D. c #44EEC9",
"F. c #53E5C2",
"G. c #52ECC3",
"H. c #54EECA",
"J. c #59E7C6",
"K. c #43F4CB",
"L. c #4BF4CC",
"P. c #42FACE",
"I. c #47F6CA",
"U. c #52F3CD",
"Y. c #5AF4CC",
"T. c #58F8CB",
"R. c #4BF5D1",
"E. c #44FCD2",
"W. c #4BFCD3",
"Q. c #47FDD8",
"!. c #54F5D2",
"~. c #53FBD4",
"^. c #59F7D5",
"/. c #52EFD0",
"(. c #6CEACD",
"). c #68E7CA",
"_. c #75E3C4",
"`. c #7CE1CC",
"'. c #75EACA",
"]. c #69F0CA",
"[. c #76F1CD",
"{. c #7CEED3",
"}. c #77ECD2",
"|. c #6EF3D4",
" X c #64F5D2",
".X c #73F4D4",
"XX c #7BF4D5",
"oX c #74F6DA",
"OX c #74FAD8",
"+X c #6FEDD5",
"@X c #79FFE4",
"#X c #85BBAB",
"$X c #9CCDB9",
"%X c #96D6BE",
"&X c #82C0AB",
"*X c #8CDBC9",
"=X c #96D5C3",
"-X c #A5DBC6",
";X c #B2DED3",
":X c #87E8CD",
">X c #9DE6CE",
",X c #96E8CC",
"<X c #87E9D6",
"1X c #97EBD6",
"2X c #83F1D5",
"3X c #8AF1D7",
"4X c #95F4DB",
"5X c #A6E8D7",
"6X c #B6EADA",
"7X c #ABEDD6",
"8X c #96FBE1",
"9X c #A6EBE1",
"0X c #BBEEE8",
"qX c #A5F6E4",
"wX c #AAF9E6",
"eX c #B9F5ED",
"rX c #B5FCEC",
"tX c #BAF6E8",
"yX c #B7FFF8",
"uX c #ACFFF6",
"iX c #C3E7DE",
"pX c #C5EAE6",
"aX c #D6EDE9",
"sX c #C3F5EC",
"dX c #C3FAEE",
"fX c #C9FAEB",
"gX c #D4F3EE",
"hX c #C4FCF1",
"jX c #CEFFFC",
"kX c #CBF8F3",
"lX c #DBF5F4",
"zX c #D5FEF5",
"xX c #DAFBF5",
"cX c #D4FFFC",
"vX c #DCFEFB",
"bX c #D5F7F6",
"nX c #D5EFF0",
"mX c #E4EDEF",
"MX c #E4F5F6",
"NX c #E3FCFB",
"BX c #EBFCFC",
"VX c #E5F6F7",
"CX c #F4F8FB",
"ZX c None",
/* pixels */
"ZXZXZXZXZXZXZXZXZXZXZXZXZXZXZXZXZXZXZXZXZXZXZXZXZXZXZXZXZXZXZXZXZXZXZXZXZXZXZXZXZXZXZXZXZXZXZXZXZXZXZXZXZXZXZXZXZXZXZXZXZXZXZXZXZX",
"ZXZXZXZXZXZXZXZXZXZXZXZXZXZXZXZXZXZXZXZXZXZXZXZXZXZXZXZXZXZXZXZXZXZXZXZXZXZXZXZXZXZXZXZXZXZXZXZXZXZXZXZXZXZXZXZXZXZXZXZXZXZXZXZXZX",
"ZXZXZXZXZXZXZXZXZXZXZXZXZXZXZXZXZXZXZXZXZXZXZXZXZXZXZXZXZXZXZXZXZXZXZXZXZXZXZXZXZXZXZXZXZXZXZXZXZXZXZXZXZXZXZXZXZXZXZXZXZXZXZXZXZX",
"ZXZXZXZXZXZXZXZXZXZXZXZXZXZXZXZXZXZXZXZXZXZXZXZXZXZXZXZXZXZXZXZXZXZXZXZXZXZXZXZXZXZXZXZXZXZXZXZXZXZXZXZXZXZXZXZXZXZXZXZXZXZXZXZXZX",
"ZXZXZXZXZXZXZXZXZXZXZXZXZXZXZXZXZXZXZXZXZXZXZXZXZXZXZXZXZXZXZXZXZXZXZXZXZXZXZXZXZXZXZXZXZXZXZXZXZXZXZXZXZXZXZXZXZXZXZXZXZXZXZXZXZX",
"ZXZXZXZXZXZXZXZXZXZXZXZXZXZXZXZXZXZXZXZXZXZXZXZXZXZXZXZXZXZXZXZXZXZXZXZXZXZXZXZXZXZXZXZXZXZXZXZXZXZXZXZXZXZXZXZXZXZXZXZXZXZXZXZXZX",
"ZXZXZXZXZXZXZXZXZXZXZXZXZXZXZXZXZXZXZXZXZXZXZXZXZXZXZXZXZXZXZXZXZXZXZXZXZXZXZXZXZXZXZXZXZXZXZXZXZXZXZXZXZXZXZXZXZXZXZXZXZXZXZXZXZX",
"ZXZXZXZXZXZXZXZXZXZXZXZXZXZXZXZXZXZXZXZXZXZXZXZXZXZXZXZXZXZXZXZXZXZXZXZXZXZXZXZXZXZXZXZXZXZXZXZXZXZXZXZXZXZXZXZXZXZXZXZXZXZXZXZXZX",
"ZXZXZXZXZXZXZXZXZXZXZXZXZXZXZXZXZXZXZXZXZXZXZXZXZXZXZXZXZXZXZXZXZXZXZXZXZXZXZXZXZXZXZXZXZXZXZXZXZXZXZXZXZXZXZXZXZXZXZXZXZXZXZXZXZX",
"ZXZXZXZXZXZXZXZXZXZXZXZXZXZXZXZXZXZXZXZXZXZXZXZXZXZXZXZXZXZXZXZXZXZXZXZXZXZXZXZXZXZXZXZXZXZXZXZXZXZXZXZXZXZXZXZXZXZXZXZXZXZXZXZXZX",
"ZXZXZXZXZXZXZXZXZXZXZXZXZXZXZXZXZXZXZXZXZXZXZXZXZXZXZXZXZXZXZXZXZXZXZXZXZXZXZXZXZXZXZXZXZXZXZXZXZXZXZXZXZXZXZXZXZXZXZXZXZXZXZXZXZX",
"ZXZXZXZXZXZXZXZXZXZXZXZXZXZXZXZXZXZXZXZXZXZXZXZXZXZXZXZXZXZXZXZXZXZXZXZXZXZXZXZXZXZXZXZXZXZXZXZXZXZXZXZXZXZXZXZXZXZXZXZXZXZXZXZXZX",
"ZXZXZXZXZXZXZXZXZXZXZXZXZXZXZXZXZXZXZXZXZXZXZXZXZXZXZXZXZXZXZXZXZXZXZXZXZXZXZXZXZXZXZXZXZXZXZXZXZXZXZXZXZXZXZXZXZXZXZXZXZXZXZXZXZX",
"ZXZXZXZXZXZXZXZXZXZXZXZXZXZXZXZXZXZXZXZXZXZXZXZXZXZXZXZXZXZXZXZXZXZXZXZXZXZXZXZXZXZXZXZXZXZXZXZXZXZXZXZXZXZXZXZXZXZXZXZXZXZXZXZXZX",
"ZXZXZXZXZXZXZXZXZXZXZXZXZXZXZXZXZXZXZXZXZXkX0X9XeXeXeXeXeXeXeXeXeXeXvXBXnXsXeXqXhXsXhXsXhXhXkXhXZXZXZXZXZXZXZXZXZXZXZXZXZXZXZXZXZX",
"ZXZXZXZXZXZXZXZXZXZXZXZXZXZXZXZXZXZXZXvXuX(.+.G X.@.X.X.X.@.X.X./ r.OX.Xu.k / ` W W O.W O.O.W W C $XZXZXZXZXZXZXZXZXZXZXZXZXZXZXZX",
"ZXZXZXZXZXZXZXZXZXZXZXZXZXZXZXZXZXZXNXeX(.#.[ [ / | _ I _ :._ Y +.`.kXsXB.[ Y ;.@._ ( G S ^ ^ T s m 5XZXZXZXZXZXZXZXZXZXZXZXZXZXZX",
"ZXZXZXZXZXZXZXZXZXZXZXZXZXZXZXZXZXMX0X4X(.&.[ G ( <.=.I T U I Y B.1XlXbX1Xs.#.H <.=.=.:.[ E E O.> 7 z *XZXZXZXZXZXZXZXZXZXZXZXZXZX",
"ZXZXZXZXZXZXZXZXZXZXZXZXZXZXZXZXBXeX4XXX|.C...Y =.:.} [ [ J R 6.9XpXZXZXzXqXg.Q =._ ] 3.@.H R W s > a 6 wXZXZXZXZXZXZXZXZXZXZXZXZX",
"ZXZXZXZXZXZXZXZXZXZXZXZXZXZXZXmXkXqXoX X XA.,.1.;.` [ } -.H q.2XNXZXZXZXZXvX1Xe.L ( .. ./ ' =.F 8 , K , % ZXZXZXZXZXZXZXZXZXZXZXZX",
"ZXZXZXZXZXZXZXZXZXZXZXZXZXZXnXpX9X<XY.L.H.S.3.=.} [ U I :.2.`.gXBXZXZXZXZXBXdX:X+.| |  .| 1.1.I q . e.# ; + -XZXZXZXZXZXZXZXZXZXZX",
"ZXZXZXZXZXZXZXZXZXZXZXZXZXNXdXqX<X(.s.7.S.L.5.( L o.U P 2..XsXCXVXZXZXZXMXBXzXwXH.%.( ] ] _ T K w s e.5 : : u -XZXZXZXZXZXZXZXZXZX",
"ZXZXZXZXZXZXZXZXZXZXZXZXgXjXqX2X{.(.J.V.K.R.l. .F ` T @.].tXxXCXlXxXvXzXxXNXxXkXqXF./ H I I J i 9 d '.# 0 :   5 >XZXZXZXZXZXZXZXZX",
"ZXZXZXZXZXZXZXZXZXZXZXmXiXqX{.f.}.@X|./.P.n.x.&.Y P J r.wXxXlXNXMXxXlXlXxXlXMXBXCX9Xu./ P =.T < @ u 4Xq.+ u - t % ,XZXZXZXZXZXZXZX",
"ZXZXZXZXZXZXZXZXZXZXBXyXN.oX+X(.).@XuX*X.Xs.G.>.I L y.0XNXaXaXzXzXzXzXzXzXxXxXxXCXmXtXj.R 2.[.=X%X-XBX$X,Xa.q.j : ; >XZXZXZXZXZXZX",
"ZXZXZXZXZXZXZXZXZXZXeXM.t.oX|.(.S.s.2XyX XU.7.;.-.6.XXyXvXzXfXjXzXzXzXzXxXxXxXxXzXzXdXXX! T D 1 u c wXv c y 0 8 & 5 % 5XZXZXZXZXZX",
"ZXZXZXZXZXZXZXZXZXrX.Xr.T.@X Xs.&.S.8XqX.Xs.d.9.u.'.tXxXBXCXBXxXMXvXxXvXxXbXxXxX0XaXVXkX3Xs.D * 0 t ].; ; t X & 5 . + $ ,XgXZXZXZX",
"ZXZXZXZXZXZXZXZX6Xh.8.0.9. XA.Z.d.U.<X<X.XG.s.9.:XwXjXbXlXNXvXkXvXcXvXcXcXcXjXcXjXvXBXMXrX_.l X : a j.1 & & < 9 g - q 2 O 1XZXZXZX",
"ZXZXZXZXZXZXZXZX#Xh p >.J Q k +.K D i.yXl f d R r.f.t.p.g.).).J.B.p.p.p.t.t.t.t.C.f.t.).].G.&.#.O.d.Y.$.#.2.9.9.$.W 2.#.*.i.NXZXZX",
"ZXZXZXZXZXZXZXZXsXN 4 s > , O 6 h m %XaXV % % l R R J F F P I I U T I I T I I I P I _ U I X.5.k.U.Y.C.V.W.v.W.9.d.~.7.H.'.rXZXZXZX",
"ZXZXZXZXZXZXZXZXZX%Xv + g ~ y.[.7XtXBXCXzXtX>Xh.s.d.5.>.` _ I I _ _ _ _ _ _ Y Y H I _ I H &.R.S.R.!./.~.v.b.z.W.v.d.OXa.6XZXZXZXZX",
"ZXZXZXZXZXZXZXZXZXZXfXv m u $ h h h &X6Xn h h t 5 Q #.` Y -.:.<.} } } } | { { { 3...>.X.%.W.^.l.n.l.l.R.E.P.Z.T.z.s.`.cXZXZXZXZXZX",
"ZXZXZXZXZXZXZXZXZXZXZX6Xn u j > g y C 7X8 & - & * Z E >.G ( U F _ _ ( _ ( _ ( _ I ] _ ] <.v.W.R.Q.W.W.~.L.k.x.E.'.4XhXZXZXZXZXZXZX",
"ZXZXZXZXZXZXZXZXZXZXZXZXtXB $ y d y V 1X- 0 1 9 : Z E >._ -.' U ( ( _ ) ] ( ( ) _ _ _ ] 4.v.W.L.L.~.W.I.L.~.!.G.4XwXZXZXZXZXZXZXZX",
"ZXZXZXZXZXZXZXZXZXZXZXZXZX6XV % 2 7 h a.  * 7 t 0 e A :.' :.' } ` ) ) ) ) ) ) ` :.I ] | b.x.W.L.S.L.P.z.Z.Y..X<XdXZXZXZXZXZXZXZXZX",
"ZXZXZXZXZXZXZXZXZXZXZXZXZXZXZXx > o 6 e.* * - 5 = = q H ` ] U _ ) ) ) ) ) ) ) ) ..U [ 3.v.P.L.L.S.K.c.b.Z.J.<XeXZXZXZXZXZXZXZXZXZX",
"ZXZXZXZXZXZXZXZXZXZXZXZXZXZXZXZXM $ 6 ! f = 1 ; - * 9 S [ ) _ ` [ ) [ ) [ ) [ ) X.| ..l.I.W.I.R.R.x.b.x.S.'.ZXZXZXZXZXZXZXZXZXZXZX",
"ZXZXZXZXZXZXZXZXZXZXZXZXZXZXZXZXwXV $ r r * e - 0 0 q a [ | ] ' ` ) ] [ ] ) ` ` ` X.%.K.K.W.I.R.Q.E.D.F.{.ZXZXZXZXZXZXZXZXZXZXZXZX",
"ZXZXZXZXZXZXZXZXZXZXZXZXZXZXZXZXZXZXN 1 . & w 1 3 e a a L [ ' =.] ] ` _ _ ] ] ) ( 3.l.I.P.W.E.P.E.R.).<XZXZXZXZXZXZXZXZXZXZXZXZXZX",
"ZXZXZXZXZXZXZXZXZXZXZXZXZXZXZXZXZXZX,X! ; & w = - 2 a > J F I I _ _ ] ( ] ] ] _ I ,.v.z.P.K.Q.n.x.F.<XZXZXZXZXZXZXZXZXZXZXZXZXZXZX",
"ZXZXZXZXZXZXZXZXZXZXZXZXZXZXZXZXZXZXZXZXM 7 s > = - - 9 Z T ` -.U P G ` <.| ( ( ] l.n.n.K.x.x.x._.4XZXZXZXZXZXZXZXZXZXZXZXZXZXZXZX",
"ZXZXZXZXZXZXZXZXZXZXZXZXZXZXZXZXZXZXZXZXZXb . < q = * * w S E :.U I I ..' ] ( ) %.x.Q.x.K.!.!.V.1XZXZXZXZXZXZXZXZXZXZXZXZXZXZXZXZX",
"ZXZXZXZXZXZXZXZXZXZXZXZXZXZXZXZXZXZXZXZXZX;Xb o = 9 = * 0 A R E Y Y ;.:.] G ( ' V.~.Q.x.k.^.+X`.ZXZXZXZXZXZXZXZXZXZXZXZXZXZXZXZXZX",
"ZXZXZXZXZXZXZXZXZXZXZXZXZXZXZXZXZXZXZXZXZXZXZXm X < 0 1 0 f J F _ =.` ' ( ( ] <./.Q.n.c.k.F.<XZXZXZXZXZXZXZXZXZXZXZXZXZXZXZXZXZXZX",
"ZXZXZXZXZXZXZXZXZXZXZXZXZXZXZXZXZXZXZXZXZXZXZXZXl 6 X - r s Z P ;.=._ ` ` ] ' ,.R.n.x.b.V._.ZXZXZXZXZXZXZXZXZXZXZXZXZXZXZXZXZXZXZX",
"ZXZXZXZXZXZXZXZXZXZXZXZXZXZXZXZXZXZXZXZXZXZXZXZXZXN O X 1 3 p E -.Y Y ` ` | ,.l.n.x.x.J.}.ZXZXZXZXZXZXZXZXZXZXZXZXZXZXZXZXZXZXZXZX",
"ZXZXZXZXZXZXZXZXZXZXZXZXZXZXZXZXZXZXZXZXZXZXZXZXZX6Xq.5 - = p P Y _ _ _ [ | 3.n.n.x.J.<XZXZXZXZXZXZXZXZXZXZXZXZXZXZXZXZXZXZXZXZXZX",
"ZXZXZXZXZXZXZXZXZXZXZXZXZXZXZXZXZXZXZXZXZXZXZXZXZXZXqXQ X 1 Z w T U } } ) [ 5.~.c.k.}.ZXZXZXZXZXZXZXZXZXZXZXZXZXZXZXZXZXZXZXZXZXZX",
"ZXZXZXZXZXZXZXZXZXZXZXZXZXZXZXZXZXZXZXZXZXZXZXZXZXZXZXpXn y * q p [ H | G ( m.Q.h.7XZXZXZXZXZXZXZXZXZXZXZXZXZXZXZXZXZXZXZXZXZXZXZX",
"ZXZXZXZXZXZXZXZXZXZXZXZXZXZXZXZXZXZXZXZXZXZXZXZXZXZXZXZX-Xm O = R 2.} ' ] m.R.H.,XZXZXZXZXZXZXZXZXZXZXZXZXZXZXZXZXZXZXZXZXZXZXZXZX",
"ZXZXZXZXZXZXZXZXZXZXZXZXZXZXZXZXZXZXZXZXZXZXZXZXZXZXZXZXZX>Xm @ Z R >._ ..D.).M.ZXZXZXZXZXZXZXZXZXZXZXZXZXZXZXZXZXZXZXZXZXZXZXZXZX",
"ZXZXZXZXZXZXZXZXZXZXZXZXZXZXZXZXZXZXZXZXZXZXZXZXZXZXZXZXZXZX7Xi., q 1._ ,.J.,XZXZXZXZXZXZXZXZXZXZXZXZXZXZXZXZXZXZXZXZXZXZXZXZXZXZX",
"ZXZXZXZXZXZXZXZXZXZXZXZXZXZXZXZXZXZXZXZXZXZXZXZXZXZXZXZXZXZXZXfXl i I _ k.2XsXZXZXZXZXZXZXZXZXZXZXZXZXZXZXZXZXZXZXZXZXZXZXZXZXZXZX",
"ZXZXZXZXZXZXZXZXZXZXZXZXZXZXZXZXZXZXZXZXZXZXZXZXZXZXZXZXZXZXZXZX5Xw.f O.XXrXZXZXZXZXZXZXZXZXZXZXZXZXZXZXZXZXZXZXZXZXZXZXZXZXZXZXZX",
"ZXZXZXZXZXZXZXZXZXZXZXZXZXZXZXZXZXZXZXZXZXZXZXZXZXZXZXZXZXZXZXZXZX5Xi.M.tXZXZXZXZXZXZXZXZXZXZXZXZXZXZXZXZXZXZXZXZXZXZXZXZXZXZXZXZX",
"ZXZXZXZXZXZXZXZXZXZXZXZXZXZXZXZXZXZXZXZXZXZXZXZXZXZXZXZXZXZXZXZXZXZXZXZXZXZXZXZXZXZXZXZXZXZXZXZXZXZXZXZXZXZXZXZXZXZXZXZXZXZXZXZXZX",
"ZXZXZXZXZXZXZXZXZXZXZXZXZXZXZXZXZXZXZXZXZXZXZXZXZXZXZXZXZXZXZXZXZXZXZXZXZXZXZXZXZXZXZXZXZXZXZXZXZXZXZXZXZXZXZXZXZXZXZXZXZXZXZXZXZX",
"ZXZXZXZXZXZXZXZXZXZXZXZXZXZXZXZXZXZXZXZXZXZXZXZXZXZXZXZXZXZXZXZXZXZXZXZXZXZXZXZXZXZXZXZXZXZXZXZXZXZXZXZXZXZXZXZXZXZXZXZXZXZXZXZXZX",
"ZXZXZXZXZXZXZXZXZXZXZXZXZXZXZXZXZXZXZXZXZXZXZXZXZXZXZXZXZXZXZXZXZXZXZXZXZXZXZXZXZXZXZXZXZXZXZXZXZXZXZXZXZXZXZXZXZXZXZXZXZXZXZXZXZX",
"ZXZXZXZXZXZXZXZXZXZXZXZXZXZXZXZXZXZXZXZXZXZXZXZXZXZXZXZXZXZXZXZXZXZXZXZXZXZXZXZXZXZXZXZXZXZXZXZXZXZXZXZXZXZXZXZXZXZXZXZXZXZXZXZXZX",
"ZXZXZXZXZXZXZXZXZXZXZXZXZXZXZXZXZXZXZXZXZXZXZXZXZXZXZXZXZXZXZXZXZXZXZXZXZXZXZXZXZXZXZXZXZXZXZXZXZXZXZXZXZXZXZXZXZXZXZXZXZXZXZXZXZX",
"ZXZXZXZXZXZXZXZXZXZXZXZXZXZXZXZXZXZXZXZXZXZXZXZXZXZXZXZXZXZXZXZXZXZXZXZXZXZXZXZXZXZXZXZXZXZXZXZXZXZXZXZXZXZXZXZXZXZXZXZXZXZXZXZXZX",
"ZXZXZXZXZXZXZXZXZXZXZXZXZXZXZXZXZXZXZXZXZXZXZXZXZXZXZXZXZXZXZXZXZXZXZXZXZXZXZXZXZXZXZXZXZXZXZXZXZXZXZXZXZXZXZXZXZXZXZXZXZXZXZXZXZX",
"ZXZXZXZXZXZXZXZXZXZXZXZXZXZXZXZXZXZXZXZXZXZXZXZXZXZXZXZXZXZXZXZXZXZXZXZXZXZXZXZXZXZXZXZXZXZXZXZXZXZXZXZXZXZXZXZXZXZXZXZXZXZXZXZXZX",
"ZXZXZXZXZXZXZXZXZXZXZXZXZXZXZXZXZXZXZXZXZXZXZXZXZXZXZXZXZXZXZXZXZXZXZXZXZXZXZXZXZXZXZXZXZXZXZXZXZXZXZXZXZXZXZXZXZXZXZXZXZXZXZXZXZX"
};
