/* XPM */
static char *result[] = {
/* columns rows colors chars-per-pixel */
"65 65 245 2 ",
"   c #008E5B",
".  c #00975E",
"X  c #1B8962",
"o  c #039D6B",
"O  c #0B9C6C",
"+  c #069766",
"@  c #17986A",
"#  c #009C70",
"$  c #189975",
"%  c #228E6A",
"&  c #259575",
"*  c #359676",
"=  c #00A265",
"-  c #05A46D",
";  c #0CA36D",
":  c #01AC6D",
">  c #00AD66",
",  c #02A572",
"<  c #0CA472",
"1  c #03AC73",
"2  c #0AAE74",
"3  c #0CAD7B",
"4  c #08A778",
"5  c #1CA375",
"6  c #11AC75",
"7  c #11AC7B",
"8  c #1CAD7B",
"9  c #14A374",
"0  c #01B274",
"q  c #02B47B",
"w  c #03B97D",
"e  c #09B37A",
"r  c #14B47B",
"t  c #09AB6F",
"y  c #26A678",
"u  c #32A178",
"i  c #3AA27F",
"p  c #21B17C",
"a  c #44A27D",
"s  c #08C17C",
"d  c #17AD83",
"f  c #08BD86",
"g  c #18BB82",
"h  c #18BA88",
"j  c #19BE93",
"k  c #2AAC84",
"l  c #27B687",
"z  c #3BB38C",
"x  c #3CA682",
"c  c #459E82",
"v  c #45AB85",
"b  c #4CB18D",
"n  c #44BA92",
"m  c #64B595",
"M  c #70BBA3",
"N  c #04C285",
"B  c #01C289",
"V  c #07C88C",
"C  c #15C48C",
"Z  c #00D28B",
"A  c #02C494",
"S  c #01CC94",
"D  c #03CE9C",
"F  c #0ACD9C",
"G  c #09C997",
"H  c #1DC696",
"J  c #11CD9B",
"K  c #19CB96",
"L  c #01D194",
"P  c #03D49D",
"I  c #09D49D",
"U  c #02DA9B",
"Y  c #0DDB9A",
"T  c #12D39B",
"R  c #19D79B",
"E  c #23C699",
"W  c #36C899",
"Q  c #01E69B",
"!  c #0ECEA4",
"~  c #07CDA0",
"^  c #04D4A1",
"/  c #0DD4A3",
"(  c #05DAA4",
")  c #0ADAA5",
"_  c #04DDAA",
"`  c #0DDDAA",
"'  c #13D6A5",
"]  c #1DD3A3",
"[  c #13DAA5",
"{  c #1DD6AA",
"}  c #13DBAA",
"|  c #1BDCAB",
" . c #15D6A8",
".. c #1EDCB1",
"X. c #17DBB5",
"o. c #11CFA1",
"O. c #28CEA2",
"+. c #2DD4A2",
"@. c #28DCAC",
"#. c #26D6A8",
"$. c #34D3AA",
"%. c #3DD5AB",
"&. c #36DCB3",
"*. c #2ED2AC",
"=. c #0CE1A4",
"-. c #0DE1AA",
";. c #03E3A7",
":. c #13E2A4",
">. c #14E1AA",
",. c #1CE2A8",
"<. c #0AE8B2",
"1. c #18E7B4",
"2. c #2AE4B8",
"3. c #32EDBE",
"4. c #3BEDBC",
"5. c #36E4B6",
"6. c #2AF5BD",
"7. c #31E6B1",
"8. c #57C59D",
"9. c #47C99A",
"0. c #45CDA5",
"q. c #59C3A4",
"w. c #46D5AA",
"e. c #5AD8AB",
"r. c #48DBB7",
"t. c #59DAB8",
"y. c #45CBB2",
"u. c #68C2A6",
"i. c #61D9BA",
"p. c #75DABD",
"a. c #79C4AF",
"s. c #43E9BE",
"d. c #48E6BD",
"f. c #5CE3BE",
"g. c #62E3B8",
"h. c #7EE4BD",
"j. c #3BEAC3",
"k. c #2AFBC6",
"l. c #3BF3C6",
"z. c #3DF4C9",
"x. c #3CFDCB",
"c. c #35F8C7",
"v. c #31F5CA",
"b. c #4ADFC2",
"n. c #69D5C1",
"m. c #44ECC3",
"M. c #45EFC9",
"N. c #4CEDC6",
"B. c #5CE5C3",
"V. c #5BE9C5",
"C. c #58E9C8",
"Z. c #44F3C6",
"A. c #44F5CA",
"S. c #4BF5CC",
"D. c #42FACD",
"F. c #4AFACD",
"G. c #44F6C7",
"H. c #52F4CB",
"J. c #5BF3CC",
"K. c #56F5C8",
"L. c #4AFBD1",
"P. c #49FCD5",
"I. c #53F5D3",
"U. c #5AFCD3",
"Y. c #58FBD7",
"T. c #5FE9D0",
"R. c #62E5C5",
"E. c #65EAC8",
"W. c #76E4C8",
"Q. c #63F3CE",
"!. c #6FF1CB",
"~. c #79F3CF",
"^. c #6CF4D1",
"/. c #68FAD5",
"(. c #7DF6D6",
"). c #7BFAD4",
"_. c #74FDDA",
"`. c #7BFBDB",
"'. c #75F5D6",
"]. c #7EE9D9",
"[. c #7BFFE2",
"{. c #8BD6BC",
"}. c #82E0BE",
"|. c #85DEC9",
" X c #95DDC8",
".X c #A7DCCD",
"XX c #AED7CC",
"oX c #84E7C9",
"OX c #95ECCA",
"+X c #89E9D4",
"@X c #94EBD3",
"#X c #99ECD8",
"$X c #86F5DA",
"%X c #83FBDB",
"&X c #89F6D7",
"*X c #95F7DD",
"=X c #9CF5DE",
"-X c #97FBDE",
";X c #AAE7D8",
":X c #A8F2DD",
">X c #B2F5DC",
",X c #B9F6DF",
"<X c #A5E4C7",
"1X c #85FEE3",
"2X c #8AFFE5",
"3X c #93FDE2",
"4X c #9CFCE3",
"5X c #9CFFED",
"6X c #97F6E3",
"7X c #94EEE2",
"8X c #B8EEE4",
"9X c #ADF4E3",
"0X c #A4FCE4",
"qX c #ACFAE5",
"wX c #ADFDEB",
"eX c #A2F4E1",
"rX c #B2F4E3",
"tX c #BDF2E5",
"yX c #B5F4EB",
"uX c #B3FCEC",
"iX c #BCF9ED",
"pX c #BAF6E9",
"aX c #BEFFF3",
"sX c #BEFFFF",
"dX c #ACEEE4",
"fX c #C1DBD2",
"gX c #C2F0E5",
"hX c #CBF4EC",
"jX c #C7FAE8",
"kX c #D9F5EE",
"lX c #C4FEF3",
"zX c #CCFBF4",
"xX c #C6FFFA",
"cX c #D2FBF4",
"vX c #DBFBF5",
"bX c #D5FBFB",
"nX c #DBFDFB",
"mX c #D8F5F1",
"MX c #C5EEE8",
"NX c #E2EEF6",
"BX c #E5FDFD",
"VX c #EAFBFB",
"CX c #E2FAF7",
"ZX c #E9F7F7",
"AX c None",
/* pixels */
"AXAXAXAXAXAXAXAXAXAXAXAXAXAXAXAXAXAXAXAXAXAXAXAXAXAXAXAXAXAXAXAXAXAXAXAXAXAXAXAXAXAXAXAXAXAXAXAXAXAXAXAXAXAXAXAXAXAXAXAXAXAXAXAXAX",
"AXAXAXAXAXAXAXAXAXAXAXAXAXAXAXAXAXAXAXAXAXAXAXAXAXAXAXAXAXAXAXAXAXAXAXAXAXAXAXAXAXAXAXAXAXAXAXAXAXAXAXAXAXAXAXAXAXAXAXAXAXAXAXAXAX",
"AXAXAXAXAXAXAXAXAXAXAXAXAXAXAXAXAXAXAXAXAXAXAXAXAXAXAXAXAXAXAXAXAXAXAXAXAXAXAXAXAXAXAXAXAXAXAXAXAXAXAXAXAXAXAXAXAXAXAXAXAXAXAXAXAX",
"AXAXAXAXAXAXAXAXAXAXAXAXAXAXAXAXAXAXAXAXAXAXAXAXAXAXAXAXAXAXAXAXAXAXAXAXAXAXAXAXAXAXAXAXAXAXAXAXAXAXAXAXAXAXAXAXAXAXAXAXAXAXAXAXAX",
"AXAXAXAXAXAXAXAXAXAXAXAXAXAXAXAXAXAXAXAXAXAXAXAXAXAXAXAXAXAXAXAXAXAXAXAXAXAXAXAXAXAXAXAXAXAXAXAXAXAXAXAXAXAXAXAXAXAXAXAXAXAXAXAXAX",
"AXAXAXAXAXAXAXAXAXAXAXAXAXAXAXAXAXAXAXAXAXAXAXAXAXAXAXAXAXAXAXAXAXAXAXAXAXAXAXAXAXAXAXAXAXAXAXAXAXAXAXAXAXAXAXAXAXAXAXAXAXAXAXAXAX",
"AXAXAXAXAXAXAXAXAXAXAXAXAXAXAXAXAXAXAXAXAXAXAXAXAXAXAXAXAXAXAXAXAXAXAXAXAXAXAXAXAXAXAXAXAXAXAXAXAXAXAXAXAXAXAXAXAXAXAXAXAXAXAXAXAX",
"AXAXAXAXAXAXAXAXAXAXAXAXAXAXAXAXAXAXAXAXAXAXAXAXAXAXAXAXAXAXAXAXAXAXAXAXAXAXAXAXAXAXAXAXAXAXAXAXAXAXAXAXAXAXAXAXAXAXAXAXAXAXAXAXAX",
"AXAXAXAXAXAXAXAXAXAXAXAXAXAXAXAXAXAXAXAXAXAXAXAXAXAXAXAXAXAXAXAXAXAXAXAXAXAXAXAXAXAXAXAXAXAXAXAXAXAXAXAXAXAXAXAXAXAXAXAXAXAXAXAXAX",
"AXAXAXAXAXAXAXAXAXAXAXAXAXAXAXAXAXAXAXAXAXAXAXAXAXAXAXAXAXAXAXAXAXAXAXAXAXAXAXAXAXAXAXAXAXAXAXAXAXAXAXAXAXAXAXAXAXAXAXAXAXAXAXAXAX",
"AXAXAXAXAXAXAXAXAXAXAXAXAXAXAXAXAXAXAXAXAXAXAXAXAXAXAXAXAXAXAXAXAXAXAXAXAXAXAXAXAXAXAXAXAXAXAXAXAXAXAXAXAXAXAXAXAXAXAXAXAXAXAXAXAX",
"AXAXAXAXAXAXAXAXAXAXAXAXAXAXAXAXAXAXAXAXAXAXAXAXAXAXAXAXAXAXAXAXAXAXAXAXAXAXAXAXAXAXAXAXAXAXAXAXAXAXAXAXAXAXAXAXAXAXAXAXAXAXAXAXAX",
"AXAXAXAXAXAXAXAXAXAXAXAXAXAXAXAXAXAXAXAXAXAXAXAXAXAXAXAXAXAXAXAXAXAXAXAXAXAXAXAXAXAXAXAXAXAXAXAXAXAXAXAXAXAXAXAXAXAXAXAXAXAXAXAXAX",
"AXAXAXAXAXAXAXAXAXAXAXAXAXAXAXAXAXAXAXAXAXAXAXAXAXAXAXAXAXAXAXAXAXAXAXAXAXAXAXAXAXAXAXAXAXAXAXAXAXAXAXAXAXAXAXAXAXAXAXAXAXAXAXAXAX",
"AXAXAXAXAXAXAXAXAXAXAXAXAXAXAXAXAXAXAXAXAXAXAXAXAXAXAXAXAXAXAXAXAXAXAXAXAXAXAXAXAXAXAXAXAXAXAXAXAXAXAXAXAXAXAXAXAXAXAXAXAXAXAXAXAX",
"AXAXAXAXAXAXAXAXAXAXAXAXAXAXAXAXAXAXAXAXAXAXAXAXAXAXAXgXgXgXgXAXAXAXAXAXAXAXAXAXAXAXAXAXAXAXAXAXAXAXAXAXAXAXAXAXAXAXAXAXAXAXAXAXAX",
"AXAXAXAXAXAXAXAXAXAXAXAXAXAXAXAXiX#Xt.H @.,.2.O.$.| S O.W.|.%.Y K [ -.| { G 2.l W 3XeX;XAXAXAXAXAXAXAXAXAXAXAXAXAXAXAXAXAXAXAXAXAX",
"AXAXAXAXAXAXAXAXAXAXAXAXAXAXAXAXyX+X%.J / ,.| J #.` L $.#XpXR.Z O.} I ..../ ) j l e.0XAXAXAXAXAXAXAXAXAXAXAXAXAXAXAXAXAXAXAXAXAXAX",
"AXAXAXAXAXAXAXAXAXAXAXAXAXAXAXAX#X^.@.I P | I ^ I L | E.iXBX3X+.O.} ^ X.} _ S A s ; W.wXOXAXAXAXAXAXAXAXAXAXAXAXAXAXAXAXAXAXAXAXAX",
"AXAXAXAXAXAXAXAXAXAXAXAXAXAXAXyXW.J.6.( S F D ;.U T R.uXAXAXlX@X] ( ` X.~ _ P A w + l p.4X:XAXAXAXAXAXAXAXAXAXAXAXAXAXAXAXAXAXAXAX",
"AXAXAXAXAXAXAXAXAXAXAXAXAXAXsX|.V.F.x.;.P D P <.( w.dXAXAXAXAXAXm.A _ X.! _ ' h 1 H + 5 &X-X,XhXAXAXAXAXAXAXAXAXAXAXAXAXAXAXAXAXAX",
"AXAXAXAXAXAXAXAXAXAXAXAXAXyXW.%.S.A.D./ ` _ ^ } 7.oXmXAXAXAXAXAX2XK D ' 1.( | d 4 W 8 + l &X0XrXAXAXAXAXAXAXAXAXAXAXAXAXAXAXAXAXAX",
"AXAXAXAXAXAXAXAXAXAXAXAXxX7XT.j.x.Z.S.{ _ <.D #.W.0XAXAXAXAXAXAXlXW.K  .-.Q [ 7 8 %.l 9 . w.5X4XtXhXAXAXAXAXAXAXAXAXAXAXAXAXAXAXAX",
"AXAXAXAXAXAXAXAXAXAXAXMXdX].I.x.6.M.T.&.~ <.j $.;XaXlXzXBXvXAXAXAXxXr.J U Q U e $ !.5 . r o ~.0X;XgXvXAXAXAXAXAXAXAXAXAXAXAXAXAXAX",
"AXAXAXAXAXAXAXAXAXAXpX+XW.`./.C.m.k.m.*.' Q #.+XCXvXcXcXzXcXcXvXNXCXlX&.Z Q ,.@ % OXu.X , w g t.:X:XtXAXAXAXAXAXAXAXAXAXAXAXAXAXAX",
"AXAXAXAXAXAXAXAXAXAXuXn.t.^.[.].!.x.m.s.| L i.yXVXCXCXnXvXvXvXvXZXVXCXW.+.@.E.p.XXVXXX Xg.r   n &X0XaXvXAXAXAXAXAXAXAXAXAXAXAXAXAX",
"AXAXAXAXAXAXAXAXAXAX$Xd.m.Q.[.5X2XG.6.4.) %.eXbXvXcXcXcXhXcXmXmXvXCXBXuXB.C r & 5 &Xn 8 f N 0 O 0.!.wXlXhXAXAXAXAXAXAXAXAXAXAXAXAX",
"AXAXAXAXAXAXAXAXiX*XJ.G.L.N.C.'.uXt.x.4.-.#XnXBXBXBXCXnXnXbXbXbXnXNXNXzX2X&.B w 2 K.5 o - 1 6 + o W ~.0XtXAXAXAXAXAXAXAXAXAXAXAXAX",
"AXAXAXAXAXAXAXAXV.K.4.x.G.G.Z.F.AXu./.T.4.xXvXnXbXbXbXmXbXzXzXzXnXBXVXBXxX^.j # & q.& k 7 4 3 3 o d t.*XrXAXAXAXAXAXAXAXAXAXAXAXAX",
"AXAXAXAXAXAXAXfXC C K C g E E +.AXk H E ] /.t.g.R.R.R.R.n.B.B.V.T.E.n.n.t.b.b.y.&.I.5.#.R | @.F H *.f.&XuXAXAXAXAXAXAXAXAXAXAXAXAX",
"AXAXAXAXAXAXAXAXn y - : ; y v n zXk d k H Q f B ( U ^ ^ ( P P U P P ^ ' A 2.A.N.P.z.D.L.Y.C.I./.N.C.'.*XpXAXAXAXAXAXAXAXAXAXAXAXAX",
"AXAXAXAXAXAXAXAX<Xa @ 9.e.oX>XjXAX#X.X;XoX,.R R =.} } [ ' ) ( ;./ ~ ~ ` D v.P.Y.T.b.Y.S.Y.Y.P.v.K._.1X4XlXAXAXAXAXAXAXAXAXAXAXAXAX",
"AXAXAXAXAXAXAXAXAXAX* k p u b b jXv p o d ] } ../ ' / / / / / / ( ^ } F { z.z.x.F.A.Z.z.D.D.z.j.[.7XdXMXAXAXAXAXAXAXAXAXAXAXAXAXAX",
"AXAXAXAXAXAXAXAXAXAXAX% u 8.% u >Xu 9 + 4 G I  .) ( ) / ( / ) / ( / ' o.@.z.z.D.G.A.A.A.A.M.I.I.1X6XiXAXAXAXAXAXAXAXAXAXAXAXAXAXAX",
"AXAXAXAXAXAXAXAXAXAXAXM x @ p u OX@ - o , f S J ( ( ( _ ( _ ( _ ( ` / F 2.D.j.x.x.A.A.Z.M.N.Q./.6XyXbXAXAXAXAXAXAXAXAXAXAXAXAXAXAX",
"AXAXAXAXAXAXAXAXAXAXAXAX* l p p }.6 1 3 4 f Z ' ( ) ( / ) ) ( ) ( } D o.z.P.j.A.D.D.A.Z.H.Q.`.1XdXzXAXAXAXAXAXAXAXAXAXAXAXAXAXAXAX",
"AXAXAXAXAXAXAXAXAXAXAXAXAX@ l . e.t 0 r 4 N B Y ' ' ' ' ' ' ' ' ( } F { D.L.j.A.D.D.G.K.Q.%X-X0XhXAXAXAXAXAXAXAXAXAXAXAXAXAXAXAXAX",
"AXAXAXAXAXAXAXAXAXAXAXAXAXAX+ p z 0 : 0 , w w K  . . . . . .'  .( ` ~ 1.P.S.M.S.x.G.Z.J.).-XqXuXAXAXAXAXAXAXAXAXAXAXAXAXAXAXAXAXAX",
"AXAXAXAXAXAXAXAXAXAXAXAXAXAX{.X @ w 0 : ; 0 : C ' / ' ' / ' ' / ( ` ! j.D.M.S.S.c.G.K.^.&XqXjXAXAXAXAXAXAXAXAXAXAXAXAXAXAXAXAXAXAX",
"AXAXAXAXAXAXAXAXAXAXAXAXAXAXAXu.O s : - < 0 : C ` ` ) ) ) ` ` ) ( ( } l.S.m.I.M.3.G.U._.-X>XAXAXAXAXAXAXAXAXAXAXAXAXAXAXAXAXAXAXAX",
"AXAXAXAXAXAXAXAXAXAXAXAXAXAXAXAX8.@ e : : g : 0 I >.P ^ >.` [ I <.~ v.l.x.D.L.d.d.J.(.6XAXAXAXAXAXAXAXAXAXAXAXAXAXAXAXAXAXAXAXAXAX",
"AXAXAXAXAXAXAXAXAXAXAXAXAXAXAXAXAXv O 1 : 6 2 > I ,.I P >.` ) I ` ~ z.A.F.A.S.d.J.^.$XqXAXAXAXAXAXAXAXAXAXAXAXAXAXAXAXAXAXAXAXAXAX",
"AXAXAXAXAXAXAXAXAXAXAXAXAXAXAXAXAX.Xi O r 6 > : G [ I I =.>.` F ~ #.S.I.I.m.N.C._.%X:XAXAXAXAXAXAXAXAXAXAXAXAXAXAXAXAXAXAXAXAXAXAX",
"AXAXAXAXAXAXAXAXAXAXAXAXAXAXAXAXAXAX{.u 6 2 : : B T Y / ) ) ) / G 2.S.S.G.m.C._.2X4XAXAXAXAXAXAXAXAXAXAXAXAXAXAXAXAXAXAXAXAXAXAXAX",
"AXAXAXAXAXAXAXAXAXAXAXAXAXAXAXAXAXAXAX}.@ = s = q V ,.:.P ^ ! } ! v.A.A.G.Z.Q.2X4XAXAXAXAXAXAXAXAXAXAXAXAXAXAXAXAXAXAXAXAXAXAXAXAX",
"AXAXAXAXAXAXAXAXAXAXAXAXAXAXAXAXAXAXAXAX8.; > t : N ,.Q L ^ ` X.1.z.l.F.S.J.`.0XyXAXAXAXAXAXAXAXAXAXAXAXAXAXAXAXAXAXAXAXAXAXAXAXAX",
"AXAXAXAXAXAXAXAXAXAXAXAXAXAXAXAXAXAXAXAX>X8.  p 1 w R Q U -.}  .2.D.s.U./.`.3XuXAXAXAXAXAXAXAXAXAXAXAXAXAXAXAXAXAXAXAXAXAXAXAXAXAX",
"AXAXAXAXAXAXAXAXAXAXAXAXAXAXAXAXAXAXAXAXAXOXy y 2 0 Y U U 1.` ! 3.A.s./._.3XqXAXAXAXAXAXAXAXAXAXAXAXAXAXAXAXAXAXAXAXAXAXAXAXAXAXAX",
"AXAXAXAXAXAXAXAXAXAXAXAXAXAXAXAXAXAXAXAXAXAXAXc > w Z :.| 2.! X.G.s.V.'.&X0XlXAXAXAXAXAXAXAXAXAXAXAXAXAXAXAXAXAXAXAXAXAXAXAXAXAXAX",
"AXAXAXAXAXAXAXAXAXAXAXAXAXAXAXAXAXAXAXAXAXAXAXAXy . e T >.` _ _ 4.s.E.(.3XuXAXAXAXAXAXAXAXAXAXAXAXAXAXAXAXAXAXAXAXAXAXAXAXAXAXAXAX",
"AXAXAXAXAXAXAXAXAXAXAXAXAXAXAXAXAXAXAXAXAXAXAXAXm X < R =.U _ 1.4.J.).=XqXAXAXAXAXAXAXAXAXAXAXAXAXAXAXAXAXAXAXAXAXAXAXAXAXAXAXAXAX",
"AXAXAXAXAXAXAXAXAXAXAXAXAXAXAXAXAXAXAXAXAXAXAXAXAXb O C ) P ' L.U.`.-XrXzXAXAXAXAXAXAXAXAXAXAXAXAXAXAXAXAXAXAXAXAXAXAXAXAXAXAXAXAX",
"AXAXAXAXAXAXAXAXAXAXAXAXAXAXAXAXAXAXAXAXAXAXAXAXAXAXv , U =.@.F._.3XqXhXBXAXAXAXAXAXAXAXAXAXAXAXAXAXAXAXAXAXAXAXAXAXAXAXAXAXAXAXAX",
"AXAXAXAXAXAXAXAXAXAXAXAXAXAXAXAXAXAXAXAXAXAXAXAXAXAX;X$ N U 6.L.%X0XgXkXAXAXAXAXAXAXAXAXAXAXAXAXAXAXAXAXAXAXAXAXAXAXAXAXAXAXAXAXAX",
"AXAXAXAXAXAXAXAXAXAXAXAXAXAXAXAXAXAXAXAXAXAXAXAXAXAXAXa.l #.U.`.=XrXkXAXAXAXAXAXAXAXAXAXAXAXAXAXAXAXAXAXAXAXAXAXAXAXAXAXAXAXAXAXAX",
"AXAXAXAXAXAXAXAXAXAXAXAXAXAXAXAXAXAXAXAXAXAXAXAXAXAXAXAXq.!.&XqXqXtXZXAXAXAXAXAXAXAXAXAXAXAXAXAXAXAXAXAXAXAXAXAXAXAXAXAXAXAXAXAXAX",
"AXAXAXAXAXAXAXAXAXAXAXAXAXAXAXAXAXAXAXAXAXAXAXAXAXAXAXAXAXAXhXhXAXAXAXAXAXAXAXAXAXAXAXAXAXAXAXAXAXAXAXAXAXAXAXAXAXAXAXAXAXAXAXAXAX",
"AXAXAXAXAXAXAXAXAXAXAXAXAXAXAXAXAXAXAXAXAXAXAXAXAXAXAXAXAXAXAXAXAXAXAXAXAXAXAXAXAXAXAXAXAXAXAXAXAXAXAXAXAXAXAXAXAXAXAXAXAXAXAXAXAX",
"AXAXAXAXAXAXAXAXAXAXAXAXAXAXAXAXAXAXAXAXAXAXAXAXAXAXAXAXAXAXAXAXAXAXAXAXAXAXAXAXAXAXAXAXAXAXAXAXAXAXAXAXAXAXAXAXAXAXAXAXAXAXAXAXAX",
"AXAXAXAXAXAXAXAXAXAXAXAXAXAXAXAXAXAXAXAXAXAXAXAXAXAXAXAXAXAXAXAXAXAXAXAXAXAXAXAXAXAXAXAXAXAXAXAXAXAXAXAXAXAXAXAXAXAXAXAXAXAXAXAXAX",
"AXAXAXAXAXAXAXAXAXAXAXAXAXAXAXAXAXAXAXAXAXAXAXAXAXAXAXAXAXAXAXAXAXAXAXAXAXAXAXAXAXAXAXAXAXAXAXAXAXAXAXAXAXAXAXAXAXAXAXAXAXAXAXAXAX",
"AXAXAXAXAXAXAXAXAXAXAXAXAXAXAXAXAXAXAXAXAXAXAXAXAXAXAXAXAXAXAXAXAXAXAXAXAXAXAXAXAXAXAXAXAXAXAXAXAXAXAXAXAXAXAXAXAXAXAXAXAXAXAXAXAX",
"AXAXAXAXAXAXAXAXAXAXAXAXAXAXAXAXAXAXAXAXAXAXAXAXAXAXAXAXAXAXAXAXAXAXAXAXAXAXAXAXAXAXAXAXAXAXAXAXAXAXAXAXAXAXAXAXAXAXAXAXAXAXAXAXAX",
"AXAXAXAXAXAXAXAXAXAXAXAXAXAXAXAXAXAXAXAXAXAXAXAXAXAXAXAXAXAXAXAXAXAXAXAXAXAXAXAXAXAXAXAXAXAXAXAXAXAXAXAXAXAXAXAXAXAXAXAXAXAXAXAXAX",
"AXAXAXAXAXAXAXAXAXAXAXAXAXAXAXAXAXAXAXAXAXAXAXAXAXAXAXAXAXAXAXAXAXAXAXAXAXAXAXAXAXAXAXAXAXAXAXAXAXAXAXAXAXAXAXAXAXAXAXAXAXAXAXAXAX"
};
