/* XPM */
static char *result[] = {
/* columns rows colors chars-per-pixel */
"65 65 245 2 ",
"   c #333937",
".  c #73741C",
"X  c #575838",
"o  c #4F503A",
"O  c #6C4F32",
"+  c #5E612A",
"@  c #686938",
"#  c #72722F",
"$  c #3A3D4B",
"%  c #2E3156",
"&  c #2D3259",
"*  c #323555",
"=  c #32345A",
"-  c #36395D",
";  c #3A3B5C",
":  c #383952",
">  c #2D2F55",
",  c #373960",
"<  c #3B3D64",
"1  c #3A3C67",
"2  c #443C52",
"3  c #553E44",
"4  c #3E4349",
"5  c #3D4656",
"6  c #3E4066",
"7  c #3F4169",
"8  c #3C4A6D",
"9  c #08475F",
"0  c #474848",
"q  c #554744",
"w  c #545949",
"e  c #46465B",
"r  c #555759",
"t  c #504F53",
"y  c #6B5649",
"u  c #5C624D",
"i  c #696748",
"p  c #646858",
"a  c #71744C",
"s  c #42446C",
"d  c #464A6E",
"f  c #494A66",
"g  c #444671",
"h  c #464871",
"j  c #484871",
"k  c #505572",
"l  c #687475",
"z  c #5B3827",
"x  c #993E15",
"c  c #937417",
"v  c #B7790C",
"b  c #AC7B14",
"n  c #B47812",
"m  c #BE6E0D",
"M  c #8C4D2A",
"N  c #896B29",
"B  c #B66526",
"V  c #AF732F",
"C  c #9D5223",
"Z  c #C7750B",
"A  c #D87708",
"S  c #CD7414",
"D  c #E27B08",
"F  c #C5762D",
"G  c #8B6C4D",
"H  c #825063",
"J  c #C07241",
"K  c #7D842F",
"L  c #7F821C",
"P  c #858819",
"I  c #999B18",
"U  c #978B18",
"Y  c #BC890D",
"T  c #A68515",
"R  c #B58A14",
"E  c #BD8C11",
"W  c #B88616",
"Q  c #B99317",
"!  c #B28E10",
"~  c #9AA218",
"^  c #B6BB0C",
"/  c #A5AB15",
"(  c #ABB211",
")  c #B7B716",
"_  c #AFA911",
"`  c #83862A",
"'  c #929228",
"]  c #AB8928",
"[  c #BBB623",
"{  c #B0B030",
"}  c #C8880C",
"|  c #D5890B",
" . c #C5980D",
".. c #D7970C",
"X. c #C68A16",
"o. c #C69913",
"O. c #DC9C12",
"+. c #D59715",
"@. c #D1891C",
"#. c #E98607",
"$. c #F38705",
"%. c #E4980E",
"&. c #E39712",
"*. c #F19E0C",
"=. c #C9A60A",
"-. c #DCA40C",
";. c #D8A80B",
":. c #D7B60A",
">. c #D8A413",
",. c #C5B517",
"<. c #D0B213",
"1. c #E3A60C",
"2. c #E5B80A",
"3. c #E8A614",
"4. c #D78D31",
"5. c #C9AA2B",
"6. c #F5A43E",
"7. c #E29E22",
"8. c #BBC30D",
"9. c #BCC313",
"0. c #B8C228",
"q. c #BECA32",
"w. c #C6C90D",
"e. c #D9C70C",
"r. c #CAD30B",
"t. c #D7D90C",
"y. c #C7CB16",
"u. c #D6C712",
"i. c #CAD619",
"p. c #D5DD18",
"a. c #E6C60A",
"s. c #EAD30B",
"d. c #E7D90B",
"f. c #E7DB16",
"g. c #F7CF07",
"h. c #DCE20A",
"j. c #DAE214",
"k. c #ECE30A",
"l. c #E5EA0B",
"z. c #ECED0C",
"x. c #E3E60A",
"c. c #F2E60B",
"v. c #F4EA09",
"b. c #EDF209",
"n. c #FBFB04",
"m. c #F3F30A",
"M. c #F5F606",
"N. c #E6E916",
"B. c #F1F615",
"V. c #C9CC2A",
"C. c #D4D925",
"Z. c #CCD02D",
"A. c #F5F637",
"S. c #F6F82A",
"D. c #DEE72E",
"F. c #91904D",
"G. c #AA9352",
"H. c #9BAB51",
"J. c #A6B352",
"K. c #93916F",
"L. c #A59B78",
"P. c #95A677",
"I. c #99AB64",
"U. c #ABB16B",
"Y. c #DEAC49",
"T. c #B6C963",
"R. c #BFC04F",
"E. c #CCD04D",
"W. c #E9EC50",
"Q. c #EFF176",
"!. c #D8E347",
"~. c #513887",
"^. c #566984",
"/. c #677996",
"(. c #697489",
"). c #8B508C",
"_. c #7D898C",
"`. c #7B94AC",
"'. c #848D97",
"]. c #8C9792",
"[. c #9BA98B",
"{. c #A5AB97",
"}. c #A6B391",
"|. c #859DB4",
" X c #829EBB",
".X c #889CB1",
"XX c #8693A7",
"oX c #97A5A9",
"OX c #83A1BC",
"+X c #8AA3BE",
"@X c #97A7B8",
"#X c #B6B8A8",
"$X c #A3ACB7",
"%X c #AAB4BB",
"&X c #B7B9B7",
"*X c #AEAEA6",
"=X c #AB9E8B",
"-X c #C5BEB2",
";X c #C4BF94",
":X c #BDC5B3",
">X c #ACC08F",
",X c #CFD395",
"<X c #F2F38F",
"1X c #D1D2B4",
"2X c #EFECA5",
"3X c #8CA7C1",
"4X c #96ABC4",
"5X c #9DB1C9",
"6X c #ACB5C5",
"7X c #A6B7C9",
"8X c #B4BDC9",
"9X c #ADBED3",
"0X c #A8B2C6",
"qX c #BBC4CA",
"wX c #BCC4D4",
"eX c #B7C4D8",
"rX c #AFC1D5",
"tX c #BFCDE0",
"yX c #C4C9CB",
"uX c #D7D8CD",
"iX c #C5CBD6",
"pX c #CBD1DB",
"aX c #D9D9DB",
"sX c #D4D5D8",
"dX c #CDD0C6",
"fX c #EBEBD1",
"gX c #C4CEE1",
"hX c #CBD4E5",
"jX c #DCDCE3",
"kX c #D5DBEB",
"lX c #DBDEEA",
"zX c #D2D7E5",
"xX c #E2DEE7",
"cX c #DCE1E9",
"vX c #DEE2F2",
"bX c #E4E3EC",
"nX c #E8E8E7",
"mX c #E3E4F2",
"MX c #EBEAF4",
"NX c #EEEDFA",
"BX c #E7E8F5",
"VX c #F1EDFB",
"CX c #F1F1EB",
"ZX c #E1DADA",
"AX c None",
/* pixels */
"AXAXAXAXAXAXAXAXAXAXAXAXAXAXAXAXAXAXAXAXAXAXAXAXAXAXAXAXAXAXAXAXAXAXAXAXAXAXAXAXO z AXAXAXAXAXAXAXAXAXAXAXAXAXAXAXAXAXAXAXAXAXAXAX",
"AXAXAXAXAXAXAXAXAXAXAXAXAXAXAXAXAXAXAXAXAXAXAXAXAXAXAXAXAXAXAXAXAXAXAXAXAXAXAXM B B z AXAXAXAXAXAXAXAXAXAXAXAXAXAXAXAXAXAXAXAXAXAX",
"AXAXAXAXAXAXAXAXAXAXAXAXAXAXAXAXAXAXAXAXAXAXAXAXAXAXAXAXAXAXAXAXAXAXAXAXXX'.G F B x AXAXAXAXAXAXAXAXAXAXAXAXAXAXAXAXAXAXAXAXAXAXAX",
"AXAXAXAXAXAXAXAXAXAXAXAXAXAXAXAXAXAXAXAXAXAXAXAXAXAXAXAXAXAXAXAXAXG.G.].`.G.F B C H AXAXAXAXAXAXAXAXAXAXAXAXAXAXAXAXAXAXAXAXAXAXAX",
"AXAXAXAXAXAXAXAXAXAXAXAXAXAXAXAXAXAXAXAXAXAXAXAXAXAXAXAX0.) I _ U.*XoX_.^.5 V C G 9XAXAXAXAXAXAXAXAXAXAXAXAXAXAXAXAXAXAXAXAXAXAXAX",
"AXAXAXAXAXAXAXAXAXAXAXAXAXAXAXAXAXAXAXAXAXAXAXAXAXAXAXy.r.) ) H.6X4X`._.w 9 k   l 0XK.AXAXAXAXAXAXAXAXAXAXAXAXAXAXAXAXAXAXAXAXAXAX",
"AXAXAXAXAXAXAXAXAXAXAXAXAXAXAXAXAXAXAXAXAXAXAXAXAXAXAXR.y.y.I.6X&X]._.F.# & ~.  K.oXG.{ AXAXAXAXAXAXAXAXAXAXAXAXAXAXAXAXAXAXAXAXAX",
"AXAXAXAXAXAXAXAXAXAXAXAXAXAXAXAXAXAXAXAXAXAXAXAXAXxXxXsX*X[.8XiX*XK.V n b ).H c K.*XH.I ~ AXAXAXAXAXAXAXAXAXAXAXAXAXAXAXAXAXAXAXAX",
"AXAXAXAXAXAXAXAXAXAXAXAXAXAXAXAXAXAXAXbXbXzXzXjXsXiXiX9X4XqXdX6XK.S E T v V F E U.dXU.,.) 9.AXAXAXAXAXAXAXAXAXAXAXAXAXAXAXAXAXAXAX",
"AXAXAXAXAXAXAXAXAXAXAXAXAXAXAXAXAXlXkXiXeXwXwX6X@X0X4X5XcXuXL.V R Z X.Y v v n n T.uX:XJ.{ U.AXAXAXAXAXAXAXAXAXAXAXAXAXAXAXAXAXAXAX",
"AXAXAXAXAXAXAXAXAXAXAXAXAXAXAXaXpXeX9XwXwXqX8X0X6X@X*XlX-XG.R o.Y m v } E A Y } [ ,X1X%XoX$XsXAXAXAXAXAXAXAXAXAXAXAX4.AXAXAXAXAXAX",
"AXAXAXAXAXAXAXAXAXAXAXAXAXAXwX9X9XpXkXpXpXiX6X7X0XpX,XK.N b Z R Z Z } }  .#.=.1.u.!.Q.U.>X}.}.,X1XAXAXAX5.5.5.....O.>.o.X.AXAXAXAX",
"AXAXAXAXAXAXAXAXAXAXAXAX#XaX7X6XiXiXiXiXsXyX$X8XlX&XG @ T  .} X.Z  .|  .:.a.d.v.z.z.S.!.E.D.Z.q.E.5.5.+.......+.o.| X.E W AXAXAXAX",
"AXAXAXAXAXAXAXAXAXAXAX1X[.L.oXwX8XwXjXxXwX7X-X-X=Xc q X E o.E v } o.:.s.v.s.e.:.j.Z.2X2X,XV.s.z.c.a.-.O.O...+.} Y E R R W AXAXAXAX",
"AXAXAXAXAXAXAXAXAXAXN.Z.C.V.8X8XiXCXCXqX0XlX-XG.b O 2 N E | >...-.d.v.s.:...=. .t.Z.E.Z.>.;.:.s.c.d.a.;...} E W Y Y R W AXAXAXAXAX",
"AXAXAXAXAXAXAXAXAXAXB.n.g.7.G.1XnXnXsX8XjX#XV o.. = 3 n  .}  ...s.v.v.2.<.;.w.s.z.z.s.a.2.a.g.s.2.1.a.s.<. .Y W R W AXAXAXAXAXAXAX",
"AXAXAXAXAXAXAXAXAXAXf.g.*.*.Y.ZXZXaXzX1XL.] &.W 2 - 0 b E Y  .2.c.d.a.d.t.d.M.c.b.k.s.d.z.c.z.:.| ..<.d.d.=.o.Q { AXAXAXAXAXAXAXAX",
"AXAXAXAXAXAXAXAXAXAXAX*.*.7.1XxXaXZXvX[.R | >.y - & q b o.} o.2.1... .e.m.m.t.u.d.t.,.p.b.M.N.{ H.K.F.{ x.d.:.s.f.AXAXAXAXAXAXAXAX",
"AXAXAXAXAXAXAXAXAXAXAXAXAXAXbXaXnXlX=Xb | >.] 2 = , q Y o.} :.-.| n Q f.z.b.N.i.t.t.9.l.z.q.i.D.I.].K.I.0.z.s.2.AXAXAXAXAXAXAXAXAX",
"AXAXAXAXAXAXAXAXAXAXAXAXAXAXaXaX1XK.N . c Q O = - , 0 b =.:.z.,.' F.{ l.8.8.b.h.l.b.b.b.q.J.J.p.V.P.P.P.I.C.N.AXAXAXAXAXAXAXAXAXAX",
"AXAXAXAXAXAXAXAXAXAXAXAXAXAXxXvX'.q N J O 3 = - ; e 0 U =.k.N./ F.H.y.t./ ~ 8.n.n.n.n.t.0.0.J.9.p.J.P.P.I.q.l.AXAXAXAXAXAXAXAXAXAX",
"AXAXAXAXAXAXAXAXAXAXAXAXAXBXBX4Xd H 6.6.Y.q & - e w @ I a.z.l.r.y.r.l.z.h.t.l.n.n.n.n.b.l.l.h.l.b.j.C.i.i.p.b.S.AXAXAXAXAXAXAXAXAX",
"AXAXAXAXAXAXAXAXAXAXAXAXBXMX7Xk e 4.6.4.F G > - s ; 4 X T d.r.' K I w.l.8.8.t.n.n.n.n.h.8.8.9.r.h.9.0.) { 8.l.A.AXAXAXAXAXAXAXAXAX",
"AXAXAXAXAXAXAXAXAXAXAXbXfXyX(.- 2 V 4.M M 3 = - 7 ; = : o ` ' a p a I h.( ( x.n.M.b.b.b.^ ~ ~ 8.9.K a l a F.i.AXAXAXAXAXAXAXAXAXAX",
"AXAXAXAXAXAXAXAXAXAXMXMX;X(.f = ; C B y 3 2 = < 6 < = : 0 . / @ p p a 8.h.x.n.c.x.t.^ x.x._ ( t.~ a p p l AXAXAXAXAXAXAXAXAXAXAXAX",
"AXAXAXAXAXAXAXAXAXBXMXBX4Xk * = , 3 x O < = = 1 s , = > 4 P j.K u w c =.m.n.v.d.d.t.P I t.l.j.( F.K.{.1XAXAXAXAXAXAXAXAXAXAXAXAXAX",
"AXAXAXAXAXAXAXAXBXkXbXiX/.= = = 1 s 6 e 1 = = 1 7 - = : 4 @ r.^ u r c a.M.k.c.v.M.d._ ^ r.l.x.J.}.jXCXCX2XA.A.AXAXAXAXAXAXAXAXAXAX",
"AXAXAXAXAXAXAXBXkXpXvX|.1 = = = 1 s s j 7 = , 7 7 ; = > $ o I j.P K I k.e.=.=.a.v.c.^ / P . ^ p.T.:XfXfXQ.S.W.AXAXAXAXAXAXAXAXAXAX",
"AXAXAXAXAXAXxXBXrXcX9X^.= = = - 1 s s j 7 = , 7 s , = > = 2 + w.r./ r._  .E Y ..s.t.. @ o 4 + / i.T.1X<XS.S.2XfXAXAXAXAXAXAXAXAXAX",
"AXAXAXAXAXaXBXtXwX,X`.6 = = = - 6 s s s 7 , 2 s 1 , = = > : 0 . t.z.^ P Y Y Y Y 2.u.@ X 4 4 4 X / i.q.S.S.<XfXCXjXAXAXAXAXAXAXAXAX",
"AXAXAXAXAXBXzX7XaX{.^.- = = = , s s j j s = 1 s 1 , = > = * $ X / t.h./ c ! Y Y 2.e.@ w X 4 4 o L 8.M.B.Q.fXnXNXNXAXAXAXAXAXAXAXAX",
"AXAXAXAXbXmX7XeXkX|.d & % = = - s 1 s s s 1 1 s 6 2 = = = * : 0 @ # ^ h.w.=. .} :.x.K X + X + L 8.h.j.C.,XCXMXVXVXmXAXAXAXAXAXAXAX",
"AXAXAXAXBXtX5XvXrX/.- = > = = < s 7 g s s 1 1 s 1 - = > % * = : e w @ K ) ) u.s.d.z.) ~ ( ) w.t.^ P K J.T.fXCXNXNXNXZXAXAXAXAXAXAX",
"AXAXAXmXkX3XtXkX3Xk = = = = = 1 s s j d s 7 s s < - = = = = = - f u r t w @ Q s.k.m.v.t.u.^ I . X 4 5 l P.,XfXNXNXNXMXaXAXAXAXAXAX",
"AXAXlXBX5X5XvXrX`.8 = = = > = 1 s 6 j g s s s s < - % = = % > : w w 6 5 2 f N  .;.a.u.' @ @ o 4 : : 5 d `.oXsXNXNXNXMXbXAXAXAXAXAX",
"AXAXBXtX3XgXkX3X/.- = > = = - 6 s s g g s s d s < - = = = = = 0 w f 6 - 1 g w ! | :.3.] r u t : % & * = (.OX5XBXNXNXvXbXbXAXAXAXAX",
"AXAXvX4X5XvX7XOX^.- = = = = - 7 s 7 j d d d g s < - = = > = : w t s < , 1 g e c } ;.-.o.r r w : % * = = d `.+XgXNXVXBXhXbXAXAXAXAX",
"AXlXeX+XkXkX3X`.AXAX= = = = , 7 d 7 g g g g g s < , = = = = * 5 6 6 < - 1 7 h N } ..-.O.p f w 5 % % = = & _. X5XBXNXVXeXhXbXAXAXAX",
"AXhX3X9XBX7X|. XAXAXAX; = = - s d s j g j g s d 1 - = > = > = - 6 < = = 1 d h # Y #...O.G d e e & & & = & ^.OX+XgXNXNXhX9XbXAXAXAX",
"AX0X3XkXgXOX3X.XAXAXAXAXAX- ; s s s g j g j g s < = = = = = = = < = = = < j f a } #.+.%.a g g 7 * % = & & 8  X X5XNXNXcX@XhXcXAXAX",
"AXAX8XhX4X3X XAXAXAXAXAXAXAX6 s d s g j g j g d < < - ; ; * = = = & = = < g d ` X.$.+.O.y j j 1 - > = = = ; `.3X3XhXVXBX4X7XlXAXAX",
"AXAXAX+X3X`. XAXAXAXAXAXAXAXAXd j d d g j g d d f AXAXAXAXAX; = = % = - < g f ] | #.>.+.p g g g , > > = = > /.4X X9XNXBX5X3XhXAXAX",
"AXAXAXAX3X`. XAXAXAXAXAXAXAXAXAXj j g j g j g s AXAXAXAXAXAXAX= = & = , 1 d r ] #.%.>.+.p g g s 1 = > > > = k 0XOX3XvXNX7X X9XAXAX",
"AXAXAXAX|.OX XAXAXAXAXAXAXAXAXAXAXd d j j d g AXAXAXAXAXAXAXAXAX= & - , 8 h r R $.O.>.@.r g j g 1 = = = > = s $X3XOXhXVX9X X3XiXAX",
"AXAXAXAXAXOX.XAXAXAXAXAXAXAXAXAXAXAXAXAXj AXAXAXAXAXAXAXAXAXAXAX; = = 1 s g w o.$.O.>.@.k g g g 7 - = = = , - 0X4X X9XNXeX XOX9XAX",
"AXAXAXAXAXAXAXAXAXAXAXAXAXAXAXAXAXAXAXAXAXAXAXAXAXAXAXAXAXAXAXAXAX; - 1 g g i X.$.-.&.X.f d g g 7 < - = < AXAXAX7XOX5XBXeXOX X+XAX",
"AXAXAXAXAXAXAXAXAXAXAXAXAXAXAXAXAXAXAXAXAXAXAXAXAXAXAXAXAXAXAXAXAXAX6 s g g i  .$.>.&.X.f g g g s < ; AXAXAXAXAXeXOX3XvXrX3X X|.AX",
"AXAXAXAXAXAXAXAXAXAXAXAXAXAXAXAXAXAXAXAXAXAXAXAXAXAXAXAXAXAXAXAXAXAXAXd g g i  .$.>.&.X.r g j j AXAXAXAXAXAXAXAXgX3X3XkX9X`.OX.XAX",
"AXAXAXAXAXAXAXAXAXAXAXAXAXAXAXAXAXAXAXAXAXAXAXAXAXAXAXAXAXAXAXAXAXAXAXAXAXAXG o.$.O.&.@.AXAXAXAXAXAXAXAXAXAXAXAXzX4X+XhX5XOX|.AXAX",
"AXAXAXAXAXAXAXAXAXAXAXAXAXAXAXAXAXAXAXAXAXAXAXAXAXAXAXAXAXAXAXAXAXAXAXAXAXAXAX=.$.>.&.>.AXAXAXAXAXAXAXAXAXAXAXAXlX5X3XeX4XAXAXAXAX",
"AXAXAXAXAXAXAXAXAXAXAXAXAXAXAXAXAXAXAXAXAXAXAXAXAXAXAXAXAXAXAXAXAXAXAXAXAXAXAXo.$.>.&.7.AXAXAXAXAXAXAXAXAXAXAXAXlX5XOXeXAXAXAXAXAX",
"AXAXAXAXAXAXAXAXAXAXAXAXAXAXAXAXAXAXAXAXAXAXAXAXAXAXAXAXAXAXAXAXAXAXAXAXAXAX)  .$.>.O.7.AXAXAXAXAXAXAXAXAXAXAXAXbX8XAXAXAXAXAXAXAX",
"AXAXAXAXAXAXAXAXAXAXAXAXAXAXAXAXAXAXAXAXAXAXAXAXAXAXAXAXAXAXAXAXAXAXAXAXAXAX[  .$.3...&.AXAXAXAXAXAXAXAXAXAXAXAXAXAXAXAXAXAXAXAXAX",
"AXAXAXAXAXAXAXAXAXAXAXAXAXAXAXAXAXAXAXAXAXAXAXAXAXAXAXAXAXAXAXAXAXAXAXAXAXAX5. .$.%...&.AXAXAXAXAXAXAXAXAXAXAXAXAXAXAXAXAXAXAXAXAX",
"AXAXAXAXAXAXAXAXAXAXAXAXAXAXAXAXAXAXAXAXAXAXAXAXAXAXAXAXAXAXAXAXAXAXAXAXAXAX,.} $.%.&.%.AXAXAXAXAXAXAXAXAXAXAXAXAXAXAXAXAXAXAXAXAX",
"AXAXAXAXAXAXAXAXAXAXAXAXAXAXAXAXAXAXAXAXAXAXAXAXAXAXAXAXAXAXAXAXAXAXAXAXAXAX<.Z A &.1.$.7.AXAXAXAXAXAXAXAXAXAXAXAXAXAXAXAXAXAXAXAX",
"AXAXAXAXAXAXAXAXAXAXAXAXAXAXAXAXAXAXAXAXAXAXAXAXAXAXAXAXAXAXAXAXAXAXAXAXAXC.e.#.D X. .D @.AXAXAXAXAXAXAXAXAXAXAXAXAXAXAXAXAXAXAXAX",
"AXAXAXAXAXAXAXAXAXAXAXAXAXAXAXAXAXAXAXAXAXAXAXAXAXAXAXAXAXAXAXAXAXAXAXAXAXAX<.A D | o.Z n AXAXAXAXAXAXAXAXAXAXAXAXAXAXAXAXAXAXAXAX",
"AXAXAXAXAXAXAXAXAXAXAXAXAXAXAXAXAXAXAXAXAXAXAXAXAXAXAXAXAXAXAXAXAXAXAXAXAXq.X.A A E } v b AXAXAXAXAXAXAXAXAXAXAXAXAXAXAXAXAXAXAXAX",
"AXAXAXAXAXAXAXAXAXAXAXAXAXAXAXAXAXAXAXAXAXAXAXAXAXAXAXAXAXAXAXAXAXAXAXAXAX5.@.F ] P c . a AXAXAXAXAXAXAXAXAXAXAXAXAXAXAXAXAXAXAXAX",
"AXAXAXAXAXAXAXAXAXAXAXAXAXAXAXAXAXAXAXAXAXAXAXAXAXAXAXAXAXAXAXAXAXAXAXAXAX#X*X*X{.` . K.&XcXnXAXAXAXAXAXAXAXAXAXAXAXAXAXAXAXAXAXAX",
"AXAXAXAXAXAXAXAXAXAXAXAXAXAXAXAXAXAXAXAXAXAXAXAXAXAXAXAXAXAXAXAXAXAXAXAXAX&X6X%X6X{.oX%X$X&XyXiXsXyX&XAXAXAXAXAXAXAXAXAXAXAXAXAXAX",
"AXAXAXAXAXAXAXAXAXAXAXAXAXAXAXAXAXAXAXAXAXAXAXAXAXAXAXAXAXAXAXAXAXAXAXAXAXXX_.'.].@X0X&X8X%X%X%X6X&X%XAXAXAXAXAXAXAXAXAXAXAXAXAXAX",
"AXAXAXAXAXAXAXAXAXAXAXAXAXAXAXAXAXAXAXAXAXAXAXAXAXAXAXAXAXAXAXAXAXAXAXAXAXAXAX(.l (.'.XXoX$X$X$X$X$X$XAXAXAXAXAXAXAXAXAXAXAXAXAXAX",
"AXAXAXAXAXAXAXAXAXAXAXAXAXAXAXAXAXAXAXAXAXAXAXAXAXAXAXAXAXAXAXAXAXAXAXAXAXAXAXAXAXAXAXAXAXAXAXAXAXAXAXAXAXAXAXAXAXAXAXAXAXAXAXAXAX"
};
