/* XPM */
static char *result[] = {
/* columns rows colors chars-per-pixel */
"65 65 168 2 ",
"   c #1E1C27",
".  c #1F1C27",
"X  c #1F1D28",
"o  c #201F24",
"O  c #211E26",
"+  c #201E27",
"@  c #211E27",
"#  c #201F27",
"$  c #211F27",
"%  c #201D28",
"&  c #211F28",
"*  c #201E29",
"=  c #211E29",
"-  c #221F28",
";  c #211F2A",
":  c #201E2B",
">  c #221F2A",
",  c #222226",
"<  c #212028",
"1  c #222029",
"2  c #232029",
"3  c #232228",
"4  c #232229",
"5  c #232329",
"6  c #22212A",
"7  c #23212A",
"8  c #22202B",
"9  c #23202B",
"0  c #23212B",
"q  c #23222B",
"w  c #242329",
"e  c #24212A",
"r  c #24212B",
"t  c #24232A",
"y  c #252428",
"u  c #252429",
"i  c #24242A",
"p  c #25242B",
"a  c #26252B",
"s  c #23212C",
"d  c #23222D",
"f  c #24212C",
"g  c #24232C",
"h  c #24222D",
"j  c #25222D",
"k  c #24232D",
"l  c #25232D",
"z  c #26232C",
"x  c #25232E",
"c  c #24222F",
"v  c #26222E",
"b  c #26232E",
"n  c #25242C",
"m  c #25242D",
"M  c #26242C",
"N  c #26252C",
"B  c #26242D",
"V  c #27242D",
"C  c #26252D",
"Z  c #27252D",
"A  c #27262C",
"S  c #27262D",
"D  c #25242E",
"F  c #27242E",
"G  c #26252E",
"H  c #27252E",
"J  c #26242F",
"K  c #27242F",
"L  c #26252F",
"P  c #27252F",
"I  c #27262E",
"U  c #27262F",
"Y  c #28252E",
"T  c #28252F",
"R  c #28262F",
"E  c #29262F",
"W  c #28272F",
"Q  c #2E252E",
"!  c #2C282F",
"~  c #272530",
"^  c #272531",
"/  c #252630",
"(  c #272532",
")  c #282530",
"_  c #292530",
"`  c #292630",
"'  c #282730",
"]  c #292730",
"[  c #282631",
"{  c #292631",
"}  c #292731",
"|  c #2A2730",
" . c #282432",
".. c #282532",
"X. c #292532",
"o. c #282533",
"O. c #292533",
"+. c #282632",
"@. c #292632",
"#. c #282732",
"$. c #292732",
"%. c #282633",
"&. c #292633",
"*. c #282733",
"=. c #292733",
"-. c #2A2732",
";. c #292734",
":. c #2B2736",
">. c #272933",
",. c #292830",
"<. c #292930",
"1. c #292831",
"2. c #2B2831",
"3. c #292832",
"4. c #292833",
"5. c #2A2932",
"6. c #2B2932",
"7. c #2A2833",
"8. c #2B2933",
"9. c #2B2A32",
"0. c #2B2A33",
"q. c #2C2932",
"w. c #2E2932",
"e. c #2C2A32",
"r. c #2C2B32",
"t. c #2C2A33",
"y. c #2D2A33",
"u. c #2D2B33",
"i. c #2A2834",
"p. c #2B2934",
"a. c #2A2835",
"s. c #2B2B35",
"d. c #2E2934",
"f. c #2C2A34",
"g. c #2C2B34",
"h. c #2C2A35",
"j. c #2D2B35",
"k. c #2C2A36",
"l. c #2D2A36",
"z. c #2D2B36",
"x. c #2D2C34",
"c. c #2D2C35",
"v. c #2E2D35",
"b. c #2F2D35",
"n. c #2F2D36",
"m. c #2E2C37",
"M. c #2F2E37",
"N. c #2E2A38",
"B. c #2F2D38",
"V. c #302F37",
"C. c #332E37",
"Z. c #342C37",
"A. c #302938",
"S. c #302F38",
"D. c #302E39",
"F. c #312F3A",
"G. c #32303B",
"H. c #37333B",
"J. c #33313C",
"K. c #34323D",
"L. c #393138",
"P. c #463E45",
"I. c #494149",
"U. c #4B4048",
"Y. c #52434C",
"T. c #61505A",
"R. c #6A5660",
"E. c None",
/* pixels */
"E.E.E.E.E.E.E.E.E.E.E.E.E.E.E.E.E.E.E.E.E.E.E.E.E.E.E.E.E.E.E.E.E.E.E.E.E.E.E.E.E.E.E.E.E.E.E.E.E.E.E.E.E.E.E.E.E.E.E.E.E.E.E.E.E.",
"E.E.E.E.E.E.E.E.E.E.E.E.E.E.E.E.E.E.E.E.E.E.E.E.E.E.E.E.E.E.E.E.E.E.E.E.E.E.E.E.E.E.E.E.E.E.E.E.E.E.E.E.E.E.E.E.E.E.E.E.E.E.E.E.E.",
"E.E.E.E.E.E.E.E.E.E.E.E.E.E.E.E.E.E.E.E.E.E.E.E.E.E.E.E.E.E.E.E.E.E.E.E.E.E.E.E.E.E.E.E.E.E.E.E.E.E.E.E.E.E.E.E.E.E.E.E.E.E.E.E.E.",
"E.E.E.E.E.E.E.E.E.E.E.E.E.E.E.E.E.E.E.E.E.E.E.E.E.E.E.E.E.E.E.E.E.E.E.E.E.E.E.E.E.E.E.E.E.E.E.E.E.E.E.E.E.E.E.E.E.E.E.E.E.E.E.E.E.",
"E.E.E.E.E.E.E.E.E.E.E.E.E.E.E.E.E.E.E.E.E.E.E.E.E.E.E.E.E.E.E.E.E.E.E.E.E.E.E.E.E.E.E.E.E.E.E.E.E.E.E.E.E.E.E.E.E.E.E.E.E.E.E.E.E.",
"E.E.E.E.E.E.E.E.E.E.E.E.E.E.E.E.E.E.E.E.E.E.E.E.E.E.E.E.E.E.E.E.E.E.E.E.E.E.E.E.E.E.E.E.E.E.E.E.E.E.E.E.E.E.E.E.E.E.E.E.E.E.E.E.E.",
"E.E.E.E.E.E.E.E.E.E.E.E.E.E.E.E.E.E.E.E.E., o a i 3 5 w 3 4 w 5 w w 3 3 3 3 4 w w t t 3 y E.E.E.E.E.E.E.E.E.E.E.E.E.E.E.E.E.E.E.E.",
"E.E.E.E.E.E.E.E.E.E.E.E.E.E.E.E.E.E.E.E.E.A p m m m m m m m m m m B m m m m m m m D m M u E.E.E.E.E.E.E.E.E.E.E.E.E.E.E.E.E.E.E.E.",
"E.E.E.E.E.E.E.E.E.E.E.E.E.E.E.E.E.E.E.E.E.N ' $.$.$.$.$.$.$.$.$.$.$.$.$.$.$.$.$.$.$.$.] p E.E.E.E.E.E.E.E.E.E.E.E.E.E.E.E.E.E.E.E.",
"E.E.E.E.E.E.E.E.E.E.E.E.E.E.E.E.E.E.E.E.E.C $.$.h.p.h.h.h.h.h.h.h.h.h.h.p.7.7.p.p.f.} ^ g E.E.E.E.E.E.E.E.E.E.E.E.E.E.E.E.E.E.E.E.",
"E.E.E.E.E.E.E.E.E.E.E.E.E.E.E.E.E.E.E.E.E.S $.z.G.G.G.G.G.G.G.G.G.G.G.G.G.F.F.F.F.V.6.%.k E.E.E.E.E.E.E.E.E.E.E.E.E.E.E.E.E.E.E.E.",
"E.E.E.E.E.E.E.E.E.E.E.E.E.E.E.E.E.E.E.E.E.C #.k.F.G.J.J.K.J.J.J.J.K.J.G.G.F.F.D.D.S.0.%.h E.E.E.E.E.E.E.E.E.E.E.E.E.E.E.E.E.E.E.E.",
"E.E.E.E.E.E.E.E.E.E.E.E.E.E.E.E.E.E.E.E.E.C +.z.G.J.G.z.h.h.z.z.z.h.h.h.h.h.h.m.B.V.8.%.x E.E.E.E.E.E.E.E.E.E.E.E.E.E.E.E.E.E.E.E.",
"E.E.E.E.E.E.E.E.E.E.E.E.E.E.E.E.E.E.E.E.E.C +.z.G.J.B.X X X X X X X X     X X $.B.M.6.%.h E.E.E.E.E.E.E.E.E.E.E.E.E.E.E.E.E.E.E.E.",
"E.E.E.E.E.E.E.E.E.E.E.E.E.E.E.E.E.E.E.E.E.n [ z.G.J.m.X s x J x x x x x J x ; [ B.n.5.%.k E.E.E.E.E.E.E.E.E.E.E.E.E.E.E.E.E.E.E.E.",
"E.E.E.E.E.E.E.E.E.E.E.E.E.E.E.E.E.E.E.E.E.n [ z.G.J.m.* p.D.D.D.D.B.B.D.D.m.h [ B.n.5.%.x E.E.E.E.E.E.E.E.E.E.E.E.E.E.E.E.E.E.E.E.",
"E.E.E.E.E.E.E.E.E.E.E.E.E.E.E.E.E.E.E.E.E.C +.k.F.G.m.* p.F.F.F.B.B.B.B.B.z.s [ B.v.5.;.x E.E.E.E.E.E.E.E.E.E.E.E.E.E.E.E.E.E.E.E.",
"E.E.E.E.E.E.E.E.E.E.E.E.E.E.E.E.E.E.E.E.E.C +.h.F.G.m.* p.D.D.D.B.B.B.B.B.z.s [ B.v.5.;.x E.E.E.E.E.E.E.E.E.E.E.E.E.E.E.E.E.E.E.E.",
"E.E.E.E.E.E.E.E.E.E.E.E.E.E.E.E.E.E.E.E.E.C +.h.F.G.z.* p.D.D.B.B.B.B.m.B.z.s [ B.c.1.%.k E.E.E.E.E.E.E.E.E.E.E.E.E.E.E.E.E.E.E.E.",
"E.E.E.E.E.E.E.E.E.E.E.E.E.E.E.E.E.E.E.E.E.Z $.h.F.F.h.X p.D.B.B.B.B.B.m.m.z.s ~ m.x.1.%.h E.E.E.E.E.E.E.E.E.E.E.E.E.E.E.E.E.E.E.E.",
"E.E.E.E.E.E.E.E.E.E.E.E.E.E.E.E.E.E.E.E.E.C #.h.F.D.h.* p.D.B.B.B.B.m.m.m.z.s ~ m.x.1.%.x E.E.E.E.E.E.E.E.E.E.E.E.E.E.E.E.E.E.E.E.",
"E.E.E.E.E.E.E.E.E.E.E.E.E.E.E.E.E.E.E.E.E.N #.p.D.D.h.* 7.m.m.m.m.m.m.z.z.h.s ~ m.x.1.+.d E.E.E.E.E.E.E.E.E.E.E.E.E.E.E.E.E.E.E.E.",
"E.E.E.E.E.E.E.E.E.E.E.E.E.E.E.E.E.E.E.E.E.M #.p.D.D.h.* 7.m.m.m.m.m.m.z.z.h.s ~ m.x.1.%.h E.E.E.E.E.E.E.E.E.E.E.E.E.E.E.E.E.E.E.E.",
"E.E.E.E.E.E.E.E.E.E.E.E.E.E.E.E.E.E.E.E.E.n +.p.B.B.h.* 7.m.m.m.z.z.z.z.z.p.s ~ h.g.] %.x E.E.E.E.E.E.E.E.E.E.E.E.E.E.E.E.E.E.E.E.",
"E.E.E.E.E.E.E.E.E.E.E.E.E.E.E.E.E.E.E.E.E.p [ i.B.B.h.* 7.m.m.m.z.z.z.z.z.p.s ~ h.g.] %.x E.E.E.E.E.E.E.E.E.E.E.E.E.E.E.E.E.E.E.E.",
"E.E.E.E.E.E.E.E.E.E.E.E.E.E.E.E.E.E.E.E.E.N +.p.B.B.p.* 7.m.z.z.z.z.z.h.z.p.s ~ p.t.] =.h E.E.E.E.E.E.E.E.E.E.E.E.E.E.E.E.E.E.E.E.",
"E.E.E.E.E.E.E.E.E.E.E.E.E.E.E.E.E.E.E.E.E.Z #.p.B.m.p.X 7.m.z.z.z.z.z.h.h.p.s ~ p.0.] ;.x E.E.E.E.E.E.E.E.E.E.E.E.E.E.E.E.E.E.E.E.",
"E.E.E.E.E.E.E.E.E.E.E.E.E.E.E.E.E.E.E.E.E.C +.p.m.m.p.* 7.z.z.z.z.z.h.h.h.p.s ~ p.9.' %.h E.E.E.E.E.E.E.E.E.E.E.E.E.E.E.E.E.E.E.E.",
"E.E.E.E.E.E.E.E.E.E.E.E.E.E.E.E.E.E.E.E.E.n ^ 7.z.z.p.* $.h.h.h.h.h.h.h.h.p.s ~ p.6.U %.h E.E.E.E.E.E.E.E.E.E.E.E.E.E.E.E.E.E.E.E.",
"E.E.E.E.E.E.E.E.E.E.E.E.E.E.E.E.E.E.E.E.E.n ^ 7.z.z.p.* $.h.h.h.h.h.h.h.h.p.s ~ p.6.U %.h E.E.E.E.E.E.E.E.E.E.E.E.E.E.E.E.E.E.E.E.",
"E.E.E.E.E.E.E.E.E.E.E.E.E.E.E.E.E.E.E.E.E.n [ 7.z.z.p.; $.h.h.h.p.7.p.p.p.7.h ~ p.6.U %.s E.E.E.E.E.E.E.E.E.E.E.E.E.E.E.E.E.E.E.E.",
"E.E.E.E.E.E.E.E.E.E.E.E.E.E.E.E.E.E.E.E.E.n [ i.z.l.p.; $.h.p.p.p.7.7.p.7.7.h ~ p.6.U %.s E.E.E.E.E.E.E.E.E.E.E.E.E.E.E.E.E.E.E.E.",
"E.E.E.E.E.E.E.E.E.E.E.E.E.E.E.E.E.E.E.E.E.p +.a.N.A.:.: 8 s h h s s s s s 8 * ~ p.1.R *.x E.E.E.E.E.E.E.E.E.E.E.E.E.E.E.E.E.E.E.E.",
"E.E.E.E.E.E.E.E.E.E.E.E.E.E.E.E.E.E.E.E.E.p +.>.p.d.s./ 4.$.[ [ [ [ [ [ [ $.$.p.p.,.' %.h E.E.E.E.E.E.E.E.E.E.E.E.E.E.E.E.E.E.E.E.",
"E.E.E.E.E.E.E.E.E.E.E.E.E.E.E.E.E.E.E.E.E.n [ ! P.U.L.H.m.z.m.m.m.m.B.B.B.m.m.h.$.1.' %.h E.E.E.E.E.E.E.E.E.E.E.E.E.E.E.E.E.E.E.E.",
"E.E.E.E.E.E.E.E.E.E.E.E.E.E.E.E.E.E.E.E.E.n ) Q T.R.Y.I.j.7.p.p.p.p.p.$.$.$.$.7.$.' R =.h E.E.E.E.E.E.E.E.E.E.E.E.E.E.E.E.E.E.E.E.",
"E.E.E.E.E.E.E.E.E.E.E.E.E.E.E.E.E.E.E.E.E.M [ ] C.Z.w.U D ~ ~ [ [ [ ~ K K J K $.$.W R &.h E.E.E.E.E.E.E.E.E.E.E.E.E.E.E.E.E.E.E.E.",
"E.E.E.E.E.E.E.E.E.E.E.E.E.E.E.E.E.E.E.E.E.C +.#.3.7.[ X = % = = = = = = = = = K { T ` O.f E.E.E.E.E.E.E.E.E.E.E.E.E.E.E.E.E.E.E.E.",
"E.E.E.E.E.E.E.E.E.E.E.E.E.E.E.E.E.E.E.E.E.Z $.$.7.7.[ X b ) ) { { { ) K ) ) 9 K { Y ` O.b E.E.E.E.E.E.E.E.E.E.E.E.E.E.E.E.E.E.E.E.",
"E.E.E.E.E.E.E.E.E.E.E.E.E.E.E.E.E.E.E.E.E.n +.$.7.7.[ * ) -.-.-.-.-.{ { { -.9 K { Y T  .j E.E.E.E.E.E.E.E.E.E.E.E.E.E.E.E.E.E.E.E.",
"E.E.E.E.E.E.E.E.E.E.E.E.E.E.E.E.E.E.E.E.E.n [ =.7.7.[ * K { ) ) ) ) ) ) { -.f K { Y T  .v E.E.E.E.E.E.E.E.E.E.E.E.E.E.E.E.E.E.E.E.",
"E.E.E.E.E.E.E.E.E.E.E.E.E.E.E.E.E.E.E.E.E.n +.$.$.p.[ X > 8 > ; 8 9 9 9 8 > > K { Y T X.b E.E.E.E.E.E.E.E.E.E.E.E.E.E.E.E.E.E.E.E.",
"E.E.E.E.E.E.E.E.E.E.E.E.E.E.E.E.E.E.E.E.E.C +.[ [ $.7.h.m.m.m.m.m.B.B.B.B.m.m.h.[ F T O.j E.E.E.E.E.E.E.E.E.E.E.E.E.E.E.E.E.E.E.E.",
"E.E.E.E.E.E.E.E.E.E.E.E.E.E.E.E.E.E.E.E.E.C +.[ [ [ 7.p.7.7.7.7.$.$.$.$.$.$.$.$.[ H T ..j E.E.E.E.E.E.E.E.E.E.E.E.E.E.E.E.E.E.E.E.",
"E.E.E.E.E.E.E.E.E.E.E.E.E.E.E.E.E.E.E.E.E.C #.$.[ [ $.$.[ [ [ [ [ [ [ [ [ [ [ [ L B T  .j E.E.E.E.E.E.E.E.E.E.E.E.E.E.E.E.E.E.E.E.",
"E.E.E.E.E.E.E.E.E.E.E.E.E.E.E.E.E.E.E.E.E.Z $.$.[ [ p.J x J J J J J J J J x J [ [ H T  .j E.E.E.E.E.E.E.E.E.E.E.E.E.E.E.E.E.E.E.E.",
"E.E.E.E.E.E.E.E.E.E.E.E.E.E.E.E.E.E.E.E.E.C +.$.{ $.{ . = % % % X X X X X % % J ) H H o.h E.E.E.E.E.E.E.E.E.E.E.E.E.E.E.E.E.E.E.E.",
"E.E.E.E.E.E.E.E.E.E.E.E.E.E.E.E.E.E.E.E.E.C +.-.{ -.{ > ) K K K J J J J K ) f K ) V G =.x E.E.E.E.E.E.E.E.E.E.E.E.E.E.E.E.E.E.E.E.",
"E.E.E.E.E.E.E.E.E.E.E.E.E.E.E.E.E.E.E.E.E.M +.@._ { ) = ) ) ) ) ~ ~ ~ ~ ~ ) 9 b ) V G %.h E.E.E.E.E.E.E.E.E.E.E.E.E.E.E.E.E.E.E.E.",
"E.E.E.E.E.E.E.E.E.E.E.E.E.E.E.E.E.E.E.E.E.n [ { ) ) ) = ) ) ) ) ~ ~ ~ ~ ~ K f b ) B H %.x E.E.E.E.E.E.E.E.E.E.E.E.E.E.E.E.E.E.E.E.",
"E.E.E.E.E.E.E.E.E.E.E.E.E.E.E.E.E.E.E.E.E.n [ { ) ) ) = K ) ) ) ~ ~ P P P K r b ) B H %.x E.E.E.E.E.E.E.E.E.E.E.E.E.E.E.E.E.E.E.E.",
"E.E.E.E.E.E.E.E.E.E.E.E.E.E.E.E.E.E.E.E.E.C +.{ ) ) ) % x ~ ~ ~ T Y Y V V V e z T M H %.x E.E.E.E.E.E.E.E.E.E.E.E.E.E.E.E.E.E.E.E.",
"E.E.E.E.E.E.E.E.E.E.E.E.E.E.E.E.E.E.E.E.E.C +.{ ) ) ) % x ~ ~ ~ T Y Y V V V e z Y M H %.x E.E.E.E.E.E.E.E.E.E.E.E.E.E.E.E.E.E.E.E.",
"E.E.E.E.E.E.E.E.E.E.E.E.E.E.E.E.E.E.E.E.E.M [ [ ) ) ) % x ~ ~ ~ H Y Y V V V 2 z Y M H %.l E.E.E.E.E.E.E.E.E.E.E.E.E.E.E.E.E.E.E.E.",
"E.E.E.E.E.E.E.E.E.E.E.E.E.E.E.E.E.E.E.E.E.n ^ [ ) ) ) * ~ [ ~ J T E E E Y Y e z Y M H %.k E.E.E.E.E.E.E.E.E.E.E.E.E.E.E.E.E.E.E.E.",
"E.E.E.E.E.E.E.E.E.E.E.E.E.E.E.E.E.E.E.E.E.I ^ ~ R H H + 6 6 0 q 7 2 2 2 2 - - V Y M G ( J E.E.E.E.E.E.E.E.E.E.E.E.E.E.E.E.E.E.E.E.",
"E.E.E.E.E.E.E.E.E.E.E.E.E.E.E.E.E.E.E.E.E.u.~ G I C W <.9.9.9.9.6.q.q.q.q.y.2.| Y M G ( z.E.E.E.E.E.E.E.E.E.E.E.E.E.E.E.E.E.E.E.E.",
"E.E.E.E.E.E.E.E.E.E.E.E.E.E.E.E.E.E.E.E.E.x.J G I C I 9.9.9.9.9.e.q.q.q.q.q.q.| Y M B ( j.E.E.E.E.E.E.E.E.E.E.E.E.E.E.E.E.E.E.E.E.",
"E.E.E.E.E.E.E.E.E.E.E.E.E.E.E.E.E.E.E.E.E.b.~ G N C n n n n C C B z z z z z z V V M C %.j.E.E.E.E.E.E.E.E.E.E.E.E.E.E.E.E.E.E.E.E.",
"E.E.E.E.E.E.E.E.E.E.E.E.E.E.E.E.E.E.E.E.E.r.h 6 # # # # # # < < & @ @ O O O O @ @ $ 1 c 8.E.E.E.E.E.E.E.E.E.E.E.E.E.E.E.E.E.E.E.E.",
"E.E.E.E.E.E.E.E.E.E.E.E.E.E.E.E.E.E.E.E.E.E.E.E.E.E.E.E.E.E.E.E.E.E.E.E.E.E.E.E.E.E.E.E.E.E.E.E.E.E.E.E.E.E.E.E.E.E.E.E.E.E.E.E.E.",
"E.E.E.E.E.E.E.E.E.E.E.E.E.E.E.E.E.E.E.E.E.E.E.E.E.E.E.E.E.E.E.E.E.E.E.E.E.E.E.E.E.E.E.E.E.E.E.E.E.E.E.E.E.E.E.E.E.E.E.E.E.E.E.E.E.",
"E.E.E.E.E.E.E.E.E.E.E.E.E.E.E.E.E.E.E.E.E.E.E.E.E.E.E.E.E.E.E.E.E.E.E.E.E.E.E.E.E.E.E.E.E.E.E.E.E.E.E.E.E.E.E.E.E.E.E.E.E.E.E.E.E.",
"E.E.E.E.E.E.E.E.E.E.E.E.E.E.E.E.E.E.E.E.E.E.E.E.E.E.E.E.E.E.E.E.E.E.E.E.E.E.E.E.E.E.E.E.E.E.E.E.E.E.E.E.E.E.E.E.E.E.E.E.E.E.E.E.E.",
"E.E.E.E.E.E.E.E.E.E.E.E.E.E.E.E.E.E.E.E.E.E.E.E.E.E.E.E.E.E.E.E.E.E.E.E.E.E.E.E.E.E.E.E.E.E.E.E.E.E.E.E.E.E.E.E.E.E.E.E.E.E.E.E.E."
};
