/* XPM */
static char *result[] = {
/* columns rows colors chars-per-pixel */
"65 65 220 2 ",
"   c #0E0E0D",
".  c #0F0D07",
"X  c #100E0B",
"o  c #1B140E",
"O  c #131609",
"+  c #0D0D12",
"@  c #100F13",
"#  c #131212",
"$  c #1A1613",
"%  c #251B0C",
"&  c #2B1D0B",
"*  c #241707",
"=  c #251913",
"-  c #281D17",
";  c #341F14",
":  c #2D220D",
">  c #33240E",
",  c #342A0D",
"<  c #3B2D0E",
"1  c #2D2213",
"2  c #2E271A",
"3  c #332515",
"4  c #352911",
"5  c #3B2C16",
"6  c #3A2E1A",
"7  c #36291A",
"8  c #3D3316",
"9  c #3A3115",
"0  c #43330E",
"q  c #4D3A0D",
"w  c #533F0D",
"e  c #432E17",
"r  c #433414",
"t  c #4C3C15",
"y  c #43341A",
"u  c #4C3E1C",
"i  c #453918",
"p  c #523F14",
"a  c #453726",
"s  c #543C22",
"d  c #4F430A",
"f  c #54430D",
"g  c #594B0C",
"h  c #5F510D",
"j  c #4F4218",
"k  c #534212",
"l  c #544A14",
"z  c #5C4C13",
"x  c #53441C",
"c  c #544A1D",
"v  c #5B4D1B",
"b  c #5A4619",
"n  c #5F5219",
"m  c #614E0E",
"M  c #62540C",
"N  c #6B5B0D",
"B  c #68550C",
"V  c #624C17",
"C  c #625313",
"Z  c #6E5D13",
"A  c #6B571A",
"S  c #6D5C1B",
"D  c #665716",
"F  c #72610F",
"G  c #6F6115",
"H  c #6E631E",
"J  c #746415",
"K  c #7A6717",
"L  c #7A6A15",
"P  c #73611D",
"I  c #7C6C1C",
"U  c #7A6719",
"Y  c #7F711B",
"T  c #4D4325",
"R  c #544523",
"E  c #554A22",
"W  c #5B4B24",
"Q  c #5C4D2C",
"!  c #574629",
"~  c #5C5324",
"^  c #5F5028",
"/  c #5A4A35",
"(  c #5D563B",
")  c #624E2A",
"_  c #654D26",
"`  c #63532B",
"'  c #6B562B",
"]  c #6B5C2B",
"[  c #675927",
"{  c #715F2E",
"}  c #645432",
"|  c #6A5B34",
" . c #6B5D3A",
".. c #655838",
"X. c #715F39",
"o. c #7B6B25",
"O. c #6D6234",
"+. c #736438",
"@. c #746C3E",
"#. c #796638",
"$. c #715F40",
"%. c #716143",
"&. c #7C6C45",
"*. c #7D6C4A",
"=. c #776949",
"-. c #796E4E",
";. c #837315",
":. c #8D7D15",
">. c #83731B",
",. c #8B7B1D",
"<. c #89751A",
"1. c #927F1D",
"2. c #917E16",
"3. c #8A7B25",
"4. c #857629",
"5. c #937D20",
"6. c #8B7834",
"7. c #84723A",
"8. c #85724C",
"9. c #887748",
"0. c #927D4E",
"q. c #8D7A53",
"w. c #867955",
"e. c #8F801D",
"r. c #94841B",
"t. c #99861B",
"y. c #96891B",
"u. c #9B8C1D",
"i. c #968617",
"p. c #9F921E",
"a. c #A08F1E",
"s. c #A3921E",
"d. c #A99A1F",
"f. c #8E8324",
"g. c #968422",
"h. c #998622",
"j. c #9D8C22",
"k. c #91842C",
"l. c #948B29",
"z. c #9B8B2B",
"x. c #998826",
"c. c #9F9021",
"v. c #9D932C",
"b. c #968C35",
"n. c #A08D23",
"m. c #A28E2C",
"M. c #A49422",
"N. c #A89625",
"B. c #AC9B24",
"V. c #A3942B",
"C. c #A9972C",
"Z. c #AC9D29",
"A. c #B09F29",
"S. c #A59737",
"D. c #ADA129",
"F. c #B2A225",
"G. c #B8A625",
"H. c #B2A22A",
"J. c #BBAB2B",
"K. c #B7A82A",
"L. c #BCB12E",
"P. c #AFA236",
"I. c #B7AB30",
"U. c #BCAB32",
"Y. c #B8A737",
"T. c #BDB235",
"R. c #BAB13A",
"E. c #C2B433",
"W. c #C8B736",
"Q. c #C4B43A",
"!. c #C5B93B",
"~. c #CABC3C",
"^. c #978547",
"/. c #8E8059",
"(. c #978252",
"). c #A49946",
"_. c #A28B5C",
"`. c #A18857",
"'. c #B2A649",
"]. c #B2A34D",
"[. c #988A62",
"{. c #8D8366",
"}. c #A38E69",
"|. c #A89367",
" X c #A09977",
".X c #B9AE64",
"XX c #CCBD44",
"oX c #C7B846",
"OX c #C5BC5B",
"+X c #C4B954",
"@X c #C5BA65",
"#X c #CDC244",
"$X c #CDC44B",
"%X c #D2C64B",
"&X c #D5CA4F",
"*X c #CDC856",
"=X c #D5CB53",
"-X c #D6CB59",
";X c #D7D155",
":X c #CCC167",
">X c #D5CF63",
",X c #D6CA66",
"<X c #DAD363",
"1X c #DBD368",
"2X c #D3C977",
"3X c #D7D27B",
"4X c #DCD675",
"5X c #E2DA7F",
"6X c #C2BB8C",
"7X c #C0BC9B",
"8X c #DED983",
"9X c #DED988",
"0X c #DFD895",
"qX c #CFC68E",
"wX c #E2D885",
"eX c #E3D787",
"rX c #E2DD9A",
"tX c #CEC8A5",
"yX c #E3DDA0",
"uX c None",
/* pixels */
"uXuXuXuXuXuXuXuXuXuXuXuXuXuXuXuXuXuXuXuXuXuXuXuXuXuXuXuXuXuXuXuXuXuXuXuXuXuX@XP.C.).uXuXuXuXuXuXuXuXuXuXuXuXuXuXuXuXuXuXuXuXuXuXuX",
"uXuXuXuXuXuXuXuXuXuXuXuXuXuXuXuXuXuXuXuXuXuXuXuXuXuXuXuXuXuXuXuXuXuXuXuXuXOXR.U.G.P.S.uXuXuXuXuXuXuXuXuXuXuXuXuXuXuXuXuXuXuXuXuXuX",
"uXuXuXuXuXuXuXuXuXuXuXuXuXuXuXuXuXuXuXuXuXuXuXuXuXuXuXuXuXuXuXuXuXuXuXuX:XoXU.U.Y.G.H.Z.).uXuXuXuXuXuXuXuXuXuXuXuXuXuXuXuXuXuXuXuX",
"uXuXuXuXuXuXuXuXuXuXuXuXuXuXuXuXuXuXuXuXuXuXuXuXuXuXuXuXuXuXuXuXuXuXuX,X#X!.Q.U.I.I.K.B.l.uXuXuXuXuXuXuXuXuXuXuXuXuXuXuXuXuXuXuXuX",
"uXuXuXuXuXuXuXuXuXuXuXuXuXuXuXuXuXuXuXuXuXuXuXuXuXuXuXuXuXuXuXuXuXuX3X*X#X!.T.L.I.D.M.i.g.k.uXuXuXuXuXuXuXuXuXuXuXuXuXuXuXuXuXuXuX",
"uXuXuXuXuXuXuXuXuXuXuXuXuXuXuXuXuXuXuXuXuXuXuXuXuXuXuXuXuXuXuXuXuX3X-X$XXX!.T.I.M.y.i.r.r.x.k.uXuXuXuXuXuXuXuXuXuXuXuXuXuXuXuXuXuX",
"uXuXuXuXuXuXuXuXuXuXuXuXuXuXuXuXuXuXuXuXuXuXuXuXuXuXuXuXuXuXuXuX3X>X&X#X~.!.H.c.r.f.e.r.r.t.k.uXuXuXuXuXuXuXuXuXuXuXuXuXuXuXuXuXuX",
"uXuXuXuXuXuXuXuXuXuXuXuXuXuXuXuXuXuXuXuXuXuXuXuXuXuXuXuXuXuXuX9X-X&X$X#X!.D.c.y.y.r.r.r.r.u.u.k.uXuXuXuXuXuXuXuXuXuXuXuXuXuXuXuXuX",
"uXuXuXuXuXuXuXuXuXuXuXuXuXuXuXuXuXuXuXuXuXuXuXuXuXuXuXuXuXuXrX,X=X&X#X~.K.N.n.u.y.i.r.i.g.t.u.l.uXuXuXuXuXuXuXuXuXuXuXuXuXuXuXuXuX",
"uXuXuXuXuXuXuXuXuXuXuXuXuXuXuXuXuXuXuXuXuXuXuXuXuXuXuXuXuXrX5X;X=X%XXXK.B.N.u.u.y.i.r.r.r.u.n.M.l.uXuXuXuXuXuXuXuXuXuXuXuXuXuXuXuX",
"uXuXuXuXuXuXuXuXuXuXuXuXuXuXuXuXuXuXuXuXuXuXuXuXuXuXuXuXyXwX<X;X=XXXU.d.B.a.u.i.y.h.r.i.u.u.M.N.V.uXuXuXuXuXuXuXuXuXuXuXuXuXuXuXuX",
"uXuXuXuXuXuXuXuXuXuXuXuXuXuXuXuXuXuXuXuXuXuXuXuXuXuXrXrX5X1X-X;X%XU.s.B.N.u.i.i.c.u.y.u.s.N.B.F.d.l.uXuXuXuXuXuXuXuXuXuXuXuXuXuXuX",
"uXuXuXuXuXuXuXuXuXuXuXuXuXuXuXuXuXuXuXuXuXuXuXuXuX0XeXeX5X<X;XXXQ.M.s.B.s.t.t.t.u.u.p.N.D.B.F.F.c.o.uXuXuXuXuXuXuXuXuXuXuXuXuXuXuX",
"uXuXuXuXuXuXuXuXuXuXuXuXuXuXuXuXuXuXuXuXuXuXuXuXuX9X5XwX1X<X&X~.Z.n.B.A.M.u.1.t.u.d.B.F.G.J.D.v.H 9 uXuXuXuXuXuXuXuXuXuXuXuXuXuXuX",
"uXuXuXuXuXuXuXuXuXuXuXuXuXuXuXuXuXuXuXuXuXuXuXuXuX9X5XwX1X-X~.B.a.M.B.A.N.u.1.a.B.D.F.J.J.d.f.i O uXuXuXuXuXuXuXuXuXuXuXuXuXuXuXuX",
"uXuXuXuXuXuXuXuXuXuXuXuXuXuXuXuXuXuXuXuXuXuXuXuXuXuX9XwX,XoXA.s.M.d.A.F.M.2.t.N.F.K.L.J.B.H %   uXuXuXuXuXuXuXuXuXuXuXuXuXuXuXuXuX",
"uXuXuXuXuXuXuXuXuXuXuXuXuXuXuXuXuXuXuXuXuXuXuXuXuXuX0XeX+XN.a.a.a.M.B.H.u.r.s.F.K.J.U.v.c $ + # uXuXuXuXuXuXuXuXuXuXuXuXuXuXuXuXuX",
"uXuXuXuXuXuXuXuXuXuXuXuXuXuXuXuXuXuXuXuXuXuXuXuXuXuXrX@X5.2.i.t.h.j.N.N.i.u.D.J.L.L.z.i   + + uXuXuXuXuXuXuXuXuXuXuXuXuXuXuXuXuXuX",
"uXuXuXuXuXuXuXuXuXuXuXuXuXuXuXuXuXuXuXuXuXuXuXuXuXuXuX).2.2.:.:.r.t.n.t.i.n.K.J.J.r.8 X     # uXuXuXuXuXuXuXuXuXuXuXuXuXuXuXuXuXuX",
"uXuXuXuXuXuXuXuXuXuXuXuXuXuXuXuXuXuXuXuXuXuXuXuXuXuXuX^.3.,.:.,.:.r.1.1.t.N.K.J.k.8 .     + uXuXuXuXuXuXuXuXuXuXuXuXuXuXuXuXuXuXuX",
"uXuXuXuXuXuXuXuXuXuXuXuXuXuXuXuXuXuXuXuXuXuXuXuXuXuXuX.Xk.Y L I ;.<.>.:.u.F.K.y.c $       uXuXuXuXuXuXuXuXuXuXuXuXuXuXuXuXuXuXuXuX",
"uXuXuXuXuXuXuXuXuXuXuXuXuXuXuXuXuXuXuXuXuXuXuXuXuXuX:XR.V.Y H P Z N Z J >.r.r.n 2 O     uXuXuXuXuXuXuXuXuXuXuXuXuXuXuXuXuXuXuXuXuX",
"uXuXuXuXuXuXuXuXuXuXuXuXuXuXuXuXuXuXuXuXuXuXuXuXuX.XR.I.D.f.G h f b v l z H n 6 #   + # uXuXuXuXuXuXuXuXuXuXuXuXuXuXuXuXuXuXuXuXuX",
"uXuXuXuXuXuXuXuXuXuXuXuXuXuXuXuXuXuXuXuXuXuXuXuXOXI.K.H.Z.,.G G f r , , , j j 8 = # uXuXuXuXuXuXuXuXuXuXuXuXuXuXuXuXuXuXuXuXuXuXuX",
"uXuXuXuXuXuXuXuXuXuXuXuXuXuXuXuXuXuXuXuXuXuXuX+XT.H.N.M.h.N L J C k r > & uXuXuXuXuXuXuXuXuXuXuXuXuXuXuXuXuXuXuXuXuXuXuXuXuXuXuXuX",
"uXuXuXuXuXuXuXuXuXuXuXuXuXuXuXuXuXuXuXuXuXuX$XT.F.h.<.;.B N >.G M f f t 4 uXuXuXuXuXuXuXuXuXuXuXuXuXuXuXuXuXuXuXuXuXuXuXuXuXuXuXuX",
"uXuXuXuXuXuXuXuXuXuXuXuXuXuXuXuXuXuXuXuXuX*XQ.B.:.J B h z G Y N C h v p uXuXuXuXuX..uXuXuXuXuXuXuXuXuXuXuXuXuXuXuXuXuXuXuXuXuXuXuX",
"uXuXuXuXuXuXuXuXuXuXuXuXuXuXuXuXuXuXuXuX-X#XA.J M z f d h L L M z z x y T uX%.| [ [ O.uXuXuXuXuXuXuXuXuXuXuXuXuXuXuXuXuXuXuXuXuXuX",
"uXuXuXuXuXuXuXuXuXuXuXuXuXuXuXuXuXuXuXuX*X~.M.M v q t f h G J h g z i y ~ @.] ] [ c r uXuXuXuXuXuXuXuXuXuXuXuXuXuXuXuXuXuXuXuXuXuX",
"uXuXuXuXuXuXuXuXuXuXuXuXuXuXuXuXuXuXuXuX$XW.V.H ' q f f h M h z k j R ` ] @.7.~ r 8 R uXuXuXuXuXuXuXuXuXuXuXuXuXuXuXuXuXuXuXuXuXuX",
"uXuXuXuXuXuXuXuXuXuXuXuXuXuXuXuXuXuXuX2X$XW.M.C < < t c l l i 8 c ~ ` &.+.8.&.Q / ~ @.uXuXuXuXuXuXuXuXuXuXuXuXuXuXuXuXuXuXuXuXuXuX",
"uXuXuXuXuXuXuXuXuXuXuXuXuXuXuXuXuXuXuX2X%XW.p.h a 7 1 3 : , r E ~ c r y } | Q a ( E [ -.uXuXuXuXuXuXuXuXuXuXuXuXuXuXuXuXuXuXuXuXuX",
"uXuXuXuXuXuXuXuXuXuXuXuXuXuXuXuXuXuXtX:XXXE.j.z & 3 6 : j &.! r 1 % o 1 a 8 4 uXuXuX..@.uXuXuXuXuXuXuXuXuXuXuXuXuXuXuXuXuXuXuXuXuX",
"uXuXuXuXuXuXuXuXuXuXuXuXuXuXuXuXuXuX6XOXXXE.5.V < o 4 Q O.W > & 1 uXuX$ o uXuXuXuXuX .( uXuXuXuXuXuXuXuXuXuXuXuXuXuXuXuXuXuXuXuXuX",
"uXuXuXuXuXuXuXuXuXuXuXuXuXuXuXuXuXtX6XOXXXE.g.m r : % | R * 0 u i uXuXuXuXuXuXuXuXuXuXuXuXuXuXuXuXuXuXuXuXuXuXuXuXuXuXuXuXuXuXuXuX",
"uXuXuXuXuXuXuXuXuXuXuXuXuXuXuXuXuX7XqXOXQ.J.m.>.x 4 % ..Q j g f 9 uXuXuXuXuXuXuXuXuXuXuXuXuXuXuXuXuXuXuXuXuXuXuXuXuXuXuXuXuXuXuXuX",
"uXuXuXuXuXuXuXuXuXuXuXuXuXuXuXuXuX XqX+XY.C.x.x.6.y : ..E z f t 6 uXuXuXuXuXuXuXuXuXuXuXuXuXuXuXuXuXuXuXuXuXuXuXuXuXuXuXuXuXuXuXuX",
"uXuXuXuXuXuXuXuXuXuXuXuXuXuXuXuXuXuX}.].m.5.5.5.z.^.Q E f z f 0 y uXuXuXuXuXuXuXuXuXuXuXuXuXuXuXuXuXuXuXuXuXuXuXuXuXuXuXuXuXuXuXuX",
"uXuXuXuXuXuXuXuXuXuXuXuXuXuXuXuXuXuX8.].m.m.n.m.3.o.! t h Z P w r uXuXuXuXuXuXuXuXuXuXuXuXuXuXuXuXuXuXuXuXuXuXuXuXuXuXuXuXuXuXuXuX",
"uXuXuXuXuXuXuXuXuXuXuXuXuXuXuXuXuXuXuX.X).b.6.7.{ , & x P >.K P V uXuXuXuXuXuXuXuXuXuXuXuXuXuXuXuXuXuXuXuXuXuXuXuXuXuXuXuXuXuXuXuX",
"uXuXuXuXuXuXuXuXuXuXuXuXuXuXuXuXuXuXuXuXuX&.' _ W y r f G >.F P D E uXuXuXuXuXuXuXuXuXuXuXuXuXuXuXuXuXuXuXuXuXuXuXuXuXuXuXuXuXuXuX",
"uXuXuXuXuXuXuXuXuXuXuXuXuXuXuXuXuXuXuXuXuX4.A [ V w w w C I Z B S z #.uXuXuXuXuXuXuXuXuXuXuXuXuXuXuXuXuXuXuXuXuXuXuXuXuXuXuXuXuXuX",
"uXuXuXuXuXuXuXuXuXuXuXuXuXuXuXuXuXuXuXuXuX'.m.,.I C D D D I I D Z K 4.uXuXuXuXuXuXuXuXuXuXuXuXuXuXuXuXuXuXuXuXuXuXuXuXuXuXuXuXuXuX",
"uXuXuXuXuXuXuXuXuXuXuXuXuXuXuXuXuXuXuXuXuX'.S.1.,.>.o.U J ;.3.<.;.o.k 4 uXuXuXuXuXuXuXuXuXuXuXuXuXuXuXuXuXuXuXuXuXuXuXuXuXuXuXuXuX",
"uXuXuXuXuXuXuXuXuXuXuXuXuXuXuXuXuXuXuXuXuXS.Y.v.:.<.<.,.,.>.P A V e = - uXuXuXuXuXuXuXuXuXuXuXuXuXuXuXuXuXuXuXuXuXuXuXuXuXuXuXuXuX",
"uXuXuXuXuXuXuXuXuXuXuXuXuXuXuXuXuXuXuXuXuX).Y.Y.m.3.o.W < & > u W ! a uXuXuXuXuXuXuXuXuXuXuXuXuXuXuXuXuXuXuXuXuXuXuXuXuXuXuXuXuXuX",
"uXuXuXuXuXuXuXuXuXuXuXuXuXuXuXuXuXuXuXuXuXuXuXuXuXuXuX$ % = uXuXR ' &.uXuXuXuXuXuXuXuXuXuXuXuXuXuXuXuXuXuXuXuXuXuXuXuXuXuXuXuXuXuX",
"uXuXuXuXuXuXuXuXuXuXuXuXuXuXuXuXuXuXuXuXuXuXuXuXuXuXuX$ = ; uXuXX.{ ' uXuXuXuXuXuXuXuXuXuXuXuXuXuXuXuXuXuXuXuXuXuXuXuXuXuXuXuXuXuX",
"uXuXuXuXuXuXuXuXuXuXuXuXuXuXuXuXuXuXuXuXuXuXuXuXuXuXuX; ; 7 uXuXuX] W uXuXuXuXuXuXuXuXuXuXuXuXuXuXuXuXuXuXuXuXuXuXuXuXuXuXuXuXuXuX",
"uXuXuXuXuXuXuXuXuXuXuXuXuXuXuXuXuXuXuXuXuXuXuXuXuXuX} s e 3 uXuX .' E uXuXuXuXuXuXuXuXuXuXuXuXuXuXuXuXuXuXuXuXuXuXuXuXuXuXuXuXuXuX",
"uXuXuXuXuXuXuXuXuXuXuXuXuXuXuXuXuXuXuXuXuXuXuXuX&.Q s y 5 uXuXuX| [ ` uXuXuXuXuXuXuXuXuXuXuXuXuXuXuXuXuXuXuXuXuXuXuXuXuXuXuXuXuXuX",
"uXuXuXuXuXuXuXuXuXuXuXuXuXuXuXuXuXuXuXuXuXuX}.q.O.u 6 uXuXuXuXuX] [ } uXuXuXuXuXuXuXuXuXuXuXuXuXuXuXuXuXuXuXuXuXuXuXuXuXuXuXuXuXuX",
"uXuXuXuXuXuXuXuXuXuXuXuXuXuXuXuXuXuXuXuXuXq.$./ a uXuXuXuXuXuXuX_ _ } uXuXuXuXuXuXuXuXuXuXuXuXuXuXuXuXuXuXuXuXuXuXuXuXuXuXuXuXuXuX",
"uXuXuXuXuXuXuXuXuXuXuXuXuXuXuXuXuXuXuX/.$.! uXuXuXuXuXuXuXuXuXuX) _ uXuXuXuXuXuXuXuXuXuXuXuXuXuXuXuXuXuXuXuXuXuXuXuXuXuXuXuXuXuXuX",
"uXuXuXuXuXuXuXuXuXuXuXuXuXuXuXuX_._.w./ uXuXuXuXuXuXuXuXuXuXuXuX+.W uXuXuXuXuXuXuXuXuXuXuXuXuXuXuXuXuXuXuXuXuXuXuXuXuXuXuXuXuXuXuX",
"uXuXuXuXuXuXuXuXuXuXuXuXuXuXuX[.0.+.a uXuXuXuXuXuXuXuXuXuXuXuXuX8.` uXuXuXuXuXuXuXuXuXuXuXuXuXuXuXuXuXuXuXuXuXuXuXuXuXuXuXuXuXuXuX",
"uXuXuXuXuXuXuXuXuXuXuXuXuXuXuX*.#.! = uXuXuXuXuXuXuXuXuXuXuXuXuX&._ uXuXuXuXuXuXuXuXuXuXuXuXuXuXuXuXuXuXuXuXuXuXuXuXuXuXuXuXuXuXuX",
"uXuXuXuXuXuXuXuXuXuXuXuXuXuXuXuXX.) e uXuXuXuXuXuXuXuXuXuXuXuXuX&.` uXuXuXuXuXuXuXuXuXuXuXuXuXuXuXuXuXuXuXuXuXuXuXuXuXuXuXuXuXuXuX",
"uXuXuXuXuXuXuXuXuXuXuXuXuXuXuXuX8.) u uXuXuXuXuXuXuXuXuXuXuXuXuX*. .uXuXuXuXuXuXuXuXuXuXuXuXuXuXuXuXuXuXuXuXuXuXuXuXuXuXuXuXuXuXuX",
"uXuXuXuXuXuXuXuXuXuXuXuXuXuXuXuX=.} W uXuXuXuXuXuXuXuXuXuXuXuXuX8.*.uXuXuXuXuXuXuXuXuXuXuXuXuXuXuXuXuXuXuXuXuXuXuXuXuXuXuXuXuXuXuX",
"uXuXuXuXuXuXuXuXuXuXuXuXuXuXuXuXuX..) uXuXuXuXuXuXuXuXuXuXuXuXuX8.8.uXuXuXuXuXuXuXuXuXuXuXuXuXuXuXuXuXuXuXuXuXuXuXuXuXuXuXuXuXuXuX",
"uXuXuXuXuXuXuXuXuXuXuXuXuXuXuXuXuXuX$.uXuXuXuXuXuXuXuXuXuXuXuXuX8.0.|.uXuXuXuXuXuXuXuXuXuXuXuXuXuXuXuXuXuXuXuXuXuXuXuXuXuXuXuXuXuX",
"uXuXuXuXuXuXuXuXuXuXuXuXuXuXuXuXuXuXuXuXuXuXuXuXuXuXuXuXuXuXuXw.0.(._.|.uXuXuXuXuXuXuXuXuXuXuXuXuXuXuXuXuXuXuXuXuXuXuXuXuXuXuXuXuX",
"uXuXuXuXuXuXuXuXuXuXuXuXuXuXuXuXuXuXuXuXuXuXuXuXuXuXuXuXuXuXuX-.&.9.(.`.|.}.[.{.uXuXuXuXuXuXuXuXuXuXuXuXuXuXuXuXuXuXuXuXuXuXuXuXuX",
"uXuXuXuXuXuXuXuXuXuXuXuXuXuXuXuXuXuXuXuXuXuXuXuXuXuXuXuXuXuXuXuXuXuX%.8.q.&.-.-.uXuXuXuXuXuXuXuXuXuXuXuXuXuXuXuXuXuXuXuXuXuXuXuXuX"
};
