/* XPM */
static char *result[] = {
/* columns rows colors chars-per-pixel */
"65 65 230 2 ",
"   c #8A4628",
".  c #9B4D2C",
"X  c #934728",
"o  c #9E522F",
"O  c #954C35",
"+  c #9D4D33",
"@  c #954F3A",
"#  c #955332",
"$  c #9E5335",
"%  c #95543B",
"&  c #9C5D3C",
"*  c #99573C",
"=  c #8C5137",
"-  c #A44E26",
";  c #A54E2C",
":  c #AB4E2C",
">  c #AA4C27",
",  c #B14E2E",
"<  c #A65127",
"1  c #AA5127",
"2  c #A6522D",
"3  c #AC522D",
"4  c #B2522D",
"5  c #BA582E",
"6  c #A34E30",
"7  c #AA4E32",
"8  c #A24D38",
"9  c #B24E30",
"0  c #A45333",
"q  c #AC5432",
"w  c #AB5A34",
"e  c #A65639",
"r  c #AB563A",
"t  c #A5593B",
"y  c #AC5B3B",
"u  c #A75A36",
"i  c #B25433",
"p  c #BA5533",
"a  c #B35A35",
"s  c #BB5D35",
"d  c #B4563C",
"f  c #B35C3B",
"g  c #BB5C3C",
"h  c #BB573A",
"j  c #AE6137",
"k  c #AE613D",
"l  c #B26137",
"z  c #BC6337",
"x  c #B3623D",
"c  c #BB633D",
"v  c #BD6A3E",
"b  c #B76B3D",
"n  c #C35A2E",
"m  c #C35C34",
"M  c #C35D3B",
"N  c #CA5D3C",
"B  c #C36236",
"V  c #CD6536",
"C  c #CB6935",
"Z  c #C3633D",
"A  c #CA633C",
"S  c #C4693D",
"D  c #CC6A3D",
"F  c #C76E36",
"G  c #D26435",
"H  c #D2643B",
"J  c #D26B3C",
"K  c #DB6E3E",
"L  c #D16C35",
"P  c #CB713D",
"I  c #C7713A",
"U  c #DA703D",
"Y  c #9D5642",
"T  c #965C45",
"R  c #9C5C43",
"E  c #9B5C4B",
"W  c #945645",
"Q  c #A55D43",
"!  c #AD5D42",
"~  c #A65B47",
"^  c #B35D42",
"/  c #BB5D42",
"(  c #B45944",
")  c #9F6146",
"_  c #9D624A",
"`  c #976246",
"'  c #9D6150",
"]  c #A46243",
"[  c #AD6243",
"{  c #AF6A45",
"}  c #A3644B",
"|  c #AB634A",
" . c #AD694D",
".. c #A56849",
"X. c #B46443",
"o. c #BC6443",
"O. c #B46A45",
"+. c #BC6A45",
"@. c #B46449",
"#. c #BC654A",
"$. c #B46C4C",
"%. c #BC6C4B",
"&. c #B3704E",
"*. c #BC724C",
"=. c #BE7040",
"-. c #A46A53",
";. c #AD6954",
":. c #AC6B5A",
">. c #AB6652",
",. c #B46B54",
"<. c #BB6D52",
"1. c #B46D59",
"2. c #BA6C5C",
"3. c #B76751",
"4. c #AE715A",
"5. c #B57353",
"6. c #BC7354",
"7. c #BD7954",
"8. c #B5725C",
"9. c #BB735B",
"0. c #B67A5B",
"q. c #BC7A5C",
"w. c #B67851",
"e. c #B26F60",
"r. c #AE7461",
"t. c #B47461",
"y. c #BC7563",
"u. c #B77A60",
"i. c #BD7A64",
"p. c #BE7A69",
"a. c #C35E41",
"s. c #CA5E42",
"d. c #C36443",
"f. c #CA6442",
"g. c #C46A45",
"h. c #CA6B44",
"j. c #C3664A",
"k. c #CB664B",
"l. c #C36C4B",
"z. c #CB6C4C",
"x. c #D46641",
"c. c #D36C44",
"v. c #DA6C43",
"b. c #D46D4C",
"n. c #DB6D49",
"m. c #C37144",
"M. c #CD7345",
"N. c #C4734C",
"B. c #CB734C",
"V. c #C6794A",
"C. c #CC794E",
"Z. c #D37444",
"A. c #D2734B",
"S. c #DA764C",
"D. c #D4794C",
"F. c #DA784D",
"G. c #DB7142",
"H. c #C36750",
"J. c #C46D52",
"K. c #CB6D52",
"L. c #C96F59",
"P. c #D36E53",
"I. c #DA6F5B",
"U. c #C47353",
"Y. c #CB7453",
"T. c #C37A55",
"R. c #CC7A55",
"E. c #C4755A",
"W. c #CB755A",
"Q. c #C47B5B",
"!. c #CC7C5C",
"~. c #D27454",
"^. c #DC7651",
"/. c #D37A54",
"(. c #DC7B53",
"). c #D2755B",
"_. c #DA725C",
"`. c #D37B5B",
"'. c #DA7D5C",
"]. c #E06C43",
"[. c #E57B46",
"{. c #E47A4D",
"}. c #E5774A",
"|. c #E27B53",
" X c #E37A5C",
".X c #C27763",
"XX c #C47C64",
"oX c #CB7C62",
"OX c #C3766A",
"+X c #C27B6A",
"@X c #CB7D6A",
"#X c #CB7363",
"$X c #D07661",
"%X c #DD7562",
"&X c #D37B62",
"*X c #DB7D63",
"=X c #D37F68",
"-X c #E57764",
";X c #E47A63",
":X c #E57B69",
">X c #BF8162",
",X c #C5825E",
"<X c #CB815D",
"1X c #D4815C",
"2X c #DC835D",
"3X c #E1845E",
"4X c #C58264",
"5X c #CC8363",
"6X c #C5826A",
"7X c #CA826B",
"8X c #CD8B6C",
"9X c #CF8A65",
"0X c #D48264",
"qX c #DB8362",
"wX c #D18A66",
"eX c #D48369",
"rX c #DA866C",
"tX c #D68A6B",
"yX c #DB8A6C",
"uX c #D98966",
"iX c #D4916E",
"pX c #DE946B",
"aX c #CA8775",
"sX c #D58B72",
"dX c #DC8B72",
"fX c #DD8773",
"gX c #D19070",
"hX c #E28462",
"jX c #E28569",
"kX c None",
/* pixels */
"kXkXkXkX!.`.8XkXkXkXkXkXkXkXkXkXkXkXkXkXkXkXkXkXkXkXkXkXkXkXkXkXkXkXkXkXkXkXkXkXkXkXkXkXkXkXkXkXkXkXkXkXkXkXkXkXkXkXkX!.!.kXkXkXkX",
"kXkXkXoX`.).XXkXkXkXkXkXkXkXkXkXkXkXkXkXkXkXkXkXkXkXkXkXkXkXkXkXkXkXkXkXkXkXkXkXkXkXkXkXkXkXkXkXkXkXkXkXkXkXkXkXkXkX).R.R.).kXkXkX",
"kXkX!.).W.).`.oXkXkXkXkXkXkXkXkXkXkXkXkXkXkXkXkXkXkXkXkXkXkXkXkXkXkXkXkXkXkXkXkXkXkXkXkXkXkXkXkXkXkXkXkXkXkXkXkXkX&X).`.`./.&XkXkX",
"kX=X!.!.`./.).).=XkXkXkXkXkXkXkXkXkXkXkXkXkXkXkXkXkXkXkXkXkXkXkXkXkXkXkXkXkXkXkXkXkXkXkXkXkXkXkXkXkXkXkXkXkXkXkX=XR./.$X$X/.!.W.kX",
"W.W._.).Y.Q.5X!.`.7XkXkXkXkXkXkXkXkXkXkXkXkXkXkXkXkXkXkXkXkXkXkXkXkXkXkXkXkXkXkXkXkXkXkXkXkXkXkXkXkXkXkXkXkXkX#X).W.~.R.!.!.5X!.5X",
"M d.N Z c *.T.T.R..XkXkXkXkXkXkXkXkXkXkXkXkXkXkXkXkXkXkXkXkXkXkXkXkXkXkXkXkXkXkXkXkXkXkXkXkXkXkXkXkXkXkXkXkXkX/ j.s.f.B m.T.T.Q.U.",
"^ / c c g %.U.J.6.8.kXkXkXkXkXkXkXkXkXkXkXkXkXkXkXkXkXkXkXkXkXkXkXkXkXkXkXkXkXkXkXkXkXkXkXkXkXkXkXkXkXkXkXkXkX^ / / / / l.6.U.L.%.",
"f r ^ 9.9.q.0.w.7.N.Y ! ( @./ @.X.7.iXiXiXiX*.X.x k k T.pXpXpXpX<XQ.,XT.q.>X4X4X+X6XaXaXgXgXgX4XkXkXkXkXU.3.Y y y X.9.u.u.u.7.N.Y.",
"4 q X.6X7X6X4XT.F.h.  - > : : , : c 1X1X0XqXo.3 4 3 3 A 3X3X3XhXY.l.l.j.+.+.U.U.U.U.T.4X7X5X7XQ.Y.Y.Y.Y.o.g + ; 3 X.5X6X+X7XW./.F.",
"6 6 | u.u.9.7.%.V.b   ; ; ; ; ; 6 ! T.W.Q.XX[ 0 7 7 ; o.`.!.`.!.<.#.@.@.@.@.$.$.$.&.w.i.i.i.i.9.<.<.H.<.x u X + 6 ! i.u.0.9.*.h.h.",
"8.9.y.i.2.#.o.Z M f W 1.y.t.1.3.$.<.%.%.Y.R.U.N.g.g.h.A.M.h.Z.D.C.B.l.f ^ ( X.( t.y.p.p.9.oX0X5X`.R.l.l.k.o.Y ;.t.9.i.8.X.v d.B z ",
"u..X.Xy.5.g m m M a E 9.y.i.9.%.%.H.j.d.h.Y.R.B.B.h.G.U U J Z.D.D.D.M.a f d f ( y.OXp.t.E.`.2XqXqX/.d.f.f.Z * 1.OXp.p.2.5 m M M s ",
"1.1.1.1.,.^ g h g a W ;.1.,.,.@.^ @.;.,.<.<.%.l.+.S B S g.g.l.l.l.g.j.^ y y f f %.9.8.8.0.Q.T.E.U.U.o.o.X.f @ >.,.1.1.,.h M h m g ",
"o.o./ l.N.z.h.D h.S $ y y ^ o.c o.3.i.p.+XXX3.d.d.A d.c z.z.z.P.f.h.h.k.f.f.b.n.Z.b.Y.5X7XeX*XW.Y.P.Y.Y.f q O f o.o.J.J.B.l.S I P ",
"a g g g.g.l.g.c D B + a w p s a f $.u.t.y.y.#.o.d.a.a.o.g.d.g.j.o.d.A d.f.f.x.J K c.A.1X5X&X'.W.k.k.b.K.h > X w d g j.d.f.j.S S D ",
"o.o.#.%.<.<.<.*.*.O.% y b X.o.x ^ @.,.,.9.p.9.%.#.f / / c X.<.7.6.6.*.6.6.6.N.V.g.g.*.0.w.*.N.*.g.S d.g.o.f O [ o.#.l.%.,.<.1.%.%.",
"h.~.~.P.L.E.p..Xi.5.~ k.M.b.z.Z f.f.d.s.&XeXeXuX!.z m m V Z Q.5X9X5X,X<X<XwX9X!.N.U.U.U.*.F P D P C L U v.c.y %.~.b.P.l.y.p.p..Xy.",
"%.J.K.l.<.8.t.y.t.,.Y o.l.l.j./ / / M c E.oX!.5XE.g h h g ^ E.i.>Xi.q.Q.,X,X,XQ.6.*.w.&.%.B C S D Z J x.x.f.q #.K.K.K.j.8.t.t.q.t.",
"XXQ.*.j.j.#.#.H.Y.K.} 9.9.9.y.9.1.2.6.*.7.7.%.$.l.c / X.x x $.$.+.l.l.z.m.N.1X<X!.<XU.%.&.+.+.b +.*.l.l.l.7...0..X<.o.g.%.%.l.R.R.",
"7X5X%.A A f.s.c.[.S. .i.y.p.y.p.OX5.U.*.N.N.+.o.d.d.c f o.c c z s J H J J A.3X2X2X2Xm.g.l.l.l.+.z.h.z.h.6.Q.-.i.4Xz.d.A A D x.|.[.",
"q.q.,.^ f f f S M.g.E 1.8.8.8.8.4.,.&.$.5.,.@.^ ( #.f f ( x j j x Z A c +.l.!.!.R.R.%.o.o.o.X.o.g.+.%.#.<.9.} 8.q.$./ / f g d.M.Z.",
"<.<.<.l.+.w q w w 0 % %.%.<.%.o.g.g.h.h.Q.4X4X@XXXR.F././.C.m.V.C.M.M.T.oXXX4Xq.+.B S c l v m.v m.%.5X9X9XoX..$.*.%.#.o.w 3 q a 0 ",
"%.%.#.l.o.i 4 , i ; % @.%.H.o.A V V G L 4X6X7X7X@X/.{.|.|.^.A.D.D.S.B.oXXX4X+XQ.M m m m n C J C L D 2XyXyXeX .@.l.#.%.@.2 3 q i q ",
"[ ( @.,.$.] t 0 0 . = Q [ @.O.o.c z c B 0.q.q.i.E.B.B.z.N.N.%.+.+.B.U.q.q.w.;.$.q y d / X.o.+.d.S +.!.!.Q.9.E Q ! @.<.$.Q y e 0 0 ",
"q q l.yXsXiXtX+.i 0   2 a d.h.d.j.j.K.J.l.z.z././././.g.v v x v m.2XqXuXqXd.3 a 3 3 l l.L.l.l.N./.D.R.R.N.#.t 0 w +.yXyXyXyXg.w w ",
"1 < o.tXrXrXyXl.w -   - , N N f.M Z j.d.j.d.g.S.S.S.A.d.g f g f g.2X*X'.2Xc ; : > ; a j.k.d.S h.Z.Z.Z.M.+.#.$ $ ; o.tXtXsXrX%.3 i ",
"q w O.6.<.1.2.@.t 0   2 y c x %.l.U.U.6.%.%.l.l.m.N.U.*.O.O.k y X.*.*.U.T.+.k k f ( #.l.%.[ y [ X.k x j f y X e y @.U.<.1.2.O.e 0 ",
"A N Z f.M h g h / q + B A D d.'.uXhXhX'.A.b.b.P.M.M.D.D.D.B.f g g a a B.Y.Y.R.N.K K K v.D 4 q i i q 3 q 3 7 X g f.D f.d.g h ( g d ",
"M a.a.M g d d d d 7 O ( M M o.`.*X'.'.R.l.K.J.K.k.z.A.A.B.l.f d f i a l.U.J.6.%.f.J J J A 7 7 q q 7 7 ; ; ;   d a.a.d.M a ( d d q ",
").Y.B.Y.B.z.N.g.g.o.Q J.l.N.V.R.R.N.7.7.*.*.7.Q.Q.<XT.T.V.V.m.N.f u u w y f X.o.^ #.^ #.+.o.^ x +.m.m.l.y e O l.Y.l.B.B.U.B.d.j.g.",
";X X^.|.|.|.|.n.v.x.#.).A.^.^.F.D.m.N.U.Y.U.Y.qXeXeX0XR.S.^.F.F.s 4 , : 3 q d h g h h d.N s.f.g.F.S.S.F.s.( 8 I. X^.(.|.|.|.v.v.v.",
"W.$XP.~.C.M.B.g.d.c ~ L.K.Y.N.Y.B.*.w.5.w.<.9.Q.Q.Q.T.*.m.m.B.N.X.0 e 0 0 e y ( f ! ( X./ / ^ X.l.l.N.N.^ Q O L.).).~.~.B.A.d.d.A ",
"$X&X*X*X).f f f a e ~ W.'.&X!.&XuXwX9X4XQ.,X9X4X,X%.*.*.*.%.9XwXwX0XQ.w.N.U.7.6.!.Q.4X5XU.X.^ f ^ @.Q.XXi.8.} W.*X*X*X!.f a f f u ",
"_. X;X-XI.p : i i 7 ( I.-X-X%XfXdXdXsXeX=XqX0X0XC.+.g.g.+.l.&XyXrXfX=XN.Y.Y.E.E.oXeXeXeXoXd d ( h ^ Q.4XoXp.} P.;X;X-XI., 4 4 4 3 ",
"U.W.Y.Y.l.y w u y w R L.U.K.U.Q.Q.T.7.U.*.U.U.T.7.+.%.O.+.&.4X5X4X!.!.*.*.$.O.| %.w.7.U.%.f y y ( | 9.9.7.4.` U.W.Y.E.l.y t y y ! ",
"oX`.J.J.L.<.%.U.2X!.} U.N.l.l.m.B.c Z B B Z k.2X*X*X%X'.tXyXyXtX`.2X(.2X(.B 3 i q 3 5 V c.D J D D.D.S.R.E.i.-.E.!.H.J.J.J.N.N.0X2X",
"!.W.H.H.j.H.l.l.1X/.| U.l.j.h.g.j.M s n m n f._.%X-X_.&XrXrXtXtX'.F.^.^.(.M : : 7 : 5 N V H V D Z.Z.Z.Z.U..X-.E.W.j.#.l.l.g.z.'./.",
"X.O.[ ^ k O.O.$.*.O.= [ X.x f o.%.X.x c o.S l.Y.B.J.K.U.Y.T.R.Q.R.R.B.Y.T.%.O.O.} ] @.$.$.%.g.C.V.7.U.0.7.0.` Q X.X.[ k O.@.%.*.6.",
"3 i p i q o.l.l.j.^   r i p i d.z.z.k.z.{.{.{.{.S.b.P.b.b.b.^.|.|.(.(.'.qXqXqX&Xp.p.OXOXp.'.hXjXqXqX5X7X<X,X] 3 i p i i +.l.l.l.+.",
"- 3 ; 7 3 x o.o.o.f   6 3 3 0 o.g.j.#.g.Z.Z.Z.Z.A.h.k.z.z.g.C.D.~.~.R.!.`.!.!.T.1.t.9.8.2.!.1X`.1X/.T.Q.Q.7.& o < 3 7 q x o.+.c o.",
"z v o.U.Y.R.R.l.g.x # a +.7.7.Q.T.6.7.U.U.U.+.c +.v c w y w a j +.<X!.<X!.Q.,X,X>Xi.q.XXXX5X<X%.f x k ] %.T...l z +.Y.U.!.!.+.v S ",
"H x.b.-X-X;X-XP.D Z 3 A B.1X0X&X0XU.U.!.W.W.a./ s z g i 9 4 i : o.eX0X0X=X`.9X5X0X=X!.0X0X0XqXX.: i 3 3 j.'.%.A H b.-X;X;X;Xb.H H ",
"B S l.W.W.).).k.A z o g O.q.q.7.T.,.&.,.&.$.k w w y j e 0 0 ; ; X.E.E.T.T.7.7.T.Q.Q.E.Q.Q.Q.Q.O.0 0 2 2 X.U.k k B k.).).P.W.d.A Z ",
"5.E.Q.E.9.L.P.K.K.%.R 6.T.q.U.%.%.%.%.X.w w w 0 e l.Y.K.z.j.j.j.j.l.g.z.A.A.b.b.Q.4X5X5X,XoXqXqX1X/.R./.'.W.] $.q.E.E.U.K.Y.K.Y.l.",
"l.Y.Y.Y.l.J.P.b.b.f.t J.E.T.J.j.a.a.s.M : , , , , f.b.b.b.f.N f.Z Z Z D v.v.K v.,X7X5X5XoX0XqXqX3X XF.|.|.~.l %.U.U.N.%.b.b.b.b.k.",
"9.9.w.w.7.J.J.l.l.X.T 5.&.{ [ y f y x f q w q y x l.N.l.l.+.o.o.o.g.l.N.B.g.g.g.T.T.7.J.6.U.U.N.N.N.g.m.g.l.t <.E.6.7.w.6.6.*.+.l.",
"dXdX6X6XaX6X6Xq.L.<.:.=X+.q i i w a s M B M l.qXqX0XqXK.k.L.K.J.E.sXsXtXyX!.Y.R.R.W.#.^ / / h i d a p i y ^ t 7XsX6X6X6X7X7XU.U.N.",
"rXrX!.4XXX4XoX<.l.%.;.&X+.; : : i 4 m m n 5 h.'.1X'.'.z.j.g.l.g.W.tXyXqXyXY.m.B.Y.Y./ g d ^ d ; q i 4 3 q f $ 5XrXXX4X4XXXoX*.l.g.",
"Q.oX!.Q.Q.q.Q.T.T.,.} E.E.$.@.[ @.@.%.$.$.$.6.q.q.U.U.J.%.+.*.U.!.5X,XXX>Xq.0.5.! ^ y t 0 e e e 0 0 u j y t O E.&X#XQ.Q.q.Q.T.T.7.",
"*X:X:X:X'.qXqXhXhX`.( _.-X*X&X).`.`.`.Y.XX6X6X6XXXK.P.~.P.P.*XjXhXjX*X@X6X@X6Xq.i i i q ; 3 i p i i x o.v l % W.;X;X;X%X2XhXhXqX2X",
").).'.).~.`.1X1X1XU.Q Y.~.R.Y.U.U.E.E.U.E.q.q.q.7.l.k.g.l.j.`.1X`.`.R.Q.i.i.q.5.< < < < < < 3 2 3 2 w f f y O l.).~.).Y./.'.1X1X!.",
"Y.U.Y.).$X&X`.E.!.7.) <.<.#.#.%.O.%.R.B./.R.U.7.6.6.U.U././.`.R.V.<XR.T.R.$.{ X.y y y X.O.X.X.| 1.1.1.9.<.9.} <.T.W.&X).=XoXW.Q.Q.",
"~.A.A. X-X-X;X~.`.W.] l.d./ o.a.B D [.[.}.}.b.~.~.Y.Y.K.|.|.|.{.S.|.{.|.|.d.s 5 h h s l.l.f.l.2.OXOXOXOX.X!.;.U.Y.~.;X-X-X%X).$X).",
"l.<.J.W.W.Y.Y.m.N.&.& O.x j l x x d.B.M.M.C.g.*.*.%.N.+.A.A.B.C.B.M.A.z.B.b w w u u w x O.x X.$.8.e.r.r.9.5.] $.<.%.E.W.Y.Y.U.U.U.",
"E.E.T.E.J.g.f.D h.o.R 6.U.q.6.%.l.K.k.K.<XwXtXsX0Xj.M d.Z o.l.N.U.U.%.j.d.d.o.g ^ ^ o./ ^ j.J.l.H.<..X+X4Xy._ 1.W.W.E.U.f.f.h.h.d.",
"J.U.U.E.l.A H V V z t l.U.U.l.J.P.P.P.P.eXdXdXrX1Xm m m m s d.%.l.g.g.m A A Z M h g h f h d.h.g.g.%.Q.@X@Xp.} ,.J.Y.Y.l.G H G G B ",
"<.<.$.<.+.o.S z g.z % O.%.%.$.%.%.+.g.m.R.!.!.!.U.c s x o.o.%.7.%.#.o.o.c g f w t t y ! ! $.+.O.b +.6.9.5.8.`  .<.$.*.$.c S z B d.",
"l.l.#.l.f.k.k.A n.h.e j.X.*.*.l.g.S h.J D m.S g.h.J x.B.0X0X5X7XU.l.k.k.k.h i p d a ( K.K.z.z.h.J J J J l.%.t g.j.j.k.k.z.k.f.A.v.",
"f.f.M A A d.A Z J A 0 c o.+.+.j.c c F C C C B C G G C g.<X<X<X!.l.j.f.d.S a < 2 < < a +.l.g.g.c A A A A c O.& o.A Z d.f.d.d.A c.K ",
"@.o.o.#.X.o.o.Z j.c % y X.X.X.%.U.K.U.*.f a a l a f x O.&.&.7.9.J.<.$.O.O.[ X.y O.&.w.Q.E.#.v X.d./ g o.#.O.% ! @.X.o.X.X.o.S g.c ",
"o.o.S d.o.Z Z D f.s O / o.o.#.).qX2X2XR.5 4 3 3 1 z c x c f N.U.Y.Y.N.%.l.H.H.J.eXdXdXdX0Xo.S A Z M M f.d.Z o f d.d.d.g Z f.D f.d.",
"f X.f s h s M M a.h O ! #./ g )./././.R.3 : 1 ; 2 p a a f f l.N.l.U.l.o.$.#.#.3.oX0XeXeX!.o.c g M M N M M g O y g / g g s a.g M h ",
"9.1.,.d.j.j.j.o.j.#.E 1.6.B.S././.Y.U.W.l.#.( y y X.y X.<.<.U.9.,.%.%.$.$.[ X.+.%.%.X.X.[ y f ( #.o.#.o.#.,.R 1.2.3.#.j.j.j.#.H.%.",
".Xp.<.g.f.f.h.g.k.%.E 9.Y.F.[.(.|.h.P.P.~.z.z f g f a o.W.E.E.T.+.l.l.g.g.x c c o.c q q i 4 q q d.d.d.j.#.E. .y.i.%.f.D h.f.j.K.K.",
"1.e.3.g g o.d c o.x W >.<.A.Z.c.A.g.d.d.j.j.d 3 w 0 0 k %.<.,.$.X.l X.x l y y a y y q ; ; ; ; q f f f f @.3.E :.:.@.c c / c / ^ @."
};
